{
.appVersion = "1206";
copyright = "Copyright © 2019 by Noir Blanc Rouge. All rights reserved.";
customParameters = (
{
name = panose;
value = (
0,
0,
6,
0,
0,
0,
0,
0,
0,
0
);
},
{
name = unicodeRanges;
value = (
0,
1
);
},
{
name = codePageRanges;
value = (
1252
);
},
{
name = blueScale;
value = 0.037;
},
{
name = glyphOrder;
value = (
.notdef,
A,
Aacute,
Acircumflex,
Adieresis,
Agrave,
Aring,
Atilde,
AE,
B,
C,
Ccedilla,
D,
Eth,
E,
Eacute,
Ecircumflex,
Edieresis,
Egrave,
F,
G,
H,
I,
Iacute,
Icircumflex,
Idieresis,
Igrave,
J,
K,
L,
Lslash,
M,
N,
Ntilde,
O,
Oacute,
Ocircumflex,
Odieresis,
Ograve,
Oslash,
Otilde,
OE,
P,
Thorn,
Q,
R,
S,
Scaron,
T,
U,
Uacute,
Ucircumflex,
Udieresis,
Ugrave,
V,
W,
X,
Y,
Yacute,
Ydieresis,
Z,
Zcaron,
a,
aacute,
acircumflex,
adieresis,
agrave,
aring,
atilde,
ae,
b,
c,
ccedilla,
d,
eth,
e,
eacute,
ecircumflex,
edieresis,
egrave,
f,
g,
h,
i,
dotlessi,
iacute,
icircumflex,
idieresis,
igrave,
j,
k,
l,
lslash,
m,
n,
ntilde,
o,
oacute,
ocircumflex,
odieresis,
ograve,
oslash,
otilde,
oe,
p,
thorn,
q,
r,
s,
scaron,
germandbls,
t,
u,
uacute,
ucircumflex,
udieresis,
ugrave,
v,
w,
x,
y,
yacute,
ydieresis,
z,
zcaron,
fi,
fl,
ordfeminine,
ordmasculine,
Delta,
Omega,
mu,
pi,
zero,
one,
two,
three,
four,
five,
six,
seven,
eight,
nine,
fraction,
onehalf,
onequarter,
threequarters,
onesuperior,
twosuperior,
threesuperior,
asterisk,
backslash,
periodcentered,
bullet,
colon,
comma,
ellipsis,
exclam,
exclamdown,
numbersign,
period,
question,
questiondown,
quotedbl,
quotesingle,
semicolon,
slash,
underscore,
braceleft,
braceright,
bracketleft,
bracketright,
parenleft,
parenright,
emdash,
endash,
hyphen,
softhyphen,
guillemotleft,
guillemotright,
guilsinglleft,
guilsinglright,
quotedblbase,
quotedblleft,
quotedblright,
quoteleft,
quoteright,
quotesinglbase,
space,
cent,
currency,
dollar,
Euro,
florin,
sterling,
yen,
approxequal,
asciitilde,
divide,
equal,
greater,
greaterequal,
infinity,
integral,
less,
lessequal,
logicalnot,
minus,
multiply,
notequal,

glyphs = (
{
glyphname = .notdef;
layers = (
{
hints = (
{
horizontal = 1;
place = "{0, 50}";
type = Stem;
},
{
horizontal = 1;
place = "{650, 50}";
type = Stem;
},
{
place = "{0, 50}";
type = Stem;
},
{
place = "{450, 50}";
type = Stem;
}
);
layerId = "6B8C0991-2F12-49E7-9CA3-B7242A37F482";
paths = (
{
closed = 1;
nodes = (
"0 0 LINE",
"500 0 LINE",
"500 700 LINE",
"0 700 LINE"
);
},
{
closed = 1;
nodes = (
"250 395 LINE",
"80 650 LINE",
"420 650 LINE"
);
},
{
closed = 1;
nodes = (
"280 350 LINE",
"450 605 LINE",
"450 95 LINE"
);
},
{
closed = 1;
nodes = (
"80 50 LINE",
"250 305 LINE",
"420 50 LINE"
);
},
{
closed = 1;
nodes = (
"50 605 LINE",
"220 350 LINE",
"50 95 LINE"
);
}
);
width = 500;
}
);
note = .notdef;
},
{
glyphname = A;
layers = (
{
hints = (
{
horizontal = 1;
place = "{186, 94}";
type = Stem;
},
{
place = "{30, 696}";
type = Stem;
}
);
layerId = "6B8C0991-2F12-49E7-9CA3-B7242A37F482";
paths = (
{
closed = 1;
nodes = (
"148 0 LINE",
"222.93 186 LINE",
"533.07 186 LINE",
"608 0 LINE",
"726 0 LINE",
"442 700 LINE",
"314 700 LINE",
"30 0 LINE"
);
},
{
closed = 1;
nodes = (
"260.8 280 LINE",
"378 570.92 LINE",
"495.2 280 LINE"
);
}
);
width = 756;
}
);
leftKerningGroup = A;
note = A;
rightKerningGroup = A;
unicode = 0041;
},
{
glyphname = Aacute;
layers = (
{
hints = (
{
horizontal = 1;
place = "{186, 94}";
type = Stem;
},
{
place = "{30, 696}";
type = Stem;
}
);
layerId = "6B8C0991-2F12-49E7-9CA3-B7242A37F482";
paths = (
{
closed = 1;
nodes = (
"255 793 LINE",
"343 766 LINE",
"500 864 LINE",
"439 965 LINE"
);
},
{
closed = 1;
nodes = (
"148 0 LINE",
"222.93 186 LINE",
"533.07 186 LINE",
"608 0 LINE",
"726 0 LINE",
"442 700 LINE",
"314 700 LINE",
"30 0 LINE"
);
},
{
closed = 1;
nodes = (
"260.8 280 LINE",
"378 570.92 LINE",
"495.2 280 LINE"
);
}
);
width = 756;
}
);
leftKerningGroup = A;
note = Aacute;
rightKerningGroup = A;
unicode = 00C1;
},
{
glyphname = Acircumflex;
layers = (
{
hints = (
{
horizontal = 1;
place = "{186, 94}";
type = Stem;
},
{
place = "{30, 696}";
type = Stem;
}
);
layerId = "6B8C0991-2F12-49E7-9CA3-B7242A37F482";
paths = (
{
closed = 1;
nodes = (
"283 779 LINE",
"379 869.12 LINE",
"475 779 LINE",
"563 806 LINE",
"379 968 LINE",
"195 806 LINE"
);
},
{
closed = 1;
nodes = (
"148 0 LINE",
"222.93 186 LINE",
"533.07 186 LINE",
"608 0 LINE",
"726 0 LINE",
"442 700 LINE",
"314 700 LINE",
"30 0 LINE"
);
},
{
closed = 1;
nodes = (
"260.8 280 LINE",
"378 570.92 LINE",
"495.2 280 LINE"
);
}
);
width = 756;
}
);
leftKerningGroup = A;
note = Acircumflex;
rightKerningGroup = A;
unicode = 00C2;
},
{
glyphname = Adieresis;
layers = (
{
hints = (
{
horizontal = 1;
place = "{186, 94}";
type = Stem;
},
{
horizontal = 1;
place = "{783, 108}";
type = Stem;
},
{
place = "{200, 108}";
type = Stem;
},
{
place = "{448, 108}";
type = Stem;
}
);
layerId = "6B8C0991-2F12-49E7-9CA3-B7242A37F482";
paths = (
{
closed = 1;
nodes = (
"308 891 LINE",
"200 891 LINE",
"200 783 LINE",
"308 783 LINE"
);
},
{
closed = 1;
nodes = (
"556 891 LINE",
"448 891 LINE",
"448 783 LINE",
"556 783 LINE"
);
},
{
closed = 1;
nodes = (
"148 0 LINE",
"222.93 186 LINE",
"533.07 186 LINE",
"608 0 LINE",
"726 0 LINE",
"442 700 LINE",
"314 700 LINE",
"30 0 LINE"
);
},
{
closed = 1;
nodes = (
"260.8 280 LINE",
"378 570.92 LINE",
"495.2 280 LINE"
);
}
);
width = 756;
}
);
leftKerningGroup = A;
note = Adieresis;
rightKerningGroup = A;
unicode = 00C4;
},
{
glyphname = Agrave;
layers = (
{
hints = (
{
horizontal = 1;
place = "{186, 94}";
type = Stem;
},
{
place = "{30, 696}";
type = Stem;
}
);
layerId = "6B8C0991-2F12-49E7-9CA3-B7242A37F482";
paths = (
{
closed = 1;
nodes = (
"497 793 LINE",
"313 965 LINE",
"252 864 LINE",
"409 766 LINE"
);
},
{
closed = 1;
nodes = (
"148 0 LINE",
"222.93 186 LINE",
"533.07 186 LINE",
"608 0 LINE",
"726 0 LINE",
"442 700 LINE",
"314 700 LINE",
"30 0 LINE"
);
},
{
closed = 1;
nodes = (
"260.8 280 LINE",
"378 570.92 LINE",
"495.2 280 LINE"
);
}
);
width = 756;
}
);
leftKerningGroup = A;
note = Agrave;
rightKerningGroup = A;
unicode = 00C0;
},
{
glyphname = Aring;
layers = (
{
hints = (
{
horizontal = 1;
place = "{186, 94}";
type = Stem;
},
{
horizontal = 1;
place = "{755, 60}";
type = Stem;
},
{
horizontal = 1;
place = "{951, 60}";
type = Stem;
},
{
place = "{250, 60}";
type = Stem;
},
{
place = "{446, 60}";
type = Stem;
}
);
layerId = "6B8C0991-2F12-49E7-9CA3-B7242A37F482";
paths = (
{
closed = 1;
nodes = (
"449 755 OFFCURVE",
"506 812 OFFCURVE",
"506 883 CURVE SMOOTH",
"506 954 OFFCURVE",
"449 1011 OFFCURVE",
"378 1011 CURVE SMOOTH",
"307 1011 OFFCURVE",
"250 954 OFFCURVE",
"250 883 CURVE SMOOTH",
"250 812 OFFCURVE",
"307 755 OFFCURVE",
"378 755 CURVE SMOOTH"
);
},
{
closed = 1;
nodes = (
"340 815 OFFCURVE",
"310 845 OFFCURVE",
"310 883 CURVE SMOOTH",
"310 921 OFFCURVE",
"340 951 OFFCURVE",
"378 951 CURVE SMOOTH",
"416 951 OFFCURVE",
"446 921 OFFCURVE",
"446 883 CURVE SMOOTH",
"446 845 OFFCURVE",
"416 815 OFFCURVE",
"378 815 CURVE SMOOTH"
);
},
{
closed = 1;
nodes = (
"148 0 LINE",
"222.93 186 LINE",
"533.07 186 LINE",
"608 0 LINE",
"726 0 LINE",
"442 700 LINE",
"314 700 LINE",
"30 0 LINE"
);
},
{
closed = 1;
nodes = (
"260.8 280 LINE",
"378 570.92 LINE",
"495.2 280 LINE"
);
}
);
width = 756;
}
);
leftKerningGroup = A;
note = Aring;
rightKerningGroup = A;
unicode = 00C5;
},
{
glyphname = Atilde;
layers = (
{
hints = (
{
horizontal = 1;
place = "{185.99, 94}";
type = Stem;
},
{
horizontal = 1;
place = "{787.99, 160}";
type = Stem;
},
{
place = "{189, 72.93}";
type = Stem;
},
{
place = "{486.06, 75.06}";
type = Stem;
},
{
horizontal = 1;
place = "{788, 61}";
type = Stem;
}
);
layerId = "6B8C0991-2F12-49E7-9CA3-B7242A37F482";
paths = (
{
closed = 1;
nodes = (
"425 948 LINE",
"463.87 920.13 OFFCURVE",
"486.06 879.89 OFFCURVE",
"486.06 860.41 CURVE SMOOTH",
"486.06 853.33 OFFCURVE",
"483.13 849 OFFCURVE",
"477 849 CURVE SMOOTH",
"452 849 OFFCURVE",
"409 889 OFFCURVE",
"386 906 CURVE SMOOTH",
"342 937 OFFCURVE",
"321 948 OFFCURVE",
"280 948 CURVE SMOOTH",
"220.83 948 OFFCURVE",
"189 906.39 OFFCURVE",
"189 861.84 CURVE SMOOTH",
"189 835.62 OFFCURVE",
"200.03 808.37 OFFCURVE",
"223 787.99 CURVE",
"323 787.99 LINE",
"284.13 815.86 OFFCURVE",
"261.93 861.48 OFFCURVE",
"261.93 883.83 CURVE SMOOTH",
"261.93 891.95 OFFCURVE",
"264.87 897 OFFCURVE",
"271 897 CURVE SMOOTH",
"297 897 OFFCURVE",
"340 847 OFFCURVE",
"379 819 CURVE SMOOTH",
"403 801 OFFCURVE",
"432 788 OFFCURVE",
"468 788 CURVE SMOOTH",
"526.83 788 OFFCURVE",
"561.12 833.26 OFFCURVE",
"561.12 877.69 CURVE SMOOTH",
"561.12 905.01 OFFCURVE",
"548.17 932.01 OFFCURVE",
"520 947.99 CURVE"
);
},
{
closed = 1;
nodes = (
"148 -0.01 LINE",
"222.93 185.99 LINE",
"533.07 185.99 LINE",
"608 -0.01 LINE",
"726 -0.01 LINE",
"442 699.99 LINE",
"314 699.99 LINE",
"30 -0.01 LINE"
);
},
{
closed = 1;
nodes = (
"260.8 279.99 LINE",
"378 570.91 LINE",
"495.2 279.99 LINE"
);
}
);
width = 756;
}
);
leftKerningGroup = A;
note = Atilde;
rightKerningGroup = A;
unicode = 00C3;
},
{
glyphname = AE;
layers = (
{
hints = (
{
horizontal = 1;
place = "{0, 108}";
type = Stem;
},
{
horizontal = 1;
place = "{304, 108}";
type = Stem;
},
{
horizontal = 1;
place = "{592, 108}";
type = Stem;
},
{
place = "{487, 108}";
type = Stem;
},
{
horizontal = 1;
place = "{232, 94}";
type = Stem;
}
);
layerId = "6B8C0991-2F12-49E7-9CA3-B7242A37F482";
paths = (
{
closed = 1;
nodes = (
"1032 0 LINE",
"1032 108 LINE",
"595 108 LINE",
"595 304 LINE",
"1012 304 LINE",
"1012 412 LINE",
"595 412 LINE",
"595 592 LINE",
"1022 592 LINE",
"1022 700 LINE",
"422 700 LINE",
"24 0 LINE",
"152 0 LINE",
"283.24 232 LINE",
"487 232 LINE",
"487 0 LINE"
);
},
{
closed = 1;
nodes = (
"487 592.17 LINE",
"487 326 LINE",
"336.42 326 LINE"
);
}
);
width = 1070;
}
);
note = AE;
rightKerningGroup = AE;
unicode = 00C6;
},
{
glyphname = B;
layers = (
{
hints = (
{
horizontal = 1;
place = "{0, 98}";
type = Stem;
},
{
horizontal = 1;
place = "{352, 89}";
type = Stem;
},
{
horizontal = 1;
place = "{602, 98}";
type = Stem;
},
{
place = "{40, 108}";
type = Stem;
},
{
place = "{437, 119}";
type = Stem;
},
{
place = "{333, 108}";
type = Stem;
}
);
layerId = "6B8C0991-2F12-49E7-9CA3-B7242A37F482";
paths = (
{
closed = 1;
nodes = (
"427.91 451.59 OFFCURVE",
"441 486.49 OFFCURVE",
"441 533 CURVE SMOOTH",
"441 662 OFFCURVE",
"340 700 OFFCURVE",
"231 700 CURVE SMOOTH",
"40 700 LINE",
"40 0 LINE",
"288 0 LINE SMOOTH",
"441 0 OFFCURVE",
"556 71 OFFCURVE",
"556 222 CURVE SMOOTH",
"556 330.18 OFFCURVE",
"500.21 397.74 OFFCURVE",
"406.19 425.88 CURVE"
);
},
{
closed = 1;
nodes = (
"148 441 LINE",
"148 602 LINE",
"231 602 LINE SMOOTH",
"300 602 OFFCURVE",
"333 572 OFFCURVE",
"333 523 CURVE SMOOTH",
"333 474 OFFCURVE",
"301 441 OFFCURVE",
"228 441 CURVE SMOOTH"
);
},
{
closed = 1;
nodes = (
"148 98 LINE",
"148 352 LINE",
"274 352 LINE SMOOTH",
"372 352 OFFCURVE",
"437 313 OFFCURVE",
"437 222 CURVE SMOOTH",
"437 135 OFFCURVE",
"375 98 OFFCURVE",
"269 98 CURVE SMOOTH"
);
}
);
width = 573;
}
);
leftKerningGroup = B;
note = B;
rightKerningGroup = B;
unicode = 0042;
},
{
glyphname = C;
layers = (
{
hints = (
{
horizontal = 1;
place = "{-5, 98}";
type = Stem;
},
{
horizontal = 1;
place = "{607, 98}";
type = Stem;
},
{
place = "{50, 118}";
type = Stem;
}
);
layerId = "6B8C0991-2F12-49E7-9CA3-B7242A37F482";
paths = (
{
closed = 1;
nodes = (
"189 705 OFFCURVE",
"50 544 OFFCURVE",
"50 348 CURVE SMOOTH",
"50 154 OFFCURVE",
"190 -5 OFFCURVE",
"399 -5 CURVE SMOOTH",
"529 -5 OFFCURVE",
"632 52 OFFCURVE",
"691 144 CURVE",
"589 193 LINE",
"548 129 OFFCURVE",
"478 93 OFFCURVE",
"399 93 CURVE SMOOTH",
"263 93 OFFCURVE",
"168 200 OFFCURVE",
"168 348 CURVE SMOOTH",
"168 498 OFFCURVE",
"264 607 OFFCURVE",
"399 607 CURVE SMOOTH",
"480 607 OFFCURVE",
"551 569 OFFCURVE",
"592 501 CURVE",
"693 552 LINE",
"633 646 OFFCURVE",
"530 705 OFFCURVE",
"399 705 CURVE SMOOTH"
);
}
);
width = 723;
}
);
leftKerningGroup = C;
note = C;
rightKerningGroup = C;
unicode = 0043;
},
{
glyphname = Ccedilla;
layers = (
{
hints = (
{
horizontal = 1;
place = "{-208, 57}";
type = Stem;
},
{
horizontal = 1;
place = "{-73.01, 42}";
type = Stem;
},
{
horizontal = 1;
place = "{-5.01, 98}";
type = Stem;
},
{
horizontal = 1;
place = "{607, 98}";
type = Stem;
},
{
place = "{50, 118}";
type = Stem;
},
{
place = "{425.19, 63.53}";
type = Stem;
}
);
layerId = "6B8C0991-2F12-49E7-9CA3-B7242A37F482";
paths = (
{
closed = 1;
nodes = (
"263 93 OFFCURVE",
"168 200 OFFCURVE",
"168 348 CURVE SMOOTH",
"168 498 OFFCURVE",
"264 607 OFFCURVE",
"399 607 CURVE SMOOTH",
"480 607 OFFCURVE",
"551 569 OFFCURVE",
"592 501 CURVE",
"693 552 LINE",
"633 646 OFFCURVE",
"530 705 OFFCURVE",
"399 705 CURVE SMOOTH",
"189 705 OFFCURVE",
"50 544 OFFCURVE",
"50 348 CURVE SMOOTH",
"50 174.39 OFFCURVE",
"162.11 28.81 OFFCURVE",
"335.46 0.12 CURVE",
"294 -90.01 LINE",
"357 -90.01 LINE",
"362 -83.01 OFFCURVE",
"375 -73.01 OFFCURVE",
"397 -73.01 CURVE SMOOTH",
"414.61 -73.01 OFFCURVE",
"425.19 -82.86 OFFCURVE",
"425.19 -99.61 CURVE SMOOTH",
"425.19 -133.37 OFFCURVE",
"392.79 -151.01 OFFCURVE",
"357.99 -151.01 CURVE SMOOTH",
"334.99 -151.01 OFFCURVE",
"289.99 -140.01 OFFCURVE",
"277.99 -130.01 CURVE",
"277.99 -196.01 LINE",
"284.99 -200.01 OFFCURVE",
"318.99 -208.01 OFFCURVE",
"345.99 -208.01 CURVE SMOOTH",
"400.99 -208.01 OFFCURVE",
"471.99 -181.01 OFFCURVE",
"486.99 -112.01 CURVE SMOOTH",
"488.14 -106.52 OFFCURVE",
"488.72 -101.11 OFFCURVE",
"488.72 -95.86 CURVE SMOOTH",
"488.72 -59.93 OFFCURVE",
"461.7 -31.01 OFFCURVE",
"404.99 -31.01 CURVE SMOOTH",
"397.5 -31.01 OFFCURVE",
"389.75 -32.22 OFFCURVE",
"382.05 -34.33 CURVE",
"395.25 -4.99 LINE",
"396.49 -5 OFFCURVE",
"397.74 -5.01 OFFCURVE",
"398.99 -5.01 CURVE SMOOTH",
"528.99 -5.01 OFFCURVE",
"631.99 51.99 OFFCURVE",
"690.99 143.99 CURVE",
"588.99 192.99 LINE",
"547.99 128.99 OFFCURVE",
"477.99 92.99 OFFCURVE",
"398.99 92.99 CURVE SMOOTH"
);
}
);
width = 723;
}
);
leftKerningGroup = C;
note = Ccedilla;
rightKerningGroup = C;
unicode = 00C7;
},
{
glyphname = D;
layers = (
{
hints = (
{
horizontal = 1;
place = "{0, 98}";
type = Stem;
},
{
horizontal = 1;
place = "{602, 98}";
type = Stem;
},
{
place = "{40, 108}";
type = Stem;
},
{
place = "{488, 113}";
type = Stem;
}
);
layerId = "6B8C0991-2F12-49E7-9CA3-B7242A37F482";
paths = (
{
closed = 1;
nodes = (
"40 700 LINE",
"40 0 LINE",
"236 0 LINE SMOOTH",
"439 0 OFFCURVE",
"601 105 OFFCURVE",
"601 351 CURVE SMOOTH",
"601 602 OFFCURVE",
"418 700 OFFCURVE",
"220 700 CURVE SMOOTH"
);
},
{
closed = 1;
nodes = (
"148 98 LINE",
"148 602 LINE",
"220 602 LINE SMOOTH",
"373 602 OFFCURVE",
"488 537 OFFCURVE",
"488 351 CURVE SMOOTH",
"488 169 OFFCURVE",
"392 98 OFFCURVE",
"236 98 CURVE SMOOTH"
);
}
);
width = 626;
}
);
leftKerningGroup = B;
note = D;
rightKerningGroup = D;
unicode = 0044;
},
{
glyphname = Eth;
layers = (
{
hints = (
{
horizontal = 1;
place = "{0, 98}";
type = Stem;
},
{
horizontal = 1;
place = "{258, 100}";
type = Stem;
},
{
horizontal = 1;
place = "{602, 98}";
type = Stem;
},
{
place = "{176, 108}";
type = Stem;
},
{
place = "{624, 113}";
type = Stem;
}
);
layerId = "6B8C0991-2F12-49E7-9CA3-B7242A37F482";
paths = (
{
closed = 1;
nodes = (
"176 700 LINE",
"176 358 LINE",
"32 358 LINE",
"32 258 LINE",
"176 258 LINE",
"176 0 LINE",
"372 0 LINE SMOOTH",
"575 0 OFFCURVE",
"737 105 OFFCURVE",
"737 351 CURVE SMOOTH",
"737 602 OFFCURVE",
"554 700 OFFCURVE",
"356 700 CURVE SMOOTH"
);
},
{
closed = 1;
nodes = (
"284 98 LINE",
"284 258 LINE",
"453 258 LINE",
"453 358 LINE",
"284 358 LINE",
"284 602 LINE",
"356 602 LINE SMOOTH",
"509 602 OFFCURVE",
"624 537 OFFCURVE",
"624 351 CURVE SMOOTH",
"624 169 OFFCURVE",
"528 98 OFFCURVE",
"372 98 CURVE SMOOTH"
);
}
);
width = 777;
}
);
leftKerningGroup = Eth;
note = Eth;
rightKerningGroup = D;
unicode = 00D0;
},
{
glyphname = E;
layers = (
{
hints = (
{
horizontal = 1;
place = "{0, 108}";
type = Stem;
},
{
horizontal = 1;
place = "{304, 108}";
type = Stem;
},
{
horizontal = 1;
place = "{592, 108}";
type = Stem;
},
{
place = "{50, 108}";
type = Stem;
}
);
layerId = "6B8C0991-2F12-49E7-9CA3-B7242A37F482";
paths = (
{
closed = 1;
nodes = (
"50 0 LINE",
"595 0 LINE",
"595 108 LINE",
"158 108 LINE",
"158 304 LINE",
"575 304 LINE",
"575 412 LINE",
"158 412 LINE",
"158 592 LINE",
"585 592 LINE",
"585 700 LINE",
"50 700 LINE"
);
}
);
width = 633;
}
);
leftKerningGroup = B;
note = E;
rightKerningGroup = AE;
unicode = 0045;
},
{
glyphname = Eacute;
layers = (
{
hints = (
{
horizontal = 1;
place = "{0, 108}";
type = Stem;
},
{
horizontal = 1;
place = "{304, 108}";
type = Stem;
},
{
horizontal = 1;
place = "{592, 108}";
type = Stem;
},
{
place = "{50, 108}";
type = Stem;
}
);
layerId = "6B8C0991-2F12-49E7-9CA3-B7242A37F482";
paths = (
{
closed = 1;
nodes = (
"194 793 LINE",
"282 766 LINE",
"439 864 LINE",
"378 965 LINE"
);
},
{
closed = 1;
nodes = (
"50 0 LINE",
"595 0 LINE",
"595 108 LINE",
"158 108 LINE",
"158 304 LINE",
"575 304 LINE",
"575 412 LINE",
"158 412 LINE",
"158 592 LINE",
"585 592 LINE",
"585 700 LINE",
"50 700 LINE"
);
}
);
width = 633;
}
);
note = Eacute;
rightKerningGroup = AE;
unicode = 00C9;
},
{
glyphname = Ecircumflex;
layers = (
{
hints = (
{
horizontal = 1;
place = "{0, 108}";
type = Stem;
},
{
horizontal = 1;
place = "{304, 108}";
type = Stem;
},
{
horizontal = 1;
place = "{592, 108}";
type = Stem;
},
{
place = "{50, 108}";
type = Stem;
}
);
layerId = "6B8C0991-2F12-49E7-9CA3-B7242A37F482";
paths = (
{
closed = 1;
nodes = (
"222 779 LINE",
"318 869.12 LINE",
"414 779 LINE",
"502 806 LINE",
"318 968 LINE",
"134 806 LINE"
);
},
{
closed = 1;
nodes = (
"50 0 LINE",
"595 0 LINE",
"595 108 LINE",
"158 108 LINE",
"158 304 LINE",
"575 304 LINE",
"575 412 LINE",
"158 412 LINE",
"158 592 LINE",
"585 592 LINE",
"585 700 LINE",
"50 700 LINE"
);
}
);
width = 633;
}
);
note = Ecircumflex;
rightKerningGroup = AE;
unicode = 00CA;
},
{
glyphname = Edieresis;
layers = (
{
hints = (
{
horizontal = 1;
place = "{0, 108}";
type = Stem;
},
{
horizontal = 1;
place = "{304, 108}";
type = Stem;
},
{
horizontal = 1;
place = "{592, 108}";
type = Stem;
},
{
horizontal = 1;
place = "{783, 108}";
type = Stem;
},
{
place = "{139, 108}";
type = Stem;
},
{
place = "{387, 108}";
type = Stem;
},
{
place = "{50, 108}";
type = Stem;
}
);
layerId = "6B8C0991-2F12-49E7-9CA3-B7242A37F482";
paths = (
{
closed = 1;
nodes = (
"247 891 LINE",
"139 891 LINE",
"139 783 LINE",
"247 783 LINE"
);
},
{
closed = 1;
nodes = (
"495 891 LINE",
"387 891 LINE",
"387 783 LINE",
"495 783 LINE"
);
},
{
closed = 1;
nodes = (
"50 0 LINE",
"595 0 LINE",
"595 108 LINE",
"158 108 LINE",
"158 304 LINE",
"575 304 LINE",
"575 412 LINE",
"158 412 LINE",
"158 592 LINE",
"585 592 LINE",
"585 700 LINE",
"50 700 LINE"
);
}
);
width = 633;
}
);
note = Edieresis;
rightKerningGroup = AE;
unicode = 00CB;
},
{
glyphname = Egrave;
layers = (
{
hints = (
{
horizontal = 1;
place = "{0, 108}";
type = Stem;
},
{
horizontal = 1;
place = "{304, 108}";
type = Stem;
},
{
horizontal = 1;
place = "{592, 108}";
type = Stem;
},
{
place = "{50, 108}";
type = Stem;
}
);
layerId = "6B8C0991-2F12-49E7-9CA3-B7242A37F482";
paths = (
{
closed = 1;
nodes = (
"436 793 LINE",
"252 965 LINE",
"191 864 LINE",
"348 766 LINE"
);
},
{
closed = 1;
nodes = (
"50 0 LINE",
"595 0 LINE",
"595 108 LINE",
"158 108 LINE",
"158 304 LINE",
"575 304 LINE",
"575 412 LINE",
"158 412 LINE",
"158 592 LINE",
"585 592 LINE",
"585 700 LINE",
"50 700 LINE"
);
}
);
width = 633;
}
);
note = Egrave;
rightKerningGroup = AE;
unicode = 00C8;
},
{
glyphname = F;
layers = (
{
hints = (
{
horizontal = 1;
place = "{304, 108}";
type = Stem;
},
{
horizontal = 1;
place = "{592, 108}";
type = Stem;
},
{
place = "{50, 108}";
type = Stem;
}
);
layerId = "6B8C0991-2F12-49E7-9CA3-B7242A37F482";
paths = (
{
closed = 1;
nodes = (
"575 412 LINE",
"158 412 LINE",
"158 592 LINE",
"585 592 LINE",
"585 700 LINE",
"50 700 LINE",
"50 0 LINE",
"158 0 LINE",
"158 304 LINE",
"575 304 LINE"
);
}
);
width = 630;
}
);
leftKerningGroup = B;
note = F;
rightKerningGroup = F;
unicode = 0046;
},
{
glyphname = G;
layers = (
{
hints = (
{
horizontal = 1;
place = "{-5.02, 98.02}";
type = Stem;
},
{
horizontal = 1;
place = "{305, 98}";
type = Stem;
},
{
horizontal = 1;
place = "{607, 98}";
type = Stem;
},
{
place = "{50, 118}";
type = Stem;
},
{
place = "{618, 98}";
type = Stem;
}
);
layerId = "6B8C0991-2F12-49E7-9CA3-B7242A37F482";
paths = (
{
closed = 1;
nodes = (
"618 0 LINE",
"716 0 LINE",
"716 403 LINE",
"389 403 LINE",
"389 305 LINE",
"608 305 LINE",
"608 294 LINE SMOOTH",
"608 197 OFFCURVE",
"557 93 OFFCURVE",
"401 93 CURVE SMOOTH",
"250 93 OFFCURVE",
"168 200 OFFCURVE",
"168 348 CURVE SMOOTH",
"168 498 OFFCURVE",
"267 607 OFFCURVE",
"402 607 CURVE SMOOTH",
"483 607 OFFCURVE",
"551 569 OFFCURVE",
"592 501 CURVE",
"693 552 LINE",
"633 646 OFFCURVE",
"533 705 OFFCURVE",
"402 705 CURVE SMOOTH",
"192 705 OFFCURVE",
"50 544 OFFCURVE",
"50 348 CURVE SMOOTH",
"50 152.54 OFFCURVE",
"174.85 -5.02 OFFCURVE",
"400.1 -5.02 CURVE SMOOTH",
"494.92 -5.02 OFFCURVE",
"567.89 36.12 OFFCURVE",
"616.93 92.98 CURVE",
"618 90 LINE"
);
}
);
width = 777;
}
);
leftKerningGroup = C;
note = G;
rightKerningGroup = G;
unicode = 0047;
},
{
glyphname = H;
layers = (
{
hints = (
{
horizontal = 1;
place = "{313, 108}";
type = Stem;
},
{
place = "{50, 108}";
type = Stem;
},
{
place = "{543, 108}";
type = Stem;
}
);
layerId = "6B8C0991-2F12-49E7-9CA3-B7242A37F482";
paths = (
{
closed = 1;
nodes = (
"543 0 LINE",
"651 0 LINE",
"651 700 LINE",
"543 700 LINE",
"543 421 LINE",
"158 421 LINE",
"158 700 LINE",
"50 700 LINE",
"50 0 LINE",
"158 0 LINE",
"158 313 LINE",
"543 313 LINE"
);
}
);
width = 701;
}
);
leftKerningGroup = B;
note = H;
rightKerningGroup = H;
unicode = 0048;
},
{
glyphname = I;
layers = (
{
hints = (
{
horizontal = 1;
place = "{0, 700}";
type = Stem;
},
{
place = "{70, 108}";
type = Stem;
}
);
layerId = "6B8C0991-2F12-49E7-9CA3-B7242A37F482";
paths = (
{
closed = 1;
nodes = (
"178 700 LINE",
"70 700 LINE",
"70 0 LINE",
"178 0 LINE"
);
}
);
width = 248;
}
);
leftKerningGroup = I;
note = I;
rightKerningGroup = I;
unicode = 0049;
},
{
glyphname = Iacute;
layers = (
{
hints = (
{
horizontal = 1;
place = "{0, 965}";
type = Stem;
},
{
place = "{70, 108}";
type = Stem;
}
);
layerId = "6B8C0991-2F12-49E7-9CA3-B7242A37F482";
paths = (
{
closed = 1;
nodes = (
"1 793 LINE",
"89 766 LINE",
"246 864 LINE",
"185 965 LINE"
);
},
{
closed = 1;
nodes = (
"178 700 LINE",
"70 700 LINE",
"70 0 LINE",
"178 0 LINE"
);
}
);
width = 248;
}
);
leftKerningGroup = I;
note = Iacute;
rightKerningGroup = I;
unicode = 00CD;
},
{
glyphname = Icircumflex;
layers = (
{
hints = (
{
horizontal = 1;
place = "{0, 968}";
type = Stem;
},
{
place = "{70, 108}";
type = Stem;
}
);
layerId = "6B8C0991-2F12-49E7-9CA3-B7242A37F482";
paths = (
{
closed = 1;
nodes = (
"29 779 LINE",
"125 869.12 LINE",
"221 779 LINE",
"309 806 LINE",
"125 968 LINE",
"-59 806 LINE"
);
},
{
closed = 1;
nodes = (
"178 700 LINE",
"70 700 LINE",
"70 0 LINE",
"178 0 LINE"
);
}
);
width = 248;
}
);
leftKerningGroup = I;
note = Icircumflex;
rightKerningGroup = I;
unicode = 00CE;
},
{
glyphname = Idieresis;
layers = (
{
hints = (
{
horizontal = 1;
place = "{783, 108}";
type = Stem;
},
{
place = "{-54, 108}";
type = Stem;
},
{
place = "{70, 108}";
type = Stem;
},
{
place = "{194, 108}";
type = Stem;
}
);
layerId = "6B8C0991-2F12-49E7-9CA3-B7242A37F482";
paths = (
{
closed = 1;
nodes = (
"54 891 LINE",
"-54 891 LINE",
"-54 783 LINE",
"54 783 LINE"
);
},
{
closed = 1;
nodes = (
"302 891 LINE",
"194 891 LINE",
"194 783 LINE",
"302 783 LINE"
);
},
{
closed = 1;
nodes = (
"178 700 LINE",
"70 700 LINE",
"70 0 LINE",
"178 0 LINE"
);
}
);
width = 248;
}
);
leftKerningGroup = I;
note = Idieresis;
rightKerningGroup = I;
unicode = 00CF;
},
{
glyphname = Igrave;
layers = (
{
hints = (
{
horizontal = 1;
place = "{0, 965}";
type = Stem;
},
{
place = "{70, 108}";
type = Stem;
}
);
layerId = "6B8C0991-2F12-49E7-9CA3-B7242A37F482";
paths = (
{
closed = 1;
nodes = (
"243 793 LINE",
"59 965 LINE",
"-2 864 LINE",
"155 766 LINE"
);
},
{
closed = 1;
nodes = (
"178 700 LINE",
"70 700 LINE",
"70 0 LINE",
"178 0 LINE"
);
}
);
width = 248;
}
);
leftKerningGroup = I;
note = Igrave;
rightKerningGroup = I;
unicode = 00CC;
},
{
glyphname = J;
layers = (
{
hints = (
{
horizontal = 1;
place = "{-12, 95}";
type = Stem;
},
{
place = "{392, 109}";
type = Stem;
}
);
layerId = "6B8C0991-2F12-49E7-9CA3-B7242A37F482";
paths = (
{
closed = 1;
nodes = (
"500 700 LINE",
"392 700 LINE",
"392 245 LINE SMOOTH",
"392 134 OFFCURVE",
"331 83 OFFCURVE",
"250 83 CURVE SMOOTH",
"157 83 OFFCURVE",
"132 130 OFFCURVE",
"115 176 CURVE",
"24 113 LINE",
"56 43 OFFCURVE",
"123 -12 OFFCURVE",
"250 -12 CURVE SMOOTH",
"389 -12 OFFCURVE",
"501 74 OFFCURVE",
"501 245 CURVE"
);
}
);
width = 581;
}
);
leftKerningGroup = J;
note = J;
rightKerningGroup = J;
unicode = 004A;
},
{
glyphname = K;
layers = (
{
hints = (
{
horizontal = 1;
place = "{0, 700}";
type = Stem;
},
{
place = "{50, 108}";
type = Stem;
}
);
layerId = "6B8C0991-2F12-49E7-9CA3-B7242A37F482";
paths = (
{
closed = 1;
nodes = (
"158 0 LINE",
"158 235.33 LINE",
"257.95 344.62 LINE",
"486 0 LINE",
"614 0 LINE",
"333.31 427.01 LINE",
"583 700 LINE",
"450 700 LINE",
"158 380.74 LINE",
"158 700 LINE",
"50 700 LINE",
"50 0 LINE"
);
}
);
width = 639;
}
);
leftKerningGroup = B;
note = K;
rightKerningGroup = K;
unicode = 004B;
},
{
glyphname = L;
layers = (
{
hints = (
{
horizontal = 1;
place = "{0, 108}";
type = Stem;
},
{
place = "{50, 108}";
type = Stem;
}
);
layerId = "6B8C0991-2F12-49E7-9CA3-B7242A37F482";
paths = (
{
closed = 1;
nodes = (
"50 0 LINE",
"551 0 LINE",
"551 108 LINE",
"158 108 LINE",
"158 700 LINE",
"50 700 LINE"
);
}
);
width = 582;
}
);
leftKerningGroup = B;
note = L;
rightKerningGroup = L;
unicode = 004C;
},
{
glyphname = Lslash;
layers = (
{
hints = (
{
horizontal = 1;
place = "{0, 108}";
type = Stem;
},
{
place = "{165, 108}";
type = Stem;
}
);
layerId = "6B8C0991-2F12-49E7-9CA3-B7242A37F482";
paths = (
{
closed = 1;
nodes = (
"666 0 LINE",
"666 108 LINE",
"273 108 LINE",
"273 363.71 LINE",
"382 395 LINE",
"381 500 LINE",
"273 469 LINE",
"273 700 LINE",
"165 700 LINE",
"165 438 LINE",
"50 405 LINE",
"51 300 LINE",
"165 332.72 LINE",
"165 0 LINE"
);
}
);
width = 697;
}
);
note = Lslash;
unicode = 0141;
},
{
glyphname = M;
layers = (
{
hints = (
{
horizontal = 1;
place = "{0, 700}";
type = Stem;
},
{
place = "{50, 108}";
type = Stem;
},
{
place = "{728, 108}";
type = Stem;
}
);
layerId = "6B8C0991-2F12-49E7-9CA3-B7242A37F482";
paths = (
{
closed = 1;
nodes = (
"728 0 LINE",
"836 0 LINE",
"836 700 LINE",
"693 700 LINE",
"443 118.6 LINE",
"193 700 LINE",
"50 700 LINE",
"50 0 LINE",
"158 0 LINE",
"158 497.96 LINE",
"379 0 LINE",
"507 0 LINE",
"728 499.59 LINE"
);
}
);
width = 886;
}
);
leftKerningGroup = B;
note = M;
rightKerningGroup = H;
unicode = 004D;
},
{
glyphname = N;
layers = (
{
hints = (
{
horizontal = 1;
place = "{0, 700}";
type = Stem;
},
{
place = "{50, 108}";
type = Stem;
},
{
place = "{477, 108}";
type = Stem;
}
);
layerId = "6B8C0991-2F12-49E7-9CA3-B7242A37F482";
paths = (
{
closed = 1;
nodes = (
"472 0 LINE",
"585 0 LINE",
"585 700 LINE",
"477 700 LINE",
"477 191.49 LINE",
"158 700 LINE",
"50 700 LINE",
"50 0 LINE",
"158 0 LINE",
"158 498.22 LINE"
);
}
);
width = 625;
}
);
leftKerningGroup = B;
note = N;
rightKerningGroup = H;
unicode = 004E;
},
{
glyphname = Ntilde;
layers = (
{
hints = (
{
horizontal = 1;
place = "{787.99, 160}";
type = Stem;
},
{
place = "{50, 108}";
type = Stem;
},
{
place = "{426.06, 75.06}";
type = Stem;
},
{
horizontal = 1;
place = "{788, 61}";
type = Stem;
},
{
place = "{129, 72.93}";
type = Stem;
},
{
place = "{477, 108}";
type = Stem;
}
);
layerId = "6B8C0991-2F12-49E7-9CA3-B7242A37F482";
paths = (
{
closed = 1;
nodes = (
"365 948 LINE",
"403.87 920.13 OFFCURVE",
"426.06 879.89 OFFCURVE",
"426.06 860.41 CURVE SMOOTH",
"426.06 853.33 OFFCURVE",
"423.13 849 OFFCURVE",
"417 849 CURVE SMOOTH",
"392 849 OFFCURVE",
"349 889 OFFCURVE",
"326 906 CURVE SMOOTH",
"282 937 OFFCURVE",
"261 948 OFFCURVE",
"220 948 CURVE SMOOTH",
"160.83 948 OFFCURVE",
"129 906.39 OFFCURVE",
"129 861.84 CURVE SMOOTH",
"129 835.62 OFFCURVE",
"140.03 808.37 OFFCURVE",
"163 787.99 CURVE",
"263 787.99 LINE",
"224.13 815.86 OFFCURVE",
"201.93 861.48 OFFCURVE",
"201.93 883.83 CURVE SMOOTH",
"201.93 891.95 OFFCURVE",
"204.87 897 OFFCURVE",
"211 897 CURVE SMOOTH",
"237 897 OFFCURVE",
"280 847 OFFCURVE",
"319 819 CURVE SMOOTH",
"343 801 OFFCURVE",
"372 788 OFFCURVE",
"408 788 CURVE SMOOTH",
"466.83 788 OFFCURVE",
"501.12 833.26 OFFCURVE",
"501.12 877.69 CURVE SMOOTH",
"501.12 905.01 OFFCURVE",
"488.17 932.01 OFFCURVE",
"460 947.99 CURVE"
);
},
{
closed = 1;
nodes = (
"472 -0.01 LINE",
"585 -0.01 LINE",
"585 699.99 LINE",
"477 699.99 LINE",
"477 191.49 LINE",
"158 699.99 LINE",
"50 699.99 LINE",
"50 -0.01 LINE",
"158 -0.01 LINE",
"158 498.22 LINE"
);
}
);
width = 625;
}
);
leftKerningGroup = B;
note = Ntilde;
unicode = 00D1;
},
{
glyphname = O;
layers = (
{
hints = (
{
horizontal = 1;
place = "{-5, 98}";
type = Stem;
},
{
horizontal = 1;
place = "{607, 98}";
type = Stem;
},
{
place = "{50, 108}";
type = Stem;
},
{
place = "{640, 108}";
type = Stem;
}
);
layerId = "6B8C0991-2F12-49E7-9CA3-B7242A37F482";
paths = (
{
closed = 1;
nodes = (
"609 -5 OFFCURVE",
"748 154 OFFCURVE",
"748 348 CURVE SMOOTH",
"748 544 OFFCURVE",
"609 705 OFFCURVE",
"399 705 CURVE SMOOTH",
"189 705 OFFCURVE",
"50 544 OFFCURVE",
"50 348 CURVE SMOOTH",
"50 154 OFFCURVE",
"190 -5 OFFCURVE",
"399 -5 CURVE SMOOTH"
);
},
{
closed = 1;
nodes = (
"253 93 OFFCURVE",
"158 200 OFFCURVE",
"158 348 CURVE SMOOTH",
"158 498 OFFCURVE",
"254 607 OFFCURVE",
"399 607 CURVE SMOOTH",
"545 607 OFFCURVE",
"640 498 OFFCURVE",
"640 348 CURVE SMOOTH",
"640 200 OFFCURVE",
"545 93 OFFCURVE",
"399 93 CURVE SMOOTH"
);
}
);
width = 798;
}
);
leftKerningGroup = C;
note = O;
rightKerningGroup = O;
unicode = 004F;
},
{
glyphname = Oacute;
layers = (
{
hints = (
{
horizontal = 1;
place = "{-5, 98}";
type = Stem;
},
{
horizontal = 1;
place = "{607, 98}";
type = Stem;
},
{
place = "{50, 108}";
type = Stem;
},
{
place = "{640, 108}";
type = Stem;
}
);
layerId = "6B8C0991-2F12-49E7-9CA3-B7242A37F482";
paths = (
{
closed = 1;
nodes = (
"276 793 LINE",
"364 766 LINE",
"521 864 LINE",
"460 965 LINE"
);
},
{
closed = 1;
nodes = (
"609 -5 OFFCURVE",
"748 154 OFFCURVE",
"748 348 CURVE SMOOTH",
"748 544 OFFCURVE",
"609 705 OFFCURVE",
"399 705 CURVE SMOOTH",
"189 705 OFFCURVE",
"50 544 OFFCURVE",
"50 348 CURVE SMOOTH",
"50 154 OFFCURVE",
"190 -5 OFFCURVE",
"399 -5 CURVE SMOOTH"
);
},
{
closed = 1;
nodes = (
"253 93 OFFCURVE",
"158 200 OFFCURVE",
"158 348 CURVE SMOOTH",
"158 498 OFFCURVE",
"254 607 OFFCURVE",
"399 607 CURVE SMOOTH",
"545 607 OFFCURVE",
"640 498 OFFCURVE",
"640 348 CURVE SMOOTH",
"640 200 OFFCURVE",
"545 93 OFFCURVE",
"399 93 CURVE SMOOTH"
);
}
);
width = 798;
}
);
leftKerningGroup = C;
note = Oacute;
rightKerningGroup = O;
unicode = 00D3;
},
{
glyphname = Ocircumflex;
layers = (
{
hints = (
{
horizontal = 1;
place = "{-5, 98}";
type = Stem;
},
{
horizontal = 1;
place = "{607, 98}";
type = Stem;
},
{
place = "{50, 108}";
type = Stem;
},
{
place = "{640, 108}";
type = Stem;
}
);
layerId = "6B8C0991-2F12-49E7-9CA3-B7242A37F482";
paths = (
{
closed = 1;
nodes = (
"304 779 LINE",
"400 869.12 LINE",
"496 779 LINE",
"584 806 LINE",
"400 968 LINE",
"216 806 LINE"
);
},
{
closed = 1;
nodes = (
"609 -5 OFFCURVE",
"748 154 OFFCURVE",
"748 348 CURVE SMOOTH",
"748 544 OFFCURVE",
"609 705 OFFCURVE",
"399 705 CURVE SMOOTH",
"189 705 OFFCURVE",
"50 544 OFFCURVE",
"50 348 CURVE SMOOTH",
"50 154 OFFCURVE",
"190 -5 OFFCURVE",
"399 -5 CURVE SMOOTH"
);
},
{
closed = 1;
nodes = (
"253 93 OFFCURVE",
"158 200 OFFCURVE",
"158 348 CURVE SMOOTH",
"158 498 OFFCURVE",
"254 607 OFFCURVE",
"399 607 CURVE SMOOTH",
"545 607 OFFCURVE",
"640 498 OFFCURVE",
"640 348 CURVE SMOOTH",
"640 200 OFFCURVE",
"545 93 OFFCURVE",
"399 93 CURVE SMOOTH"
);
}
);
width = 798;
}
);
leftKerningGroup = C;
note = Ocircumflex;
rightKerningGroup = O;
unicode = 00D4;
},
{
glyphname = Odieresis;
layers = (
{
hints = (
{
horizontal = 1;
place = "{-5, 98}";
type = Stem;
},
{
horizontal = 1;
place = "{607, 98}";
type = Stem;
},
{
horizontal = 1;
place = "{783, 108}";
type = Stem;
},
{
place = "{50, 108}";
type = Stem;
},
{
place = "{221, 108}";
type = Stem;
},
{
place = "{469, 108}";
type = Stem;
},
{
place = "{640, 108}";
type = Stem;
}
);
layerId = "6B8C0991-2F12-49E7-9CA3-B7242A37F482";
paths = (
{
closed = 1;
nodes = (
"329 891 LINE",
"221 891 LINE",
"221 783 LINE",
"329 783 LINE"
);
},
{
closed = 1;
nodes = (
"577 891 LINE",
"469 891 LINE",
"469 783 LINE",
"577 783 LINE"
);
},
{
closed = 1;
nodes = (
"609 -5 OFFCURVE",
"748 154 OFFCURVE",
"748 348 CURVE SMOOTH",
"748 544 OFFCURVE",
"609 705 OFFCURVE",
"399 705 CURVE SMOOTH",
"189 705 OFFCURVE",
"50 544 OFFCURVE",
"50 348 CURVE SMOOTH",
"50 154 OFFCURVE",
"190 -5 OFFCURVE",
"399 -5 CURVE SMOOTH"
);
},
{
closed = 1;
nodes = (
"253 93 OFFCURVE",
"158 200 OFFCURVE",
"158 348 CURVE SMOOTH",
"158 498 OFFCURVE",
"254 607 OFFCURVE",
"399 607 CURVE SMOOTH",
"545 607 OFFCURVE",
"640 498 OFFCURVE",
"640 348 CURVE SMOOTH",
"640 200 OFFCURVE",
"545 93 OFFCURVE",
"399 93 CURVE SMOOTH"
);
}
);
width = 798;
}
);
leftKerningGroup = C;
note = Odieresis;
rightKerningGroup = O;
unicode = 00D6;
},
{
glyphname = Ograve;
layers = (
{
hints = (
{
horizontal = 1;
place = "{-5, 98}";
type = Stem;
},
{
horizontal = 1;
place = "{607, 98}";
type = Stem;
},
{
place = "{50, 108}";
type = Stem;
},
{
place = "{640, 108}";
type = Stem;
}
);
layerId = "6B8C0991-2F12-49E7-9CA3-B7242A37F482";
paths = (
{
closed = 1;
nodes = (
"518 793 LINE",
"334 965 LINE",
"273 864 LINE",
"430 766 LINE"
);
},
{
closed = 1;
nodes = (
"609 -5 OFFCURVE",
"748 154 OFFCURVE",
"748 348 CURVE SMOOTH",
"748 544 OFFCURVE",
"609 705 OFFCURVE",
"399 705 CURVE SMOOTH",
"189 705 OFFCURVE",
"50 544 OFFCURVE",
"50 348 CURVE SMOOTH",
"50 154 OFFCURVE",
"190 -5 OFFCURVE",
"399 -5 CURVE SMOOTH"
);
},
{
closed = 1;
nodes = (
"253 93 OFFCURVE",
"158 200 OFFCURVE",
"158 348 CURVE SMOOTH",
"158 498 OFFCURVE",
"254 607 OFFCURVE",
"399 607 CURVE SMOOTH",
"545 607 OFFCURVE",
"640 498 OFFCURVE",
"640 348 CURVE SMOOTH",
"640 200 OFFCURVE",
"545 93 OFFCURVE",
"399 93 CURVE SMOOTH"
);
}
);
width = 798;
}
);
leftKerningGroup = C;
note = Ograve;
rightKerningGroup = O;
unicode = 00D2;
},
{
glyphname = Oslash;
layers = (
{
hints = (
{
horizontal = 1;
place = "{-5.01, 98}";
type = Stem;
},
{
horizontal = 1;
place = "{606.99, 98.01}";
type = Stem;
},
{
place = "{49.99, 108}";
type = Stem;
},
{
place = "{639.99, 108}";
type = Stem;
}
);
layerId = "6B8C0991-2F12-49E7-9CA3-B7242A37F482";
paths = (
{
closed = 1;
nodes = (
"569 777 LINE",
"464 777 LINE",
"441.96 702.68 LINE",
"428 704.21 OFFCURVE",
"413.67 705 OFFCURVE",
"398.99 705 CURVE SMOOTH",
"188.99 705 OFFCURVE",
"49.99 544 OFFCURVE",
"49.99 348 CURVE SMOOTH",
"49.99 207.92 OFFCURVE",
"122.98 86.1 OFFCURVE",
"242.22 29.19 CURVE",
"213.99 -66 LINE",
"318.99 -66 LINE",
"338.46 -0.36 LINE",
"357.9 -3.42 OFFCURVE",
"378.1 -5.01 OFFCURVE",
"398.99 -5.01 CURVE SMOOTH",
"608.99 -5.01 OFFCURVE",
"747.99 153.99 OFFCURVE",
"747.99 347.99 CURVE SMOOTH",
"747.99 495.96 OFFCURVE",
"668.77 623.98 OFFCURVE",
"539.59 677.84 CURVE"
);
},
{
closed = 1;
nodes = (
"157.99 497.99 OFFCURVE",
"253.99 606.99 OFFCURVE",
"398.99 606.99 CURVE SMOOTH",
"403.88 606.99 OFFCURVE",
"408.7 606.87 OFFCURVE",
"413.47 606.63 CURVE",
"271.1 126.54 LINE",
"200.01 169.29 OFFCURVE",
"158 249.58 OFFCURVE",
"158 348 CURVE"
);
},
{
closed = 1;
nodes = (
"387.93 93 OFFCURVE",
"377.15 93.61 OFFCURVE",
"366.69 94.81 CURVE",
"511.07 581.66 LINE",
"591.7 541.04 OFFCURVE",
"639.99 454.94 OFFCURVE",
"639.99 347.99 CURVE SMOOTH",
"639.99 199.99 OFFCURVE",
"544.99 92.99 OFFCURVE",
"398.99 92.99 CURVE SMOOTH"
);
}
);
width = 798;
}
);
leftKerningGroup = C;
note = Oslash;
rightKerningGroup = O;
unicode = 00D8;
},
{
glyphname = Otilde;
layers = (
{
hints = (
{
horizontal = 1;
place = "{-5.01, 98}";
type = Stem;
},
{
horizontal = 1;
place = "{606.99, 98}";
type = Stem;
},
{
horizontal = 1;
place = "{787.99, 160}";
type = Stem;
},
{
place = "{50, 108}";
type = Stem;
},
{
place = "{507.06, 75.06}";
type = Stem;
},
{
place = "{640, 108}";
type = Stem;
},
{
horizontal = 1;
place = "{788, 61}";
type = Stem;
},
{
place = "{210, 72.93}";
type = Stem;
}
);
layerId = "6B8C0991-2F12-49E7-9CA3-B7242A37F482";
paths = (
{
closed = 1;
nodes = (
"446 948 LINE",
"484.87 920.13 OFFCURVE",
"507.06 879.89 OFFCURVE",
"507.06 860.41 CURVE SMOOTH",
"507.06 853.33 OFFCURVE",
"504.13 849 OFFCURVE",
"498 849 CURVE SMOOTH",
"473 849 OFFCURVE",
"430 889 OFFCURVE",
"407 906 CURVE SMOOTH",
"363 937 OFFCURVE",
"342 948 OFFCURVE",
"301 948 CURVE SMOOTH",
"241.83 948 OFFCURVE",
"210 906.39 OFFCURVE",
"210 861.84 CURVE SMOOTH",
"210 835.62 OFFCURVE",
"221.03 808.37 OFFCURVE",
"244 787.99 CURVE",
"344 787.99 LINE",
"305.13 815.86 OFFCURVE",
"282.93 861.48 OFFCURVE",
"282.93 883.83 CURVE SMOOTH",
"282.93 891.95 OFFCURVE",
"285.87 897 OFFCURVE",
"292 897 CURVE SMOOTH",
"318 897 OFFCURVE",
"361 847 OFFCURVE",
"400 819 CURVE SMOOTH",
"424 801 OFFCURVE",
"453 788 OFFCURVE",
"489 788 CURVE SMOOTH",
"547.83 788 OFFCURVE",
"582.12 833.26 OFFCURVE",
"582.12 877.69 CURVE SMOOTH",
"582.12 905.01 OFFCURVE",
"569.17 932.01 OFFCURVE",
"541 947.99 CURVE"
);
},
{
closed = 1;
nodes = (
"609 -5.01 OFFCURVE",
"748 153.99 OFFCURVE",
"748 347.99 CURVE SMOOTH",
"748 543.99 OFFCURVE",
"609 704.99 OFFCURVE",
"399 704.99 CURVE SMOOTH",
"189 704.99 OFFCURVE",
"50 543.99 OFFCURVE",
"50 347.99 CURVE SMOOTH",
"50 153.99 OFFCURVE",
"190 -5.01 OFFCURVE",
"399 -5.01 CURVE SMOOTH"
);
},
{
closed = 1;
nodes = (
"253 92.99 OFFCURVE",
"158 199.99 OFFCURVE",
"158 347.99 CURVE SMOOTH",
"158 497.99 OFFCURVE",
"254 606.99 OFFCURVE",
"399 606.99 CURVE SMOOTH",
"545 606.99 OFFCURVE",
"640 497.99 OFFCURVE",
"640 347.99 CURVE SMOOTH",
"640 199.99 OFFCURVE",
"545 92.99 OFFCURVE",
"399 92.99 CURVE SMOOTH"
);
}
);
width = 798;
}
);
leftKerningGroup = C;
note = Otilde;
rightKerningGroup = O;
unicode = 00D5;
},
{
glyphname = OE;
layers = (
{
hints = (
{
horizontal = 1;
place = "{0, 108}";
type = Stem;
},
{
horizontal = 1;
place = "{304, 108}";
type = Stem;
},
{
horizontal = 1;
place = "{592, 108}";
type = Stem;
},
{
place = "{30, 108}";
type = Stem;
},
{
place = "{571, 27.46}";
type = Stem;
},
{
horizontal = 1;
place = "{-5, 98}";
type = Stem;
},
{
horizontal = 1;
place = "{607, 98}";
type = Stem;
},
{
place = "{620, 59}";
type = Stem;
}
);
layerId = "6B8C0991-2F12-49E7-9CA3-B7242A37F482";
paths = (
{
closed = 1;
nodes = (
"1116 0 LINE",
"1116 108 LINE",
"679 108 LINE",
"679 304 LINE",
"1096 304 LINE",
"1096 412 LINE",
"679 412 LINE",
"679 592 LINE",
"1106 592 LINE",
"1106 700 LINE",
"571 700 LINE",
"571 650.51 LINE",
"517.89 685.02 OFFCURVE",
"452.44 705 OFFCURVE",
"379 705 CURVE SMOOTH",
"169 705 OFFCURVE",
"30 544 OFFCURVE",
"30 348 CURVE SMOOTH",
"30 154 OFFCURVE",
"170 -5 OFFCURVE",
"379 -5 CURVE SMOOTH",
"452.99 -5 OFFCURVE",
"517.68 14.4 OFFCURVE",
"571 48.41 CURVE",
"571 0 LINE"
);
},
{
closed = 1;
nodes = (
"233 93 OFFCURVE",
"138 200 OFFCURVE",
"138 348 CURVE SMOOTH",
"138 498 OFFCURVE",
"234 607 OFFCURVE",
"379 607 CURVE SMOOTH",
"462.35 607 OFFCURVE",
"529.08 571.47 OFFCURVE",
"571 513.07 CURVE",
"571 185.34 LINE",
"529.08 127.87 OFFCURVE",
"462.35 92.99 OFFCURVE",
"379 92.99 CURVE SMOOTH"
);
},
{
closed = 1;
nodes = (
"601.1 456.55 LINE",
"613.43 424.02 OFFCURVE",
"620 387.42 OFFCURVE",
"620 347.99 CURVE SMOOTH",
"620 303.86 OFFCURVE",
"611.55 263.37 OFFCURVE",
"595.82 228.28 CURVE"
);
}
);
width = 1154;
}
);
leftKerningGroup = C;
note = OE;
rightKerningGroup = AE;
unicode = 0152;
},
{
glyphname = P;
layers = (
{
hints = (
{
horizontal = 1;
place = "{306, 95}";
type = Stem;
},
{
horizontal = 1;
place = "{602, 98}";
type = Stem;
},
{
place = "{40, 108}";
type = Stem;
},
{
place = "{353, 108}";
type = Stem;
}
);
layerId = "6B8C0991-2F12-49E7-9CA3-B7242A37F482";
paths = (
{
closed = 1;
nodes = (
"40 700 LINE",
"40 0 LINE",
"148 0 LINE",
"148 306 LINE",
"238 306 LINE SMOOTH",
"348 306 OFFCURVE",
"461 352 OFFCURVE",
"461 503 CURVE SMOOTH",
"461 652 OFFCURVE",
"343 700 OFFCURVE",
"244 700 CURVE SMOOTH"
);
},
{
closed = 1;
nodes = (
"148 401 LINE",
"148 602 LINE",
"241 602 LINE SMOOTH",
"310 602 OFFCURVE",
"353 572 OFFCURVE",
"353 503 CURVE SMOOTH",
"353 434 OFFCURVE",
"311 401 OFFCURVE",
"238 401 CURVE SMOOTH"
);
}
);
width = 491;
}
);
leftKerningGroup = B;
note = P;
rightKerningGroup = P;
unicode = 0050;
},
{
glyphname = Thorn;
layers = (
{
hints = (
{
horizontal = 1;
place = "{199, 99}";
type = Stem;
},
{
horizontal = 1;
place = "{499, 98}";
type = Stem;
},
{
place = "{50, 108}";
type = Stem;
},
{
place = "{403, 108}";
type = Stem;
}
);
layerId = "6B8C0991-2F12-49E7-9CA3-B7242A37F482";
paths = (
{
closed = 1;
nodes = (
"158 597 LINE",
"158 700 LINE",
"50 700 LINE",
"50 0 LINE",
"158 0 LINE",
"158 199 LINE",
"288 199 LINE SMOOTH",
"398 199 OFFCURVE",
"511 249 OFFCURVE",
"511 400 CURVE SMOOTH",
"511 549 OFFCURVE",
"393 597 OFFCURVE",
"294 597 CURVE SMOOTH"
);
},
{
closed = 1;
nodes = (
"158 298 LINE",
"158 499 LINE",
"291 499 LINE SMOOTH",
"360 499 OFFCURVE",
"403 469 OFFCURVE",
"403 400 CURVE SMOOTH",
"403 331 OFFCURVE",
"361 298 OFFCURVE",
"288 298 CURVE SMOOTH"
);
}
);
width = 531;
}
);
note = Thorn;
unicode = 00DE;
},
{
glyphname = Q;
layers = (
{
hints = (
{
horizontal = 1;
place = "{-5, 98}";
type = Stem;
},
{
horizontal = 1;
place = "{607, 98}";
type = Stem;
},
{
place = "{50, 108}";
type = Stem;
},
{
place = "{620, 108}";
type = Stem;
}
);
layerId = "6B8C0991-2F12-49E7-9CA3-B7242A37F482";
paths = (
{
closed = 1;
nodes = (
"642 0 LINE",
"790 0 LINE",
"654.92 124.12 LINE",
"701.47 185.18 OFFCURVE",
"728 263.25 OFFCURVE",
"728 348 CURVE SMOOTH",
"728 544 OFFCURVE",
"589 705 OFFCURVE",
"389 705 CURVE SMOOTH",
"189 705 OFFCURVE",
"50 544 OFFCURVE",
"50 348 CURVE SMOOTH",
"50 154 OFFCURVE",
"190 -5 OFFCURVE",
"389 -5 CURVE SMOOTH",
"463.55 -5 OFFCURVE",
"529.63 17.09 OFFCURVE",
"583.19 54.86 CURVE"
);
},
{
closed = 1;
nodes = (
"253 93 OFFCURVE",
"158 200 OFFCURVE",
"158 348 CURVE SMOOTH",
"158 498 OFFCURVE",
"254 607 OFFCURVE",
"389 607 CURVE SMOOTH",
"525 607 OFFCURVE",
"620 498 OFFCURVE",
"620 348 CURVE SMOOTH",
"620 288.99 OFFCURVE",
"604.89 236.49 OFFCURVE",
"578.11 194.7 CURVE",
"456.99 306 LINE",
"313.99 306 LINE",
"507.74 125.24 LINE",
"473.85 104.52 OFFCURVE",
"433.63 93 OFFCURVE",
"388.99 93 CURVE SMOOTH"
);
}
);
width = 802;
}
);
leftKerningGroup = C;
note = Q;
rightKerningGroup = Q;
unicode = 0051;
},
{
glyphname = R;
layers = (
{
hints = (
{
horizontal = 1;
place = "{330.99, 90}";
type = Stem;
},
{
horizontal = 1;
place = "{601.99, 98}";
type = Stem;
},
{
place = "{40, 108}";
type = Stem;
},
{
place = "{363, 108}";
type = Stem;
}
);
layerId = "6B8C0991-2F12-49E7-9CA3-B7242A37F482";
paths = (
{
closed = 1;
nodes = (
"476 0 LINE",
"604 0 LINE",
"371.97 353.49 LINE",
"428.06 378.98 OFFCURVE",
"471 429.7 OFFCURVE",
"471 522.99 CURVE SMOOTH",
"471 661.99 OFFCURVE",
"360 699.99 OFFCURVE",
"261 699.99 CURVE SMOOTH",
"40 699.99 LINE",
"40 -0.01 LINE",
"148 -0.01 LINE",
"148 330.23 LINE",
"254 330.99 LINE SMOOTH",
"254.98 330.99 OFFCURVE",
"255.97 331 OFFCURVE",
"256.96 331 CURVE"
);
},
{
closed = 1;
nodes = (
"148 420.99 LINE",
"148 601.99 LINE",
"187.28 601.99 OFFCURVE",
"234.47 601.99 OFFCURVE",
"261 601.99 CURVE SMOOTH",
"320 601.99 OFFCURVE",
"363 571.99 OFFCURVE",
"363 512.99 CURVE SMOOTH",
"363 453.99 OFFCURVE",
"321 420.99 OFFCURVE",
"258 420.99 CURVE SMOOTH"
);
}
);
width = 614;
}
);
leftKerningGroup = B;
note = R;
rightKerningGroup = R;
unicode = 0052;
},
{
glyphname = S;
layers = (
{
hints = (
{
horizontal = 1;
place = "{-7, 95}";
type = Stem;
},
{
horizontal = 1;
place = "{615, 93}";
type = Stem;
},
{
place = "{110, 110}";
type = Stem;
},
{
place = "{485, 111}";
type = Stem;
}
);
layerId = "6B8C0991-2F12-49E7-9CA3-B7242A37F482";
paths = (
{
closed = 1;
nodes = (
"208 708 OFFCURVE",
"110 628 OFFCURVE",
"110 525 CURVE SMOOTH",
"110 432 OFFCURVE",
"185 364 OFFCURVE",
"320 324 CURVE SMOOTH",
"403 298 OFFCURVE",
"485 277 OFFCURVE",
"485 206 CURVE SMOOTH",
"485 137 OFFCURVE",
"444 88 OFFCURVE",
"341 88 CURVE SMOOTH",
"219 88 OFFCURVE",
"169 150 OFFCURVE",
"151 240 CURVE",
"50 189 LINE",
"88 76 OFFCURVE",
"174 -7 OFFCURVE",
"341 -7 CURVE SMOOTH",
"516 -7 OFFCURVE",
"596 93 OFFCURVE",
"596 206 CURVE SMOOTH",
"596 347 OFFCURVE",
"437 389 OFFCURVE",
"352 415 CURVE SMOOTH",
"258 443 OFFCURVE",
"220 479 OFFCURVE",
"220 525 CURVE SMOOTH",
"220 576 OFFCURVE",
"266 615 OFFCURVE",
"336 615 CURVE SMOOTH",
"409 615 OFFCURVE",
"451 583 OFFCURVE",
"451 526 CURVE",
"559 554 LINE",
"544 657 OFFCURVE",
"446 708 OFFCURVE",
"336 708 CURVE SMOOTH"
);
}
);
width = 646;
}
);
leftKerningGroup = S;
note = S;
rightKerningGroup = S;
unicode = 0053;
},
{
glyphname = Scaron;
layers = (
{
hints = (
{
horizontal = 1;
place = "{-7, 95}";
type = Stem;
},
{
horizontal = 1;
place = "{615, 93}";
type = Stem;
},
{
place = "{110, 110}";
type = Stem;
},
{
place = "{485, 111}";
type = Stem;
}
);
layerId = "6B8C0991-2F12-49E7-9CA3-B7242A37F482";
paths = (
{
closed = 1;
nodes = (
"143 921 LINE",
"327 759 LINE",
"511 921 LINE",
"423 948 LINE",
"327 857.88 LINE",
"231 948 LINE"
);
},
{
closed = 1;
nodes = (
"208 708 OFFCURVE",
"110 628 OFFCURVE",
"110 525 CURVE SMOOTH",
"110 432 OFFCURVE",
"185 364 OFFCURVE",
"320 324 CURVE SMOOTH",
"403 298 OFFCURVE",
"485 277 OFFCURVE",
"485 206 CURVE SMOOTH",
"485 137 OFFCURVE",
"444 88 OFFCURVE",
"341 88 CURVE SMOOTH",
"219 88 OFFCURVE",
"169 150 OFFCURVE",
"151 240 CURVE",
"50 189 LINE",
"88 76 OFFCURVE",
"174 -7 OFFCURVE",
"341 -7 CURVE SMOOTH",
"516 -7 OFFCURVE",
"596 93 OFFCURVE",
"596 206 CURVE SMOOTH",
"596 347 OFFCURVE",
"437 389 OFFCURVE",
"352 415 CURVE SMOOTH",
"258 443 OFFCURVE",
"220 479 OFFCURVE",
"220 525 CURVE SMOOTH",
"220 576 OFFCURVE",
"266 615 OFFCURVE",
"336 615 CURVE SMOOTH",
"409 615 OFFCURVE",
"451 583 OFFCURVE",
"451 526 CURVE",
"559 554 LINE",
"544 657 OFFCURVE",
"446 708 OFFCURVE",
"336 708 CURVE SMOOTH"
);
}
);
width = 646;
}
);
leftKerningGroup = S;
note = Scaron;
rightKerningGroup = S;
unicode = 0160;
},
{
glyphname = T;
layers = (
{
hints = (
{
horizontal = 1;
place = "{592, 108}";
type = Stem;
},
{
place = "{284, 108}";
type = Stem;
}
);
layerId = "6B8C0991-2F12-49E7-9CA3-B7242A37F482";
paths = (
{
closed = 1;
nodes = (
"392 0 LINE",
"392 592 LINE",
"655 592 LINE",
"655 700 LINE",
"20 700 LINE",
"20 592 LINE",
"284 592 LINE",
"284 0 LINE"
);
}
);
width = 675;
}
);
leftKerningGroup = T;
note = T;
rightKerningGroup = T;
unicode = 0054;
},
{
glyphname = U;
layers = (
{
hints = (
{
horizontal = 1;
place = "{-12, 95}";
type = Stem;
},
{
place = "{50, 109}";
type = Stem;
},
{
place = "{463, 109}";
type = Stem;
}
);
layerId = "6B8C0991-2F12-49E7-9CA3-B7242A37F482";
paths = (
{
closed = 1;
nodes = (
"571 700 LINE",
"463 700 LINE",
"463 225 LINE SMOOTH",
"463 124 OFFCURVE",
"402 83 OFFCURVE",
"311 83 CURVE SMOOTH",
"220 83 OFFCURVE",
"159 124 OFFCURVE",
"159 225 CURVE SMOOTH",
"159 700 LINE",
"51 700 LINE",
"50 225 LINE SMOOTH",
"50 64 OFFCURVE",
"162 -12 OFFCURVE",
"311 -12 CURVE SMOOTH",
"460 -12 OFFCURVE",
"572 64 OFFCURVE",
"572 225 CURVE"
);
}
);
width = 652;
}
);
leftKerningGroup = U;
note = U;
rightKerningGroup = U;
unicode = 0055;
},
{
glyphname = Uacute;
layers = (
{
hints = (
{
horizontal = 1;
place = "{-12, 95}";
type = Stem;
},
{
place = "{50, 109}";
type = Stem;
},
{
place = "{463, 109}";
type = Stem;
}
);
layerId = "6B8C0991-2F12-49E7-9CA3-B7242A37F482";
paths = (
{
closed = 1;
nodes = (
"188 793 LINE",
"276 766 LINE",
"433 864 LINE",
"372 965 LINE"
);
},
{
closed = 1;
nodes = (
"571 700 LINE",
"463 700 LINE",
"463 225 LINE SMOOTH",
"463 124 OFFCURVE",
"402 83 OFFCURVE",
"311 83 CURVE SMOOTH",
"220 83 OFFCURVE",
"159 124 OFFCURVE",
"159 225 CURVE SMOOTH",
"159 700 LINE",
"51 700 LINE",
"50 225 LINE SMOOTH",
"50 64 OFFCURVE",
"162 -12 OFFCURVE",
"311 -12 CURVE SMOOTH",
"460 -12 OFFCURVE",
"572 64 OFFCURVE",
"572 225 CURVE"
);
}
);
width = 652;
}
);
leftKerningGroup = U;
note = Uacute;
rightKerningGroup = U;
unicode = 00DA;
},
{
glyphname = Ucircumflex;
layers = (
{
hints = (
{
horizontal = 1;
place = "{-12, 95}";
type = Stem;
},
{
place = "{50, 109}";
type = Stem;
},
{
place = "{463, 109}";
type = Stem;
}
);
layerId = "6B8C0991-2F12-49E7-9CA3-B7242A37F482";
paths = (
{
closed = 1;
nodes = (
"216 779 LINE",
"312 869.12 LINE",
"408 779 LINE",
"496 806 LINE",
"312 968 LINE",
"128 806 LINE"
);
},
{
closed = 1;
nodes = (
"571 700 LINE",
"463 700 LINE",
"463 225 LINE SMOOTH",
"463 124 OFFCURVE",
"402 83 OFFCURVE",
"311 83 CURVE SMOOTH",
"220 83 OFFCURVE",
"159 124 OFFCURVE",
"159 225 CURVE SMOOTH",
"159 700 LINE",
"51 700 LINE",
"50 225 LINE SMOOTH",
"50 64 OFFCURVE",
"162 -12 OFFCURVE",
"311 -12 CURVE SMOOTH",
"460 -12 OFFCURVE",
"572 64 OFFCURVE",
"572 225 CURVE"
);
}
);
width = 652;
}
);
leftKerningGroup = U;
note = Ucircumflex;
rightKerningGroup = U;
unicode = 00DB;
},
{
glyphname = Udieresis;
layers = (
{
hints = (
{
horizontal = 1;
place = "{-12, 95}";
type = Stem;
},
{
horizontal = 1;
place = "{783, 108}";
type = Stem;
},
{
place = "{133, 108}";
type = Stem;
},
{
place = "{381, 108}";
type = Stem;
},
{
place = "{50, 109}";
type = Stem;
},
{
place = "{463, 109}";
type = Stem;
}
);
layerId = "6B8C0991-2F12-49E7-9CA3-B7242A37F482";
paths = (
{
closed = 1;
nodes = (
"241 891 LINE",
"133 891 LINE",
"133 783 LINE",
"241 783 LINE"
);
},
{
closed = 1;
nodes = (
"489 891 LINE",
"381 891 LINE",
"381 783 LINE",
"489 783 LINE"
);
},
{
closed = 1;
nodes = (
"571 700 LINE",
"463 700 LINE",
"463 225 LINE SMOOTH",
"463 124 OFFCURVE",
"402 83 OFFCURVE",
"311 83 CURVE SMOOTH",
"220 83 OFFCURVE",
"159 124 OFFCURVE",
"159 225 CURVE SMOOTH",
"159 700 LINE",
"51 700 LINE",
"50 225 LINE SMOOTH",
"50 64 OFFCURVE",
"162 -12 OFFCURVE",
"311 -12 CURVE SMOOTH",
"460 -12 OFFCURVE",
"572 64 OFFCURVE",
"572 225 CURVE"
);
}
);
width = 652;
}
);
leftKerningGroup = U;
note = Udieresis;
rightKerningGroup = U;
unicode = 00DC;
},
{
glyphname = Ugrave;
layers = (
{
hints = (
{
horizontal = 1;
place = "{-12, 95}";
type = Stem;
},
{
place = "{50, 109}";
type = Stem;
},
{
place = "{463, 109}";
type = Stem;
}
);
layerId = "6B8C0991-2F12-49E7-9CA3-B7242A37F482";
paths = (
{
closed = 1;
nodes = (
"430 793 LINE",
"246 965 LINE",
"185 864 LINE",
"342 766 LINE"
);
},
{
closed = 1;
nodes = (
"571 700 LINE",
"463 700 LINE",
"463 225 LINE SMOOTH",
"463 124 OFFCURVE",
"402 83 OFFCURVE",
"311 83 CURVE SMOOTH",
"220 83 OFFCURVE",
"159 124 OFFCURVE",
"159 225 CURVE SMOOTH",
"159 700 LINE",
"51 700 LINE",
"50 225 LINE SMOOTH",
"50 64 OFFCURVE",
"162 -12 OFFCURVE",
"311 -12 CURVE SMOOTH",
"460 -12 OFFCURVE",
"572 64 OFFCURVE",
"572 225 CURVE"
);
}
);
width = 652;
}
);
leftKerningGroup = U;
note = Ugrave;
rightKerningGroup = U;
unicode = 00D9;
},
{
glyphname = V;
layers = (
{
hints = (
{
horizontal = 1;
place = "{0, 700}";
type = Stem;
},
{
place = "{13, 603}";
type = Stem;
}
);
layerId = "6B8C0991-2F12-49E7-9CA3-B7242A37F482";
paths = (
{
closed = 1;
nodes = (
"252 0 LINE",
"376 0 LINE",
"616 700 LINE",
"508 700 LINE",
"314.09 134.44 LINE",
"121 700 LINE",
"13 700 LINE"
);
}
);
width = 629;
}
);
leftKerningGroup = V;
note = V;
rightKerningGroup = V;
unicode = 0056;
},
{
glyphname = W;
layers = (
{
hints = (
{
horizontal = 1;
place = "{0, 700}";
type = Stem;
},
{
place = "{23, 776}";
type = Stem;
}
);
layerId = "6B8C0991-2F12-49E7-9CA3-B7242A37F482";
paths = (
{
closed = 1;
nodes = (
"531 0 LINE",
"639 0 LINE",
"799 700 LINE",
"691 700 LINE",
"581.55 189.24 LINE",
"456 690 LINE",
"362 690 LINE",
"237.04 191.6 LINE",
"131 700 LINE",
"23 700 LINE",
"179 0 LINE",
"287 0 LINE",
"409 507.11 LINE"
);
}
);
width = 822;
}
);
leftKerningGroup = W;
note = W;
rightKerningGroup = W;
unicode = 0057;
},
{
glyphname = X;
layers = (
{
hints = (
{
horizontal = 1;
place = "{0, 700}";
type = Stem;
},
{
place = "{17, 719}";
type = Stem;
}
);
layerId = "6B8C0991-2F12-49E7-9CA3-B7242A37F482";
paths = (
{
closed = 1;
nodes = (
"154 0 LINE",
"379.52 286.09 LINE",
"599 0 LINE",
"736 0 LINE",
"451.68 368.56 LINE",
"714 700 LINE",
"576 700 LINE",
"383.44 457.02 LINE",
"196 700 LINE",
"62 700 LINE",
"311.27 375.06 LINE",
"17 0 LINE"
);
}
);
width = 743;
}
);
leftKerningGroup = X;
note = X;
rightKerningGroup = X;
unicode = 0058;
},
{
glyphname = Y;
layers = (
{
hints = (
{
horizontal = 1;
place = "{0, 700}";
type = Stem;
},
{
place = "{270, 108}";
type = Stem;
}
);
layerId = "6B8C0991-2F12-49E7-9CA3-B7242A37F482";
paths = (
{
closed = 1;
nodes = (
"378 0 LINE",
"378 307 LINE",
"634 700 LINE",
"521 700 LINE",
"324.09 400.18 LINE",
"128 700 LINE",
"15 700 LINE",
"270 307 LINE",
"270 0 LINE"
);
}
);
width = 649;
}
);
leftKerningGroup = Y;
note = Y;
rightKerningGroup = Y;
unicode = 0059;
},
{
glyphname = Yacute;
layers = (
{
hints = (
{
horizontal = 1;
place = "{0, 965}";
type = Stem;
},
{
place = "{270, 108}";
type = Stem;
}
);
layerId = "6B8C0991-2F12-49E7-9CA3-B7242A37F482";
paths = (
{
closed = 1;
nodes = (
"202 793 LINE",
"290 766 LINE",
"447 864 LINE",
"386 965 LINE"
);
},
{
closed = 1;
nodes = (
"378 0 LINE",
"378 307 LINE",
"634 700 LINE",
"521 700 LINE",
"324.09 400.18 LINE",
"128 700 LINE",
"15 700 LINE",
"270 307 LINE",
"270 0 LINE"
);
}
);
width = 649;
}
);
leftKerningGroup = Y;
note = Yacute;
rightKerningGroup = Y;
unicode = 00DD;
},
{
glyphname = Ydieresis;
layers = (
{
hints = (
{
horizontal = 1;
place = "{783, 108}";
type = Stem;
},
{
place = "{147, 108}";
type = Stem;
},
{
place = "{270, 108}";
type = Stem;
},
{
place = "{395, 108}";
type = Stem;
}
);
layerId = "6B8C0991-2F12-49E7-9CA3-B7242A37F482";
paths = (
{
closed = 1;
nodes = (
"255 891 LINE",
"147 891 LINE",
"147 783 LINE",
"255 783 LINE"
);
},
{
closed = 1;
nodes = (
"503 891 LINE",
"395 891 LINE",
"395 783 LINE",
"503 783 LINE"
);
},
{
closed = 1;
nodes = (
"378 0 LINE",
"378 307 LINE",
"634 700 LINE",
"521 700 LINE",
"324.09 400.18 LINE",
"128 700 LINE",
"15 700 LINE",
"270 307 LINE",
"270 0 LINE"
);
}
);
width = 649;
}
);
leftKerningGroup = Y;
note = Ydieresis;
rightKerningGroup = Y;
unicode = 0178;
},
{
glyphname = Z;
layers = (
{
hints = (
{
horizontal = 1;
place = "{0, 108}";
type = Stem;
},
{
horizontal = 1;
place = "{592, 108}";
type = Stem;
},
{
place = "{10, 535}";
type = Stem;
}
);
layerId = "6B8C0991-2F12-49E7-9CA3-B7242A37F482";
paths = (
{
closed = 1;
nodes = (
"541 108 LINE",
"150 108 LINE",
"545 592 LINE",
"545 700 LINE",
"33 700 LINE",
"33 592 LINE",
"404.28 592 LINE",
"10 108 LINE",
"10 0 LINE",
"541 0 LINE"
);
}
);
width = 555;
}
);
leftKerningGroup = Z;
note = Z;
rightKerningGroup = Z;
unicode = 005A;
},
{
glyphname = Zcaron;
layers = (
{
hints = (
{
horizontal = 1;
place = "{0, 108}";
type = Stem;
},
{
horizontal = 1;
place = "{592, 108}";
type = Stem;
},
{
place = "{10, 535}";
type = Stem;
}
);
layerId = "6B8C0991-2F12-49E7-9CA3-B7242A37F482";
paths = (
{
closed = 1;
nodes = (
"95 921 LINE",
"279 759 LINE",
"463 921 LINE",
"375 948 LINE",
"279 857.88 LINE",
"183 948 LINE"
);
},
{
closed = 1;
nodes = (
"541 108 LINE",
"150 108 LINE",
"545 592 LINE",
"545 700 LINE",
"33 700 LINE",
"33 592 LINE",
"404.28 592 LINE",
"10 108 LINE",
"10 0 LINE",
"541 0 LINE"
);
}
);
width = 555;
}
);
leftKerningGroup = Z;
note = Zcaron;
rightKerningGroup = Z;
unicode = 017D;
},
{
glyphname = a;
layers = (
{
hints = (
{
horizontal = 1;
place = "{-12.01, 77}";
type = Stem;
},
{
horizontal = 1;
place = "{427, 82.99}";
type = Stem;
},
{
place = "{30.01, 112.99}";
type = Stem;
},
{
place = "{378, 108}";
type = Stem;
}
);
layerId = "6B8C0991-2F12-49E7-9CA3-B7242A37F482";
paths = (
{
closed = 1;
nodes = (
"165.37 510 OFFCURVE",
"70.48 442.18 OFFCURVE",
"70.48 360.94 CURVE SMOOTH",
"70.48 353.4 OFFCURVE",
"71.3 345.74 OFFCURVE",
"73 338 CURVE",
"192 337 LINE",
"187 349 OFFCURVE",
"199.88 427 OFFCURVE",
"288.88 427 CURVE SMOOTH",
"339.54 427 OFFCURVE",
"365.27 408.15 OFFCURVE",
"372.81 376.41 CURVE SMOOTH",
"373.96 371.55 OFFCURVE",
"374.55 366.84 OFFCURVE",
"374.55 362.31 CURVE SMOOTH",
"374.55 324.65 OFFCURVE",
"333.87 298.69 OFFCURVE",
"239.01 289.99 CURVE SMOOTH",
"82.84 275.67 OFFCURVE",
"30.01 215.99 OFFCURVE",
"30.01 139.99 CURVE SMOOTH",
"30.01 48.99 OFFCURVE",
"97.01 -12.01 OFFCURVE",
"219.01 -12.01 CURVE SMOOTH",
"295.25 -12.01 OFFCURVE",
"346.7 21.15 OFFCURVE",
"378 66.56 CURVE",
"378 -0.01 LINE",
"486 -0.01 LINE",
"486 312.99 LINE SMOOTH",
"486 393.99 OFFCURVE",
"468 509.99 OFFCURVE",
"277 509.99 CURVE SMOOTH"
);
},
{
closed = 1;
nodes = (
"162 64.99 OFFCURVE",
"143 111.99 OFFCURVE",
"143 144.99 CURVE SMOOTH",
"143 187.99 OFFCURVE",
"185 214.99 OFFCURVE",
"244 221.99 CURVE SMOOTH",
"295.74 228.2 OFFCURVE",
"343.73 242.44 OFFCURVE",
"378 267.34 CURVE",
"378 227.99 LINE SMOOTH",
"378 111.99 OFFCURVE",
"309 64.99 OFFCURVE",
"233 64.99 CURVE SMOOTH"
);
}
);
width = 526;
}
);
leftKerningGroup = a;
note = a;
rightKerningGroup = a;
unicode = 0061;
},
{
glyphname = aacute;
layers = (
{
hints = (
{
horizontal = 1;
place = "{-12.01, 77}";
type = Stem;
},
{
horizontal = 1;
place = "{427, 82.99}";
type = Stem;
},
{
place = "{30.01, 112.99}";
type = Stem;
},
{
place = "{378, 108}";
type = Stem;
}
);
layerId = "6B8C0991-2F12-49E7-9CA3-B7242A37F482";
paths = (
{
closed = 1;
nodes = (
"135 593 LINE",
"223 566 LINE",
"380 664 LINE",
"319 765 LINE"
);
},
{
closed = 1;
nodes = (
"165.37 510 OFFCURVE",
"70.48 442.18 OFFCURVE",
"70.48 360.94 CURVE SMOOTH",
"70.48 353.4 OFFCURVE",
"71.3 345.74 OFFCURVE",
"73 338 CURVE",
"192 337 LINE",
"187 349 OFFCURVE",
"199.88 427 OFFCURVE",
"288.88 427 CURVE SMOOTH",
"339.54 427 OFFCURVE",
"365.27 408.15 OFFCURVE",
"372.81 376.41 CURVE SMOOTH",
"373.96 371.55 OFFCURVE",
"374.55 366.84 OFFCURVE",
"374.55 362.31 CURVE SMOOTH",
"374.55 324.65 OFFCURVE",
"333.87 298.69 OFFCURVE",
"239.01 289.99 CURVE SMOOTH",
"82.84 275.67 OFFCURVE",
"30.01 215.99 OFFCURVE",
"30.01 139.99 CURVE SMOOTH",
"30.01 48.99 OFFCURVE",
"97.01 -12.01 OFFCURVE",
"219.01 -12.01 CURVE SMOOTH",
"295.25 -12.01 OFFCURVE",
"346.7 21.15 OFFCURVE",
"378 66.56 CURVE",
"378 -0.01 LINE",
"486 -0.01 LINE",
"486 312.99 LINE SMOOTH",
"486 393.99 OFFCURVE",
"468 509.99 OFFCURVE",
"277 509.99 CURVE SMOOTH"
);
},
{
closed = 1;
nodes = (
"162 64.99 OFFCURVE",
"143 111.99 OFFCURVE",
"143 144.99 CURVE SMOOTH",
"143 187.99 OFFCURVE",
"185 214.99 OFFCURVE",
"244 221.99 CURVE SMOOTH",
"295.74 228.2 OFFCURVE",
"343.73 242.44 OFFCURVE",
"378 267.34 CURVE",
"378 227.99 LINE SMOOTH",
"378 111.99 OFFCURVE",
"309 64.99 OFFCURVE",
"233 64.99 CURVE SMOOTH"
);
}
);
width = 526;
}
);
leftKerningGroup = a;
note = aacute;
rightKerningGroup = aacute;
unicode = 00E1;
},
{
glyphname = acircumflex;
layers = (
{
hints = (
{
horizontal = 1;
place = "{-12.01, 77}";
type = Stem;
},
{
horizontal = 1;
place = "{427, 82.99}";
type = Stem;
},
{
place = "{30.01, 112.99}";
type = Stem;
},
{
place = "{378, 108}";
type = Stem;
}
);
layerId = "6B8C0991-2F12-49E7-9CA3-B7242A37F482";
paths = (
{
closed = 1;
nodes = (
"163 579 LINE",
"259 669.12 LINE",
"355 579 LINE",
"443 606 LINE",
"259 768 LINE",
"75 606 LINE"
);
},
{
closed = 1;
nodes = (
"165.37 510 OFFCURVE",
"70.48 442.18 OFFCURVE",
"70.48 360.94 CURVE SMOOTH",
"70.48 353.4 OFFCURVE",
"71.3 345.74 OFFCURVE",
"73 338 CURVE",
"192 337 LINE",
"187 349 OFFCURVE",
"199.88 427 OFFCURVE",
"288.88 427 CURVE SMOOTH",
"339.54 427 OFFCURVE",
"365.27 408.15 OFFCURVE",
"372.81 376.41 CURVE SMOOTH",
"373.96 371.55 OFFCURVE",
"374.55 366.84 OFFCURVE",
"374.55 362.31 CURVE SMOOTH",
"374.55 324.65 OFFCURVE",
"333.87 298.69 OFFCURVE",
"239.01 289.99 CURVE SMOOTH",
"82.84 275.67 OFFCURVE",
"30.01 215.99 OFFCURVE",
"30.01 139.99 CURVE SMOOTH",
"30.01 48.99 OFFCURVE",
"97.01 -12.01 OFFCURVE",
"219.01 -12.01 CURVE SMOOTH",
"295.25 -12.01 OFFCURVE",
"346.7 21.15 OFFCURVE",
"378 66.56 CURVE",
"378 -0.01 LINE",
"486 -0.01 LINE",
"486 312.99 LINE SMOOTH",
"486 393.99 OFFCURVE",
"468 509.99 OFFCURVE",
"277 509.99 CURVE SMOOTH"
);
},
{
closed = 1;
nodes = (
"162 64.99 OFFCURVE",
"143 111.99 OFFCURVE",
"143 144.99 CURVE SMOOTH",
"143 187.99 OFFCURVE",
"185 214.99 OFFCURVE",
"244 221.99 CURVE SMOOTH",
"295.74 228.2 OFFCURVE",
"343.73 242.44 OFFCURVE",
"378 267.34 CURVE",
"378 227.99 LINE SMOOTH",
"378 111.99 OFFCURVE",
"309 64.99 OFFCURVE",
"233 64.99 CURVE SMOOTH"
);
}
);
width = 526;
}
);
leftKerningGroup = a;
note = acircumflex;
rightKerningGroup = aacute;
unicode = 00E2;
},
{
glyphname = adieresis;
layers = (
{
hints = (
{
horizontal = 1;
place = "{-12.01, 77}";
type = Stem;
},
{
horizontal = 1;
place = "{427, 82.99}";
type = Stem;
},
{
horizontal = 1;
place = "{583, 108}";
type = Stem;
},
{
place = "{80, 108}";
type = Stem;
},
{
place = "{378, 108}";
type = Stem;
},
{
place = "{328, 108}";
type = Stem;
},
{
place = "{30.01, 112.99}";
type = Stem;
}
);
layerId = "6B8C0991-2F12-49E7-9CA3-B7242A37F482";
paths = (
{
closed = 1;
nodes = (
"188 691 LINE",
"80 691 LINE",
"80 583 LINE",
"188 583 LINE"
);
},
{
closed = 1;
nodes = (
"436 691 LINE",
"328 691 LINE",
"328 583 LINE",
"436 583 LINE"
);
},
{
closed = 1;
nodes = (
"165.37 510 OFFCURVE",
"70.48 442.18 OFFCURVE",
"70.48 360.94 CURVE SMOOTH",
"70.48 353.4 OFFCURVE",
"71.3 345.74 OFFCURVE",
"73 338 CURVE",
"192 337 LINE",
"187 349 OFFCURVE",
"199.88 427 OFFCURVE",
"288.88 427 CURVE SMOOTH",
"339.54 427 OFFCURVE",
"365.27 408.15 OFFCURVE",
"372.81 376.41 CURVE SMOOTH",
"373.96 371.55 OFFCURVE",
"374.55 366.84 OFFCURVE",
"374.55 362.31 CURVE SMOOTH",
"374.55 324.65 OFFCURVE",
"333.87 298.69 OFFCURVE",
"239.01 289.99 CURVE SMOOTH",
"82.84 275.67 OFFCURVE",
"30.01 215.99 OFFCURVE",
"30.01 139.99 CURVE SMOOTH",
"30.01 48.99 OFFCURVE",
"97.01 -12.01 OFFCURVE",
"219.01 -12.01 CURVE SMOOTH",
"295.25 -12.01 OFFCURVE",
"346.7 21.15 OFFCURVE",
"378 66.56 CURVE",
"378 -0.01 LINE",
"486 -0.01 LINE",
"486 312.99 LINE SMOOTH",
"486 393.99 OFFCURVE",
"468 509.99 OFFCURVE",
"277 509.99 CURVE SMOOTH"
);
},
{
closed = 1;
nodes = (
"162 64.99 OFFCURVE",
"143 111.99 OFFCURVE",
"143 144.99 CURVE SMOOTH",
"143 187.99 OFFCURVE",
"185 214.99 OFFCURVE",
"244 221.99 CURVE SMOOTH",
"295.74 228.2 OFFCURVE",
"343.73 242.44 OFFCURVE",
"378 267.34 CURVE",
"378 227.99 LINE SMOOTH",
"378 111.99 OFFCURVE",
"309 64.99 OFFCURVE",
"233 64.99 CURVE SMOOTH"
);
}
);
width = 526;
}
);
leftKerningGroup = a;
note = adieresis;
rightKerningGroup = aacute;
unicode = 00E4;
},
{
glyphname = agrave;
layers = (
{
hints = (
{
horizontal = 1;
place = "{-12.01, 77}";
type = Stem;
},
{
horizontal = 1;
place = "{427, 82.99}";
type = Stem;
},
{
place = "{30.01, 112.99}";
type = Stem;
},
{
place = "{378, 108}";
type = Stem;
}
);
layerId = "6B8C0991-2F12-49E7-9CA3-B7242A37F482";
paths = (
{
closed = 1;
nodes = (
"377 593 LINE",
"193 765 LINE",
"132 664 LINE",
"289 566 LINE"
);
},
{
closed = 1;
nodes = (
"165.37 510 OFFCURVE",
"70.48 442.18 OFFCURVE",
"70.48 360.94 CURVE SMOOTH",
"70.48 353.4 OFFCURVE",
"71.3 345.74 OFFCURVE",
"73 338 CURVE",
"192 337 LINE",
"187 349 OFFCURVE",
"199.88 427 OFFCURVE",
"288.88 427 CURVE SMOOTH",
"339.54 427 OFFCURVE",
"365.27 408.15 OFFCURVE",
"372.81 376.41 CURVE SMOOTH",
"373.96 371.55 OFFCURVE",
"374.55 366.84 OFFCURVE",
"374.55 362.31 CURVE SMOOTH",
"374.55 324.65 OFFCURVE",
"333.87 298.69 OFFCURVE",
"239.01 289.99 CURVE SMOOTH",
"82.84 275.67 OFFCURVE",
"30.01 215.99 OFFCURVE",
"30.01 139.99 CURVE SMOOTH",
"30.01 48.99 OFFCURVE",
"97.01 -12.01 OFFCURVE",
"219.01 -12.01 CURVE SMOOTH",
"295.25 -12.01 OFFCURVE",
"346.7 21.15 OFFCURVE",
"378 66.56 CURVE",
"378 -0.01 LINE",
"486 -0.01 LINE",
"486 312.99 LINE SMOOTH",
"486 393.99 OFFCURVE",
"468 509.99 OFFCURVE",
"277 509.99 CURVE SMOOTH"
);
},
{
closed = 1;
nodes = (
"162 64.99 OFFCURVE",
"143 111.99 OFFCURVE",
"143 144.99 CURVE SMOOTH",
"143 187.99 OFFCURVE",
"185 214.99 OFFCURVE",
"244 221.99 CURVE SMOOTH",
"295.74 228.2 OFFCURVE",
"343.73 242.44 OFFCURVE",
"378 267.34 CURVE",
"378 227.99 LINE SMOOTH",
"378 111.99 OFFCURVE",
"309 64.99 OFFCURVE",
"233 64.99 CURVE SMOOTH"
);
}
);
width = 526;
}
);
leftKerningGroup = a;
note = agrave;
rightKerningGroup = aacute;
unicode = 00E0;
},
{
glyphname = aring;
layers = (
{
hints = (
{
horizontal = 1;
place = "{-12.01, 77}";
type = Stem;
},
{
horizontal = 1;
place = "{427, 82.99}";
type = Stem;
},
{
horizontal = 1;
place = "{555, 60}";
type = Stem;
},
{
horizontal = 1;
place = "{751, 60}";
type = Stem;
},
{
place = "{130, 60}";
type = Stem;
},
{
place = "{378, 108}";
type = Stem;
},
{
place = "{326, 60}";
type = Stem;
},
{
place = "{30.01, 112.99}";
type = Stem;
}
);
layerId = "6B8C0991-2F12-49E7-9CA3-B7242A37F482";
paths = (
{
closed = 1;
nodes = (
"329 555 OFFCURVE",
"386 612 OFFCURVE",
"386 683 CURVE SMOOTH",
"386 754 OFFCURVE",
"329 811 OFFCURVE",
"258 811 CURVE SMOOTH",
"187 811 OFFCURVE",
"130 754 OFFCURVE",
"130 683 CURVE SMOOTH",
"130 612 OFFCURVE",
"187 555 OFFCURVE",
"258 555 CURVE SMOOTH"
);
},
{
closed = 1;
nodes = (
"220 615 OFFCURVE",
"190 645 OFFCURVE",
"190 683 CURVE SMOOTH",
"190 721 OFFCURVE",
"220 751 OFFCURVE",
"258 751 CURVE SMOOTH",
"296 751 OFFCURVE",
"326 721 OFFCURVE",
"326 683 CURVE SMOOTH",
"326 645 OFFCURVE",
"296 615 OFFCURVE",
"258 615 CURVE SMOOTH"
);
},
{
closed = 1;
nodes = (
"165.37 510 OFFCURVE",
"70.48 442.18 OFFCURVE",
"70.48 360.94 CURVE SMOOTH",
"70.48 353.4 OFFCURVE",
"71.3 345.74 OFFCURVE",
"73 338 CURVE",
"192 337 LINE",
"187 349 OFFCURVE",
"199.88 427 OFFCURVE",
"288.88 427 CURVE SMOOTH",
"339.54 427 OFFCURVE",
"365.27 408.15 OFFCURVE",
"372.81 376.41 CURVE SMOOTH",
"373.96 371.55 OFFCURVE",
"374.55 366.84 OFFCURVE",
"374.55 362.31 CURVE SMOOTH",
"374.55 324.65 OFFCURVE",
"333.87 298.69 OFFCURVE",
"239.01 289.99 CURVE SMOOTH",
"82.84 275.67 OFFCURVE",
"30.01 215.99 OFFCURVE",
"30.01 139.99 CURVE SMOOTH",
"30.01 48.99 OFFCURVE",
"97.01 -12.01 OFFCURVE",
"219.01 -12.01 CURVE SMOOTH",
"295.25 -12.01 OFFCURVE",
"346.7 21.15 OFFCURVE",
"378 66.56 CURVE",
"378 -0.01 LINE",
"486 -0.01 LINE",
"486 312.99 LINE SMOOTH",
"486 393.99 OFFCURVE",
"468 509.99 OFFCURVE",
"277 509.99 CURVE SMOOTH"
);
},
{
closed = 1;
nodes = (
"162 64.99 OFFCURVE",
"143 111.99 OFFCURVE",
"143 144.99 CURVE SMOOTH",
"143 187.99 OFFCURVE",
"185 214.99 OFFCURVE",
"244 221.99 CURVE SMOOTH",
"295.74 228.2 OFFCURVE",
"343.73 242.44 OFFCURVE",
"378 267.34 CURVE",
"378 227.99 LINE SMOOTH",
"378 111.99 OFFCURVE",
"309 64.99 OFFCURVE",
"233 64.99 CURVE SMOOTH"
);
}
);
width = 526;
}
);
leftKerningGroup = a;
note = aring;
rightKerningGroup = aacute;
unicode = 00E5;
},
{
glyphname = atilde;
layers = (
{
hints = (
{
horizontal = 1;
place = "{-12.01, 77}";
type = Stem;
},
{
horizontal = 1;
place = "{427, 82.99}";
type = Stem;
},
{
horizontal = 1;
place = "{586.99, 160}";
type = Stem;
},
{
place = "{387.06, 75.06}";
type = Stem;
},
{
horizontal = 1;
place = "{587, 61}";
type = Stem;
},
{
place = "{90, 72.93}";
type = Stem;
},
{
place = "{30.01, 112.99}";
type = Stem;
},
{
place = "{378, 108}";
type = Stem;
}
);
layerId = "6B8C0991-2F12-49E7-9CA3-B7242A37F482";
paths = (
{
closed = 1;
nodes = (
"326 747 LINE",
"364.87 719.13 OFFCURVE",
"387.06 678.89 OFFCURVE",
"387.06 659.41 CURVE SMOOTH",
"387.06 652.33 OFFCURVE",
"384.13 648 OFFCURVE",
"378 648 CURVE SMOOTH",
"353 648 OFFCURVE",
"310 688 OFFCURVE",
"287 705 CURVE SMOOTH",
"243 736 OFFCURVE",
"222 747 OFFCURVE",
"181 747 CURVE SMOOTH",
"121.83 747 OFFCURVE",
"90 705.39 OFFCURVE",
"90 660.84 CURVE SMOOTH",
"90 634.62 OFFCURVE",
"101.03 607.37 OFFCURVE",
"124 586.99 CURVE",
"224 586.99 LINE",
"185.13 614.86 OFFCURVE",
"162.93 660.48 OFFCURVE",
"162.93 682.83 CURVE SMOOTH",
"162.93 690.95 OFFCURVE",
"165.87 696 OFFCURVE",
"172 696 CURVE SMOOTH",
"198 696 OFFCURVE",
"241 646 OFFCURVE",
"280 618 CURVE SMOOTH",
"304 600 OFFCURVE",
"333 587 OFFCURVE",
"369 587 CURVE SMOOTH",
"427.83 587 OFFCURVE",
"462.12 632.26 OFFCURVE",
"462.12 676.69 CURVE SMOOTH",
"462.12 704.01 OFFCURVE",
"449.17 731.01 OFFCURVE",
"421 746.99 CURVE"
);
},
{
closed = 1;
nodes = (
"165.37 509.99 OFFCURVE",
"70.48 442.18 OFFCURVE",
"70.48 360.94 CURVE SMOOTH",
"70.48 353.39 OFFCURVE",
"71.3 345.73 OFFCURVE",
"73 338 CURVE",
"192 337 LINE",
"187 349 OFFCURVE",
"199.88 427 OFFCURVE",
"288.88 427 CURVE SMOOTH",
"339.54 427 OFFCURVE",
"365.27 408.15 OFFCURVE",
"372.81 376.41 CURVE SMOOTH",
"373.96 371.54 OFFCURVE",
"374.55 366.84 OFFCURVE",
"374.55 362.3 CURVE SMOOTH",
"374.55 324.64 OFFCURVE",
"333.87 298.69 OFFCURVE",
"239.01 289.99 CURVE SMOOTH",
"82.84 275.67 OFFCURVE",
"30.01 215.99 OFFCURVE",
"30.01 139.99 CURVE SMOOTH",
"30.01 48.99 OFFCURVE",
"97.01 -12.01 OFFCURVE",
"219.01 -12.01 CURVE SMOOTH",
"295.25 -12.01 OFFCURVE",
"346.7 21.14 OFFCURVE",
"378 66.56 CURVE",
"378 -0.01 LINE",
"486 -0.01 LINE",
"486 312.99 LINE SMOOTH",
"486 393.99 OFFCURVE",
"468 509.99 OFFCURVE",
"277 509.99 CURVE SMOOTH"
);
},
{
closed = 1;
nodes = (
"162 64.99 OFFCURVE",
"143 111.99 OFFCURVE",
"143 144.99 CURVE SMOOTH",
"143 187.99 OFFCURVE",
"185 214.99 OFFCURVE",
"244 221.99 CURVE SMOOTH",
"295.74 228.2 OFFCURVE",
"343.73 242.44 OFFCURVE",
"378 267.34 CURVE",
"378 227.99 LINE SMOOTH",
"378 111.99 OFFCURVE",
"309 64.99 OFFCURVE",
"233 64.99 CURVE SMOOTH"
);
}
);
width = 526;
}
);
leftKerningGroup = a;
note = atilde;
rightKerningGroup = aacute;
unicode = 00E3;
},
{
glyphname = ae;
layers = (
{
hints = (
{
horizontal = 1;
place = "{-12.01, 91.01}";
type = Stem;
},
{
horizontal = 1;
place = "{224, 74.99}";
type = Stem;
},
{
horizontal = 1;
place = "{421.99, 89.01}";
type = Stem;
},
{
place = "{30.01, 113.01}";
type = Stem;
},
{
place = "{763.02, 111.32}";
type = Stem;
},
{
horizontal = 1;
place = "{-12.01, 77}";
type = Stem;
},
{
horizontal = 1;
place = "{427, 83}";
type = Stem;
}
);
layerId = "6B8C0991-2F12-49E7-9CA3-B7242A37F482";
paths = (
{
closed = 1;
nodes = (
"790.45 163 LINE",
"766.45 120 OFFCURVE",
"727.45 79 OFFCURVE",
"644.45 79 CURVE SMOOTH",
"570.72 79 OFFCURVE",
"502.79 124.57 OFFCURVE",
"491.19 224 CURVE",
"866.45 224 LINE",
"871.77 249.16 OFFCURVE",
"874.34 273.01 OFFCURVE",
"874.34 295.42 CURVE SMOOTH",
"874.34 428.89 OFFCURVE",
"783.15 511 OFFCURVE",
"638.45 511 CURVE SMOOTH",
"565 511 OFFCURVE",
"499.4 487.21 OFFCURVE",
"452.34 442.95 CURVE",
"423.79 481.53 OFFCURVE",
"371.63 510 OFFCURVE",
"277 510 CURVE SMOOTH",
"165.37 510 OFFCURVE",
"70.49 442.18 OFFCURVE",
"70.49 360.94 CURVE SMOOTH",
"70.49 353.4 OFFCURVE",
"71.31 345.74 OFFCURVE",
"73.01 338 CURVE",
"192.01 337 LINE",
"187.01 349 OFFCURVE",
"199.89 427 OFFCURVE",
"288.89 427 CURVE SMOOTH",
"339.55 427 OFFCURVE",
"365.27 408.15 OFFCURVE",
"372.81 376.41 CURVE SMOOTH",
"373.97 371.55 OFFCURVE",
"374.56 366.84 OFFCURVE",
"374.56 362.31 CURVE SMOOTH",
"374.56 324.65 OFFCURVE",
"333.88 298.69 OFFCURVE",
"239.01 289.99 CURVE SMOOTH",
"82.85 275.67 OFFCURVE",
"30.01 215.99 OFFCURVE",
"30.01 139.99 CURVE SMOOTH",
"30.01 48.99 OFFCURVE",
"97.01 -12.01 OFFCURVE",
"219.01 -12.01 CURVE SMOOTH",
"328.07 -12.01 OFFCURVE",
"391.21 36.53 OFFCURVE",
"414.59 107.33 CURVE",
"462.55 26.86 OFFCURVE",
"551.02 -12.01 OFFCURVE",
"644.47 -12.01 CURVE SMOOTH",
"763.47 -12.01 OFFCURVE",
"843.47 33.99 OFFCURVE",
"889.47 115.99 CURVE"
);
},
{
closed = 1;
nodes = (
"723.67 421.99 OFFCURVE",
"763.02 370.52 OFFCURVE",
"763.02 317.34 CURVE SMOOTH",
"763.02 311.22 OFFCURVE",
"762.5 305.08 OFFCURVE",
"761.47 298.99 CURVE",
"493.56 298.99 LINE",
"508.25 374.15 OFFCURVE",
"561.58 421.99 OFFCURVE",
"638.47 421.99 CURVE SMOOTH"
);
},
{
closed = 1;
nodes = (
"378.02 227.99 LINE SMOOTH",
"378.02 113.08 OFFCURVE",
"309.02 64.99 OFFCURVE",
"233.02 64.99 CURVE SMOOTH",
"162.02 64.99 OFFCURVE",
"143.02 111.99 OFFCURVE",
"143.02 144.99 CURVE SMOOTH",
"143.02 187.99 OFFCURVE",
"185.02 214.99 OFFCURVE",
"244.02 221.99 CURVE SMOOTH",
"295.59 228.18 OFFCURVE",
"343.44 242.35 OFFCURVE",
"377.69 267.11 CURVE",
"377.54 263.11 OFFCURVE",
"377.47 259.08 OFFCURVE",
"377.47 255 CURVE SMOOTH",
"377.47 248.12 OFFCURVE",
"377.65 241.37 OFFCURVE",
"378.02 234.77 CURVE"
);
}
);
width = 954;
}
);
leftKerningGroup = a;
note = ae;
rightKerningGroup = ae;
unicode = 00E6;
},
{
glyphname = b;
layers = (
{
hints = (
{
horizontal = 1;
place = "{-10, 96}";
type = Stem;
},
{
horizontal = 1;
place = "{417, 95}";
type = Stem;
},
{
place = "{40.5, 108.5}";
type = Stem;
},
{
place = "{434, 109}";
type = Stem;
}
);
layerId = "6B8C0991-2F12-49E7-9CA3-B7242A37F482";
paths = (
{
closed = 1;
nodes = (
"227.11 512 OFFCURVE",
"180.59 486.23 OFFCURVE",
"149 448.45 CURVE",
"149 700 LINE",
"40 700 LINE",
"41 0 LINE",
"149 0 LINE",
"149 53.98 LINE",
"180.59 15.93 OFFCURVE",
"227.11 -10 OFFCURVE",
"294 -10 CURVE SMOOTH",
"444 -10 OFFCURVE",
"543 104 OFFCURVE",
"543 252 CURVE SMOOTH",
"543 399 OFFCURVE",
"444 512 OFFCURVE",
"294 512 CURVE SMOOTH"
);
},
{
closed = 1;
nodes = (
"207 86 OFFCURVE",
"138 147 OFFCURVE",
"138 252 CURVE SMOOTH",
"138 355 OFFCURVE",
"207 417 OFFCURVE",
"294 417 CURVE SMOOTH",
"378 417 OFFCURVE",
"434 345 OFFCURVE",
"434 252 CURVE SMOOTH",
"434 157 OFFCURVE",
"378 86 OFFCURVE",
"294 86 CURVE SMOOTH"
);
}
);
width = 583;
}
);
leftKerningGroup = b;
note = b;
rightKerningGroup = b;
unicode = 0062;
},
{
glyphname = c;
layers = (
{
hints = (
{
horizontal = 1;
place = "{-12, 91}";
type = Stem;
},
{
horizontal = 1;
place = "{422, 89}";
type = Stem;
},
{
place = "{30, 110}";
type = Stem;
}
);
layerId = "6B8C0991-2F12-49E7-9CA3-B7242A37F482";
paths = (
{
closed = 1;
nodes = (
"535 371 LINE",
"504 459 OFFCURVE",
"423 511 OFFCURVE",
"304 511 CURVE SMOOTH",
"148 511 OFFCURVE",
"30 417 OFFCURVE",
"30 245 CURVE SMOOTH",
"30 74 OFFCURVE",
"158 -12 OFFCURVE",
"297 -12 CURVE SMOOTH",
"422 -12 OFFCURVE",
"507 48.58 OFFCURVE",
"539 151.58 CURVE",
"441 191 LINE",
"421 132 OFFCURVE",
"388 79 OFFCURVE",
"297 79 CURVE SMOOTH",
"216 79 OFFCURVE",
"140 134 OFFCURVE",
"140 245 CURVE SMOOTH",
"140 355 OFFCURVE",
"203 422 OFFCURVE",
"304 422 CURVE SMOOTH",
"371 422 OFFCURVE",
"420 397 OFFCURVE",
"443 320 CURVE"
);
}
);
width = 569;
}
);
leftKerningGroup = a;
note = c;
rightKerningGroup = c;
unicode = 0063;
},
{
glyphname = ccedilla;
layers = (
{
hints = (
{
horizontal = 1;
place = "{-208, 57}";
type = Stem;
},
{
horizontal = 1;
place = "{-73, 42}";
type = Stem;
},
{
horizontal = 1;
place = "{422, 89}";
type = Stem;
},
{
place = "{30, 110}";
type = Stem;
},
{
place = "{334.19, 63.53}";
type = Stem;
}
);
layerId = "6B8C0991-2F12-49E7-9CA3-B7242A37F482";
paths = (
{
closed = 1;
nodes = (
"441 191 LINE",
"421 132 OFFCURVE",
"388 79 OFFCURVE",
"297 79 CURVE SMOOTH",
"216 79 OFFCURVE",
"140 134 OFFCURVE",
"140 245 CURVE SMOOTH",
"140 355 OFFCURVE",
"203 422 OFFCURVE",
"304 422 CURVE SMOOTH",
"371 422 OFFCURVE",
"420 397 OFFCURVE",
"443 320 CURVE",
"535 371 LINE",
"504 459 OFFCURVE",
"423 511 OFFCURVE",
"304 511 CURVE SMOOTH",
"148 511 OFFCURVE",
"30 417 OFFCURVE",
"30 245 CURVE SMOOTH",
"30 97.3 OFFCURVE",
"125.49 13.02 OFFCURVE",
"241.08 -7.21 CURVE",
"202.99 -90 LINE",
"265.99 -90 LINE",
"270.99 -83 OFFCURVE",
"283.99 -73 OFFCURVE",
"305.99 -73 CURVE SMOOTH",
"323.61 -73 OFFCURVE",
"334.19 -82.85 OFFCURVE",
"334.19 -99.61 CURVE SMOOTH",
"334.19 -133.36 OFFCURVE",
"301.79 -151 OFFCURVE",
"266.99 -151 CURVE SMOOTH",
"243.99 -151 OFFCURVE",
"198.99 -140 OFFCURVE",
"186.99 -130 CURVE",
"186.99 -196 LINE",
"193.99 -200 OFFCURVE",
"227.99 -208 OFFCURVE",
"254.99 -208 CURVE SMOOTH",
"309.99 -208 OFFCURVE",
"380.99 -181 OFFCURVE",
"395.99 -112 CURVE SMOOTH",
"397.14 -106.51 OFFCURVE",
"397.72 -101.11 OFFCURVE",
"397.72 -95.85 CURVE SMOOTH",
"397.72 -59.92 OFFCURVE",
"370.69 -31 OFFCURVE",
"313.99 -31 CURVE SMOOTH",
"306.49 -31 OFFCURVE",
"298.74 -32.21 OFFCURVE",
"291.04 -34.32 CURVE",
"301.1 -11.98 LINE",
"423.85 -10.67 OFFCURVE",
"507.34 49.71 OFFCURVE",
"538.99 151.58 CURVE"
);
}
);
width = 569;
}
);
leftKerningGroup = a;
note = ccedilla;
rightKerningGroup = c;
unicode = 00E7;
},
{
glyphname = d;
layers = (
{
hints = (
{
horizontal = 1;
place = "{-10, 96}";
type = Stem;
},
{
horizontal = 1;
place = "{417, 95}";
type = Stem;
},
{
place = "{20, 109}";
type = Stem;
},
{
place = "{414, 108.5}";
type = Stem;
}
);
layerId = "6B8C0991-2F12-49E7-9CA3-B7242A37F482";
paths = (
{
closed = 1;
nodes = (
"414 0 LINE",
"522 0 LINE",
"523 700 LINE",
"414 700 LINE",
"414 448.45 LINE",
"382.4 486.23 OFFCURVE",
"335.89 512 OFFCURVE",
"269 512 CURVE SMOOTH",
"119 512 OFFCURVE",
"20 399 OFFCURVE",
"20 252 CURVE SMOOTH",
"20 104 OFFCURVE",
"119 -10 OFFCURVE",
"269 -10 CURVE SMOOTH",
"335.89 -10 OFFCURVE",
"382.4 15.93 OFFCURVE",
"414 53.98 CURVE"
);
},
{
closed = 1;
nodes = (
"185 86 OFFCURVE",
"129 157 OFFCURVE",
"129 252 CURVE SMOOTH",
"129 345 OFFCURVE",
"185 417 OFFCURVE",
"269 417 CURVE SMOOTH",
"356 417 OFFCURVE",
"425 355 OFFCURVE",
"425 252 CURVE SMOOTH",
"425 147 OFFCURVE",
"356 86 OFFCURVE",
"269 86 CURVE SMOOTH"
);
}
);
width = 578;
}
);
leftKerningGroup = a;
note = d;
rightKerningGroup = d;
unicode = 0064;
},
{
glyphname = eth;
layers = (
{
hints = (
{
horizontal = 1;
place = "{-10.01, 95.99}";
type = Stem;
},
{
horizontal = 1;
place = "{416.63, 95.36}";
type = Stem;
},
{
place = "{38.99, 110}";
type = Stem;
},
{
place = "{444.99, 107.01}";
type = Stem;
}
);
layerId = "6B8C0991-2F12-49E7-9CA3-B7242A37F482";
paths = (
{
closed = 1;
nodes = (
"552 493.87 OFFCURVE",
"465.34 629.71 OFFCURVE",
"322.12 709.18 CURVE",
"373 753 LINE",
"329 805 LINE",
"254.79 740.73 LINE",
"199.95 762.16 OFFCURVE",
"138.95 776.54 OFFCURVE",
"73 782.99 CURVE",
"73 681.99 LINE",
"105.91 677.27 OFFCURVE",
"136.45 670.79 OFFCURVE",
"164.69 662.7 CURVE",
"120 623.99 LINE",
"164 572.99 LINE",
"237.34 636.16 LINE",
"319.18 598.86 OFFCURVE",
"375.38 544.38 OFFCURVE",
"409.19 478.3 CURVE",
"374.43 499.09 OFFCURVE",
"333.73 511.99 OFFCURVE",
"287.99 511.99 CURVE SMOOTH",
"279.99 511.99 OFFCURVE",
"270.99 511.99 OFFCURVE",
"261.99 510.99 CURVE SMOOTH",
"123.99 495.99 OFFCURVE",
"38.99 389.99 OFFCURVE",
"38.99 257.99 CURVE SMOOTH",
"38.99 247.99 OFFCURVE",
"39.99 236.99 OFFCURVE",
"40.99 225.99 CURVE SMOOTH",
"55.99 88.99 OFFCURVE",
"151.99 -10.01 OFFCURVE",
"285.99 -10.01 CURVE SMOOTH",
"295.99 -10.01 OFFCURVE",
"305.99 -9.01 OFFCURVE",
"315.99 -8.01 CURVE SMOOTH",
"441.84 5.24 OFFCURVE",
"515.59 104.86 OFFCURVE",
"537.24 199.47 CURVE SMOOTH",
"538.47 204.46 OFFCURVE",
"539.72 209.95 OFFCURVE",
"540.99 215.98 CURVE SMOOTH",
"548.99 252.98 OFFCURVE",
"551.99 288.98 OFFCURVE",
"551.99 322.98 CURVE SMOOTH"
);
},
{
closed = 1;
nodes = (
"300.99 85.98 OFFCURVE",
"295.99 85.98 OFFCURVE",
"289.99 85.98 CURVE SMOOTH",
"207.99 85.98 OFFCURVE",
"148.99 159.98 OFFCURVE",
"148.99 261.98 CURVE SMOOTH",
"148.99 347.64 OFFCURVE",
"199.32 416.63 OFFCURVE",
"285.82 416.63 CURVE SMOOTH",
"349.13 416.63 OFFCURVE",
"444.99 377.87 OFFCURVE",
"444.99 244.98 CURVE SMOOTH",
"444.99 239.52 OFFCURVE",
"444.78 234.17 OFFCURVE",
"444.36 228.94 CURVE",
"443.46 221.69 OFFCURVE",
"442.41 214.25 OFFCURVE",
"441.21 206.63 CURVE",
"427.01 137.59 OFFCURVE",
"374.11 93.8 OFFCURVE",
"305.99 86.99 CURVE"
);
}
);
width = 573;
}
);
note = eth;
unicode = 00F0;
},
{
glyphname = e;
layers = (
{
hints = (
{
horizontal = 1;
place = "{-12, 91}";
type = Stem;
},
{
horizontal = 1;
place = "{224, 75}";
type = Stem;
},
{
horizontal = 1;
place = "{422, 89}";
type = Stem;
},
{
place = "{415.55, 111.34}";
type = Stem;
}
);
layerId = "6B8C0991-2F12-49E7-9CA3-B7242A37F482";
paths = (
{
closed = 1;
nodes = (
"443 163 LINE",
"419 120 OFFCURVE",
"380 79 OFFCURVE",
"297 79 CURVE SMOOTH",
"223.27 79 OFFCURVE",
"155.34 124.57 OFFCURVE",
"143.74 224 CURVE",
"519 224 LINE",
"524.32 249.16 OFFCURVE",
"526.89 273.01 OFFCURVE",
"526.89 295.42 CURVE SMOOTH",
"526.89 428.89 OFFCURVE",
"435.7 511 OFFCURVE",
"291 511 CURVE SMOOTH",
"145 511 OFFCURVE",
"30 417 OFFCURVE",
"30 255 CURVE SMOOTH",
"30 74 OFFCURVE",
"158 -12 OFFCURVE",
"297 -12 CURVE SMOOTH",
"416 -12 OFFCURVE",
"496 34 OFFCURVE",
"542 116 CURVE"
);
},
{
closed = 1;
nodes = (
"376.2 422 OFFCURVE",
"415.55 370.53 OFFCURVE",
"415.55 317.35 CURVE SMOOTH",
"415.55 311.23 OFFCURVE",
"415.03 305.09 OFFCURVE",
"414 299 CURVE",
"146.09 299 LINE",
"160.78 374.16 OFFCURVE",
"214.11 422 OFFCURVE",
"291 422 CURVE SMOOTH"
);
}
);
width = 607;
}
);
leftKerningGroup = a;
note = e;
rightKerningGroup = ae;
unicode = 0065;
},
{
glyphname = eacute;
layers = (
{
hints = (
{
horizontal = 1;
place = "{-12, 91}";
type = Stem;
},
{
horizontal = 1;
place = "{224, 75}";
type = Stem;
},
{
horizontal = 1;
place = "{422, 89}";
type = Stem;
},
{
place = "{415.55, 111.34}";
type = Stem;
}
);
layerId = "6B8C0991-2F12-49E7-9CA3-B7242A37F482";
paths = (
{
closed = 1;
nodes = (
"166 593 LINE",
"254 566 LINE",
"411 664 LINE",
"350 765 LINE"
);
},
{
closed = 1;
nodes = (
"443 163 LINE",
"419 120 OFFCURVE",
"380 79 OFFCURVE",
"297 79 CURVE SMOOTH",
"223.27 79 OFFCURVE",
"155.34 124.57 OFFCURVE",
"143.74 224 CURVE",
"519 224 LINE",
"524.32 249.16 OFFCURVE",
"526.89 273.01 OFFCURVE",
"526.89 295.42 CURVE SMOOTH",
"526.89 428.89 OFFCURVE",
"435.7 511 OFFCURVE",
"291 511 CURVE SMOOTH",
"145 511 OFFCURVE",
"30 417 OFFCURVE",
"30 255 CURVE SMOOTH",
"30 74 OFFCURVE",
"158 -12 OFFCURVE",
"297 -12 CURVE SMOOTH",
"416 -12 OFFCURVE",
"496 34 OFFCURVE",
"542 116 CURVE"
);
},
{
closed = 1;
nodes = (
"376.2 422 OFFCURVE",
"415.55 370.53 OFFCURVE",
"415.55 317.35 CURVE SMOOTH",
"415.55 311.23 OFFCURVE",
"415.03 305.09 OFFCURVE",
"414 299 CURVE",
"146.09 299 LINE",
"160.78 374.16 OFFCURVE",
"214.11 422 OFFCURVE",
"291 422 CURVE SMOOTH"
);
}
);
width = 607;
}
);
leftKerningGroup = a;
note = eacute;
rightKerningGroup = ae;
unicode = 00E9;
},
{
glyphname = ecircumflex;
layers = (
{
hints = (
{
horizontal = 1;
place = "{-12, 91}";
type = Stem;
},
{
horizontal = 1;
place = "{224, 75}";
type = Stem;
},
{
horizontal = 1;
place = "{422, 89}";
type = Stem;
},
{
place = "{415.55, 111.34}";
type = Stem;
}
);
layerId = "6B8C0991-2F12-49E7-9CA3-B7242A37F482";
paths = (
{
closed = 1;
nodes = (
"194 579 LINE",
"290 669.12 LINE",
"386 579 LINE",
"474 606 LINE",
"290 768 LINE",
"106 606 LINE"
);
},
{
closed = 1;
nodes = (
"443 163 LINE",
"419 120 OFFCURVE",
"380 79 OFFCURVE",
"297 79 CURVE SMOOTH",
"223.27 79 OFFCURVE",
"155.34 124.57 OFFCURVE",
"143.74 224 CURVE",
"519 224 LINE",
"524.32 249.16 OFFCURVE",
"526.89 273.01 OFFCURVE",
"526.89 295.42 CURVE SMOOTH",
"526.89 428.89 OFFCURVE",
"435.7 511 OFFCURVE",
"291 511 CURVE SMOOTH",
"145 511 OFFCURVE",
"30 417 OFFCURVE",
"30 255 CURVE SMOOTH",
"30 74 OFFCURVE",
"158 -12 OFFCURVE",
"297 -12 CURVE SMOOTH",
"416 -12 OFFCURVE",
"496 34 OFFCURVE",
"542 116 CURVE"
);
},
{
closed = 1;
nodes = (
"376.2 422 OFFCURVE",
"415.55 370.53 OFFCURVE",
"415.55 317.35 CURVE SMOOTH",
"415.55 311.23 OFFCURVE",
"415.03 305.09 OFFCURVE",
"414 299 CURVE",
"146.09 299 LINE",
"160.78 374.16 OFFCURVE",
"214.11 422 OFFCURVE",
"291 422 CURVE SMOOTH"
);
}
);
width = 607;
}
);
leftKerningGroup = a;
note = ecircumflex;
rightKerningGroup = ae;
unicode = 00EA;
},
{
glyphname = edieresis;
layers = (
{
hints = (
{
horizontal = 1;
place = "{-12, 91}";
type = Stem;
},
{
horizontal = 1;
place = "{224, 75}";
type = Stem;
},
{
horizontal = 1;
place = "{422, 89}";
type = Stem;
},
{
horizontal = 1;
place = "{583, 108}";
type = Stem;
},
{
place = "{111, 108}";
type = Stem;
},
{
place = "{359, 108}";
type = Stem;
},
{
place = "{415.55, 111.34}";
type = Stem;
}
);
layerId = "6B8C0991-2F12-49E7-9CA3-B7242A37F482";
paths = (
{
closed = 1;
nodes = (
"219 691 LINE",
"111 691 LINE",
"111 583 LINE",
"219 583 LINE"
);
},
{
closed = 1;
nodes = (
"467 691 LINE",
"359 691 LINE",
"359 583 LINE",
"467 583 LINE"
);
},
{
closed = 1;
nodes = (
"443 163 LINE",
"419 120 OFFCURVE",
"380 79 OFFCURVE",
"297 79 CURVE SMOOTH",
"223.27 79 OFFCURVE",
"155.34 124.57 OFFCURVE",
"143.74 224 CURVE",
"519 224 LINE",
"524.32 249.16 OFFCURVE",
"526.89 273.01 OFFCURVE",
"526.89 295.42 CURVE SMOOTH",
"526.89 428.89 OFFCURVE",
"435.7 511 OFFCURVE",
"291 511 CURVE SMOOTH",
"145 511 OFFCURVE",
"30 417 OFFCURVE",
"30 255 CURVE SMOOTH",
"30 74 OFFCURVE",
"158 -12 OFFCURVE",
"297 -12 CURVE SMOOTH",
"416 -12 OFFCURVE",
"496 34 OFFCURVE",
"542 116 CURVE"
);
},
{
closed = 1;
nodes = (
"376.2 422 OFFCURVE",
"415.55 370.53 OFFCURVE",
"415.55 317.35 CURVE SMOOTH",
"415.55 311.23 OFFCURVE",
"415.03 305.09 OFFCURVE",
"414 299 CURVE",
"146.09 299 LINE",
"160.78 374.16 OFFCURVE",
"214.11 422 OFFCURVE",
"291 422 CURVE SMOOTH"
);
}
);
width = 607;
}
);
leftKerningGroup = a;
note = edieresis;
rightKerningGroup = ae;
unicode = 00EB;
},
{
glyphname = egrave;
layers = (
{
hints = (
{
horizontal = 1;
place = "{-12, 91}";
type = Stem;
},
{
horizontal = 1;
place = "{224, 75}";
type = Stem;
},
{
horizontal = 1;
place = "{422, 89}";
type = Stem;
},
{
place = "{415.55, 111.34}";
type = Stem;
}
);
layerId = "6B8C0991-2F12-49E7-9CA3-B7242A37F482";
paths = (
{
closed = 1;
nodes = (
"408 593 LINE",
"224 765 LINE",
"163 664 LINE",
"320 566 LINE"
);
},
{
closed = 1;
nodes = (
"443 163 LINE",
"419 120 OFFCURVE",
"380 79 OFFCURVE",
"297 79 CURVE SMOOTH",
"223.27 79 OFFCURVE",
"155.34 124.57 OFFCURVE",
"143.74 224 CURVE",
"519 224 LINE",
"524.32 249.16 OFFCURVE",
"526.89 273.01 OFFCURVE",
"526.89 295.42 CURVE SMOOTH",
"526.89 428.89 OFFCURVE",
"435.7 511 OFFCURVE",
"291 511 CURVE SMOOTH",
"145 511 OFFCURVE",
"30 417 OFFCURVE",
"30 255 CURVE SMOOTH",
"30 74 OFFCURVE",
"158 -12 OFFCURVE",
"297 -12 CURVE SMOOTH",
"416 -12 OFFCURVE",
"496 34 OFFCURVE",
"542 116 CURVE"
);
},
{
closed = 1;
nodes = (
"376.2 422 OFFCURVE",
"415.55 370.53 OFFCURVE",
"415.55 317.35 CURVE SMOOTH",
"415.55 311.23 OFFCURVE",
"415.03 305.09 OFFCURVE",
"414 299 CURVE",
"146.09 299 LINE",
"160.78 374.16 OFFCURVE",
"214.11 422 OFFCURVE",
"291 422 CURVE SMOOTH"
);
}
);
width = 607;
}
);
leftKerningGroup = a;
note = egrave;
rightKerningGroup = ae;
unicode = 00E8;
},
{
glyphname = f;
layers = (
{
hints = (
{
horizontal = 1;
place = "{400, 100}";
type = Stem;
},
{
horizontal = 1;
place = "{658, 88}";
type = Stem;
},
{
place = "{93.5, 107.5}";
type = Stem;
},
{
place = "{45, 106}";
type = Stem;
}
);
layerId = "6B8C0991-2F12-49E7-9CA3-B7242A37F482";
paths = (
{
closed = 1;
nodes = (
"118 746 OFFCURVE",
"45 659 OFFCURVE",
"45 588 CURVE SMOOTH",
"45 549 OFFCURVE",
"59 519 OFFCURVE",
"85 500 CURVE",
"3 500 LINE",
"3 400 LINE",
"94 400 LINE",
"93 0 LINE",
"201 0 LINE",
"201 400 LINE",
"363 400 LINE",
"363 500 LINE",
"217 500 LINE",
"164 518 OFFCURVE",
"151 557 OFFCURVE",
"151 584 CURVE SMOOTH",
"151 634 OFFCURVE",
"204 658 OFFCURVE",
"248 658 CURVE SMOOTH",
"317 658 OFFCURVE",
"352 605 OFFCURVE",
"358 594 CURVE",
"446 647 LINE",
"419 684 OFFCURVE",
"357 746 OFFCURVE",
"248 746 CURVE SMOOTH"
);
}
);
width = 427;
}
);
leftKerningGroup = f;
note = f;
rightKerningGroup = f;
unicode = 0066;
},
{
glyphname = g;
layers = (
{
hints = (
{
horizontal = 1;
place = "{-260, 95}";
type = Stem;
},
{
horizontal = 1;
place = "{-12, 95}";
type = Stem;
},
{
horizontal = 1;
place = "{414, 96}";
type = Stem;
},
{
place = "{20, 109}";
type = Stem;
},
{
place = "{414, 109}";
type = Stem;
}
);
layerId = "6B8C0991-2F12-49E7-9CA3-B7242A37F482";
paths = (
{
closed = 1;
nodes = (
"522 500 LINE",
"414 500 LINE",
"414 446.02 LINE",
"382.4 484.06 OFFCURVE",
"335.89 510 OFFCURVE",
"269 510 CURVE SMOOTH",
"119 510 OFFCURVE",
"20 396 OFFCURVE",
"20 248 CURVE SMOOTH",
"20 101 OFFCURVE",
"119 -12 OFFCURVE",
"269 -12 CURVE SMOOTH",
"335.89 -12 OFFCURVE",
"382.4 13.76 OFFCURVE",
"414 51.54 CURVE",
"414 -3 LINE SMOOTH",
"414 -114 OFFCURVE",
"353 -165 OFFCURVE",
"272 -165 CURVE SMOOTH",
"179 -165 OFFCURVE",
"154 -118 OFFCURVE",
"137 -72 CURVE",
"32 -95 LINE",
"55 -183 OFFCURVE",
"121 -260 OFFCURVE",
"272 -260 CURVE SMOOTH",
"411 -260 OFFCURVE",
"523 -174 OFFCURVE",
"523 -3 CURVE"
);
},
{
closed = 1;
nodes = (
"185 83 OFFCURVE",
"129 155 OFFCURVE",
"129 248 CURVE SMOOTH",
"129 343 OFFCURVE",
"185 414 OFFCURVE",
"269 414 CURVE SMOOTH",
"356 414 OFFCURVE",
"425 353 OFFCURVE",
"425 248 CURVE SMOOTH",
"425 145 OFFCURVE",
"356 83 OFFCURVE",
"269 83 CURVE SMOOTH"
);
}
);
width = 568;
}
);
leftKerningGroup = a;
note = g;
rightKerningGroup = a;
unicode = 0067;
},
{
glyphname = h;
layers = (
{
hints = (
{
horizontal = 1;
place = "{415, 92}";
type = Stem;
},
{
place = "{39.99, 108}";
type = Stem;
},
{
place = "{417.99, 108}";
type = Stem;
}
);
layerId = "6B8C0991-2F12-49E7-9CA3-B7242A37F482";
paths = (
{
closed = 1;
nodes = (
"245.3 507 OFFCURVE",
"184.78 468.43 OFFCURVE",
"147.99 411.59 CURVE",
"147.99 700 LINE",
"39.99 700 LINE",
"39.99 0 LINE",
"147.99 0 LINE",
"147.99 239.87 LINE SMOOTH",
"148.89 363.52 OFFCURVE",
"238.34 415 OFFCURVE",
"306.99 415 CURVE SMOOTH",
"389.99 415 OFFCURVE",
"417.99 364 OFFCURVE",
"417.99 296 CURVE SMOOTH",
"417.99 0 LINE",
"525.99 0 LINE",
"525.99 296 LINE SMOOTH",
"525.99 397 OFFCURVE",
"485.99 507 OFFCURVE",
"317.99 507 CURVE SMOOTH"
);
}
);
width = 571;
}
);
leftKerningGroup = b;
note = h;
rightKerningGroup = a;
unicode = 0068;
},
{
glyphname = i;
layers = (
{
hints = (
{
horizontal = 1;
place = "{592, 108}";
type = Stem;
},
{
place = "{70, 108}";
type = Stem;
}
);
layerId = "6B8C0991-2F12-49E7-9CA3-B7242A37F482";
paths = (
{
closed = 1;
nodes = (
"178 700 LINE",
"70 700 LINE",
"70 592 LINE",
"178 592 LINE"
);
},
{
closed = 1;
nodes = (
"178 500 LINE",
"70 500 LINE",
"70 0 LINE",
"178 0 LINE"
);
}
);
width = 248;
}
);
leftKerningGroup = i;
note = i;
rightKerningGroup = i;
unicode = 0069;
},
{
glyphname = dotlessi;
layers = (
{
hints = (
{
horizontal = 1;
place = "{0, 500}";
type = Stem;
},
{
place = "{70, 108}";
type = Stem;
}
);
layerId = "6B8C0991-2F12-49E7-9CA3-B7242A37F482";
paths = (
{
closed = 1;
nodes = (
"178 500 LINE",
"70 500 LINE",
"70 0 LINE",
"178 0 LINE"
);
}
);
width = 248;
}
);
leftKerningGroup = i;
note = dotlessi;
rightKerningGroup = i;
unicode = 0131;
},
{
glyphname = iacute;
layers = (
{
hints = (
{
horizontal = 1;
place = "{0, 765}";
type = Stem;
},
{
place = "{70, 108}";
type = Stem;
}
);
layerId = "6B8C0991-2F12-49E7-9CA3-B7242A37F482";
paths = (
{
closed = 1;
nodes = (
"1 593 LINE",
"89 566 LINE",
"246 664 LINE",
"185 765 LINE"
);
},
{
closed = 1;
nodes = (
"178 500 LINE",
"70 500 LINE",
"70 0 LINE",
"178 0 LINE"
);
}
);
width = 248;
}
);
leftKerningGroup = i;
note = iacute;
rightKerningGroup = i;
unicode = 00ED;
},
{
glyphname = icircumflex;
layers = (
{
hints = (
{
horizontal = 1;
place = "{0, 768}";
type = Stem;
},
{
place = "{70, 108}";
type = Stem;
}
);
layerId = "6B8C0991-2F12-49E7-9CA3-B7242A37F482";
paths = (
{
closed = 1;
nodes = (
"29 579 LINE",
"125 669.12 LINE",
"221 579 LINE",
"309 606 LINE",
"125 768 LINE",
"-59 606 LINE"
);
},
{
closed = 1;
nodes = (
"178 500 LINE",
"70 500 LINE",
"70 0 LINE",
"178 0 LINE"
);
}
);
width = 248;
}
);
leftKerningGroup = i;
note = icircumflex;
rightKerningGroup = i;
unicode = 00EE;
},
{
glyphname = idieresis;
layers = (
{
hints = (
{
horizontal = 1;
place = "{583, 108}";
type = Stem;
},
{
place = "{-54, 108}";
type = Stem;
},
{
place = "{70, 108}";
type = Stem;
},
{
place = "{194, 108}";
type = Stem;
}
);
layerId = "6B8C0991-2F12-49E7-9CA3-B7242A37F482";
paths = (
{
closed = 1;
nodes = (
"54 691 LINE",
"-54 691 LINE",
"-54 583 LINE",
"54 583 LINE"
);
},
{
closed = 1;
nodes = (
"302 691 LINE",
"194 691 LINE",
"194 583 LINE",
"302 583 LINE"
);
},
{
closed = 1;
nodes = (
"178 500 LINE",
"70 500 LINE",
"70 0 LINE",
"178 0 LINE"
);
}
);
width = 248;
}
);
leftKerningGroup = i;
note = idieresis;
rightKerningGroup = i;
unicode = 00EF;
},
{
glyphname = igrave;
layers = (
{
hints = (
{
horizontal = 1;
place = "{0, 765}";
type = Stem;
},
{
place = "{70, 108}";
type = Stem;
}
);
layerId = "6B8C0991-2F12-49E7-9CA3-B7242A37F482";
paths = (
{
closed = 1;
nodes = (
"243 593 LINE",
"59 765 LINE",
"-2 664 LINE",
"155 566 LINE"
);
},
{
closed = 1;
nodes = (
"178 500 LINE",
"70 500 LINE",
"70 0 LINE",
"178 0 LINE"
);
}
);
width = 248;
}
);
leftKerningGroup = i;
note = igrave;
rightKerningGroup = i;
unicode = 00EC;
},
{
glyphname = j;
layers = (
{
hints = (
{
horizontal = 1;
place = "{-260, 88}";
type = Stem;
},
{
horizontal = 1;
place = "{592, 108}";
type = Stem;
},
{
place = "{70, 108}";
type = Stem;
}
);
layerId = "6B8C0991-2F12-49E7-9CA3-B7242A37F482";
paths = (
{
closed = 1;
nodes = (
"70 700 LINE",
"70 592 LINE",
"178 592 LINE",
"178 700 LINE"
);
},
{
closed = 1;
nodes = (
"178 500 LINE",
"70 500 LINE",
"70 -63 LINE SMOOTH",
"70 -114 OFFCURVE",
"54 -172 OFFCURVE",
"-15 -172 CURVE SMOOTH",
"-64 -172 OFFCURVE",
"-101 -130 OFFCURVE",
"-107 -108 CURVE",
"-195 -171 LINE",
"-168 -208 OFFCURVE",
"-122 -260 OFFCURVE",
"-15 -260 CURVE SMOOTH",
"153 -260 OFFCURVE",
"178 -124 OFFCURVE",
"178 -63 CURVE SMOOTH"
);
}
);
width = 248;
}
);
leftKerningGroup = j;
note = j;
rightKerningGroup = j;
unicode = 006A;
},
{
glyphname = k;
layers = (
{
hints = (
{
horizontal = 1;
place = "{0, 700}";
type = Stem;
},
{
place = "{40, 108}";
type = Stem;
}
);
layerId = "6B8C0991-2F12-49E7-9CA3-B7242A37F482";
paths = (
{
closed = 1;
nodes = (
"148 0 LINE",
"148 175.7 LINE",
"221.29 251.39 LINE",
"387 0 LINE",
"515 0 LINE",
"297.91 330.54 LINE",
"462 500 LINE",
"325 500 LINE",
"148 311.73 LINE",
"148 700 LINE",
"40 700 LINE",
"40 0 LINE"
);
}
);
width = 511;
}
);
leftKerningGroup = b;
note = k;
rightKerningGroup = k;
unicode = 006B;
},
{
glyphname = l;
layers = (
{
hints = (
{
horizontal = 1;
place = "{0, 700}";
type = Stem;
},
{
place = "{60, 108}";
type = Stem;
}
);
layerId = "6B8C0991-2F12-49E7-9CA3-B7242A37F482";
paths = (
{
closed = 1;
nodes = (
"168 700 LINE",
"60 700 LINE",
"60 0 LINE",
"168 0 LINE"
);
}
);
width = 228;
}
);
leftKerningGroup = b;
note = l;
rightKerningGroup = l;
unicode = 006C;
},
{
glyphname = lslash;
layers = (
{
hints = (
{
horizontal = 1;
place = "{0, 700}";
type = Stem;
},
{
place = "{173, 108}";
type = Stem;
}
);
layerId = "6B8C0991-2F12-49E7-9CA3-B7242A37F482";
paths = (
{
closed = 1;
nodes = (
"281 0 LINE",
"281 360.27 LINE",
"402 395 LINE",
"401 500 LINE",
"281 465.56 LINE",
"281 700 LINE",
"173 700 LINE",
"173 434.56 LINE",
"70 405 LINE",
"71 300 LINE",
"173 329.27 LINE",
"173 0 LINE"
);
}
);
width = 472;
}
);
note = lslash;
unicode = 0142;
},
{
glyphname = m;
layers = (
{
hints = (
{
horizontal = 1;
place = "{414.99, 95}";
type = Stem;
},
{
place = "{39.99, 108}";
type = Stem;
},
{
place = "{403.99, 108}";
type = Stem;
},
{
place = "{772.99, 108}";
type = Stem;
}
);
layerId = "6B8C0991-2F12-49E7-9CA3-B7242A37F482";
paths = (
{
closed = 1;
nodes = (
"592.28 510 OFFCURVE",
"527.98 467.85 OFFCURVE",
"490.81 407.02 CURVE",
"464.48 465.31 OFFCURVE",
"409.75 509.99 OFFCURVE",
"305.99 509.99 CURVE SMOOTH",
"234.54 509.99 OFFCURVE",
"180.81 475.56 OFFCURVE",
"147.99 424.02 CURVE",
"147.99 499.99 LINE",
"39.99 499.99 LINE",
"39.99 -0.01 LINE",
"147.99 -0.01 LINE",
"147.99 237.99 LINE SMOOTH",
"147.99 362.99 OFFCURVE",
"227.99 414.99 OFFCURVE",
"294.99 414.99 CURVE SMOOTH",
"376.99 414.99 OFFCURVE",
"403.99 363.99 OFFCURVE",
"403.99 295.99 CURVE SMOOTH",
"403.99 -0.01 LINE",
"511.99 -0.01 LINE",
"511.99 237.99 LINE SMOOTH",
"511.99 362.99 OFFCURVE",
"592.99 414.99 OFFCURVE",
"661.99 414.99 CURVE SMOOTH",
"744.99 414.99 OFFCURVE",
"772.99 363.99 OFFCURVE",
"772.99 295.99 CURVE SMOOTH",
"772.99 -0.01 LINE",
"880.99 -0.01 LINE",
"880.99 295.99 LINE SMOOTH",
"880.99 396.99 OFFCURVE",
"840.99 509.99 OFFCURVE",
"672.99 509.99 CURVE SMOOTH"
);
}
);
width = 926;
}
);
leftKerningGroup = m;
note = m;
rightKerningGroup = a;
unicode = 006D;
},
{
glyphname = n;
layers = (
{
hints = (
{
horizontal = 1;
place = "{415, 92}";
type = Stem;
},
{
place = "{39.99, 108}";
type = Stem;
},
{
place = "{417.99, 108}";
type = Stem;
}
);
layerId = "6B8C0991-2F12-49E7-9CA3-B7242A37F482";
paths = (
{
closed = 1;
nodes = (
"245.3 507 OFFCURVE",
"184.78 468.43 OFFCURVE",
"147.99 411.59 CURVE",
"147.99 500 LINE",
"39.99 500 LINE",
"39.99 0 LINE",
"147.99 0 LINE",
"147.99 239.87 LINE SMOOTH",
"148.89 363.52 OFFCURVE",
"238.34 415 OFFCURVE",
"306.99 415 CURVE SMOOTH",
"389.99 415 OFFCURVE",
"417.99 364 OFFCURVE",
"417.99 296 CURVE SMOOTH",
"417.99 0 LINE",
"525.99 0 LINE",
"525.99 296 LINE SMOOTH",
"525.99 397 OFFCURVE",
"485.99 507 OFFCURVE",
"317.99 507 CURVE SMOOTH"
);
}
);
width = 571;
}
);
leftKerningGroup = m;
note = n;
rightKerningGroup = a;
unicode = 006E;
},
{
glyphname = ntilde;
layers = (
{
hints = (
{
horizontal = 1;
place = "{414.99, 92}";
type = Stem;
},
{
horizontal = 1;
place = "{587.99, 160}";
type = Stem;
},
{
place = "{39.99, 108}";
type = Stem;
},
{
place = "{388.06, 75.06}";
type = Stem;
},
{
horizontal = 1;
place = "{588, 61}";
type = Stem;
},
{
place = "{91, 72.93}";
type = Stem;
},
{
place = "{417.99, 108}";
type = Stem;
}
);
layerId = "6B8C0991-2F12-49E7-9CA3-B7242A37F482";
paths = (
{
closed = 1;
nodes = (
"327 748 LINE",
"365.87 720.13 OFFCURVE",
"388.06 679.89 OFFCURVE",
"388.06 660.41 CURVE SMOOTH",
"388.06 653.33 OFFCURVE",
"385.13 649 OFFCURVE",
"379 649 CURVE SMOOTH",
"354 649 OFFCURVE",
"311 689 OFFCURVE",
"288 706 CURVE SMOOTH",
"244 737 OFFCURVE",
"223 748 OFFCURVE",
"182 748 CURVE SMOOTH",
"122.83 748 OFFCURVE",
"91 706.39 OFFCURVE",
"91 661.84 CURVE SMOOTH",
"91 635.62 OFFCURVE",
"102.03 608.37 OFFCURVE",
"125 587.99 CURVE",
"225 587.99 LINE",
"186.13 615.86 OFFCURVE",
"163.93 661.48 OFFCURVE",
"163.93 683.83 CURVE SMOOTH",
"163.93 691.95 OFFCURVE",
"166.87 697 OFFCURVE",
"173 697 CURVE SMOOTH",
"199 697 OFFCURVE",
"242 647 OFFCURVE",
"281 619 CURVE SMOOTH",
"305 601 OFFCURVE",
"334 588 OFFCURVE",
"370 588 CURVE SMOOTH",
"428.83 588 OFFCURVE",
"463.12 633.26 OFFCURVE",
"463.12 677.69 CURVE SMOOTH",
"463.12 705.01 OFFCURVE",
"450.17 732.01 OFFCURVE",
"422 747.99 CURVE"
);
},
{
closed = 1;
nodes = (
"245.3 506.99 OFFCURVE",
"184.78 468.42 OFFCURVE",
"147.99 411.59 CURVE",
"147.99 499.99 LINE",
"39.99 499.99 LINE",
"39.99 -0.01 LINE",
"147.99 -0.01 LINE",
"147.99 239.86 LINE SMOOTH",
"148.89 363.51 OFFCURVE",
"238.34 414.99 OFFCURVE",
"306.99 414.99 CURVE SMOOTH",
"389.99 414.99 OFFCURVE",
"417.99 363.99 OFFCURVE",
"417.99 295.99 CURVE SMOOTH",
"417.99 -0.01 LINE",
"525.99 -0.01 LINE",
"525.99 295.99 LINE SMOOTH",
"525.99 396.99 OFFCURVE",
"485.99 506.99 OFFCURVE",
"317.99 506.99 CURVE SMOOTH"
);
}
);
width = 571;
}
);
leftKerningGroup = m;
note = ntilde;
rightKerningGroup = a;
unicode = 00F1;
},
{
glyphname = o;
layers = (
{
hints = (
{
horizontal = 1;
place = "{-12, 89}";
type = Stem;
},
{
horizontal = 1;
place = "{418, 92}";
type = Stem;
},
{
place = "{30, 106.29}";
type = Stem;
},
{
place = "{432.67, 106.3}";
type = Stem;
}
);
layerId = "6B8C0991-2F12-49E7-9CA3-B7242A37F482";
paths = (
{
closed = 1;
nodes = (
"434.91 -12 OFFCURVE",
"538.97 102 OFFCURVE",
"538.97 247 CURVE SMOOTH",
"538.97 393 OFFCURVE",
"434.91 510 OFFCURVE",
"284.48 510 CURVE SMOOTH",
"134.06 510 OFFCURVE",
"30 393 OFFCURVE",
"30 247 CURVE SMOOTH",
"30 102 OFFCURVE",
"134.06 -12 OFFCURVE",
"284.48 -12 CURVE SMOOTH"
);
},
{
closed = 1;
nodes = (
"196.2 77 OFFCURVE",
"136.29 148 OFFCURVE",
"136.29 247 CURVE SMOOTH",
"136.29 347 OFFCURVE",
"196.2 418 OFFCURVE",
"284.48 418 CURVE SMOOTH",
"372.77 418 OFFCURVE",
"432.67 347 OFFCURVE",
"432.67 247 CURVE SMOOTH",
"432.67 148 OFFCURVE",
"372.77 77 OFFCURVE",
"284.48 77 CURVE SMOOTH"
);
}
);
width = 569;
}
);
leftKerningGroup = a;
note = o;
rightKerningGroup = o;
unicode = 006F;
},
{
glyphname = oacute;
layers = (
{
hints = (
{
horizontal = 1;
place = "{-12, 89}";
type = Stem;
},
{
horizontal = 1;
place = "{418, 92}";
type = Stem;
},
{
place = "{30, 106.29}";
type = Stem;
},
{
place = "{432.67, 106.3}";
type = Stem;
}
);
layerId = "6B8C0991-2F12-49E7-9CA3-B7242A37F482";
paths = (
{
closed = 1;
nodes = (
"151.48 593 LINE",
"239.48 566 LINE",
"396.48 664 LINE",
"335.48 765 LINE"
);
},
{
closed = 1;
nodes = (
"434.91 -12 OFFCURVE",
"538.97 102 OFFCURVE",
"538.97 247 CURVE SMOOTH",
"538.97 393 OFFCURVE",
"434.91 510 OFFCURVE",
"284.48 510 CURVE SMOOTH",
"134.06 510 OFFCURVE",
"30 393 OFFCURVE",
"30 247 CURVE SMOOTH",
"30 102 OFFCURVE",
"134.06 -12 OFFCURVE",
"284.48 -12 CURVE SMOOTH"
);
},
{
closed = 1;
nodes = (
"196.2 77 OFFCURVE",
"136.29 148 OFFCURVE",
"136.29 247 CURVE SMOOTH",
"136.29 347 OFFCURVE",
"196.2 418 OFFCURVE",
"284.48 418 CURVE SMOOTH",
"372.77 418 OFFCURVE",
"432.67 347 OFFCURVE",
"432.67 247 CURVE SMOOTH",
"432.67 148 OFFCURVE",
"372.77 77 OFFCURVE",
"284.48 77 CURVE SMOOTH"
);
}
);
width = 569;
}
);
leftKerningGroup = a;
note = oacute;
rightKerningGroup = o;
unicode = 00F3;
},
{
glyphname = ocircumflex;
layers = (
{
hints = (
{
horizontal = 1;
place = "{-12, 89}";
type = Stem;
},
{
horizontal = 1;
place = "{418, 92}";
type = Stem;
},
{
place = "{30, 106.29}";
type = Stem;
},
{
place = "{432.67, 106.3}";
type = Stem;
}
);
layerId = "6B8C0991-2F12-49E7-9CA3-B7242A37F482";
paths = (
{
closed = 1;
nodes = (
"179.48 579 LINE",
"275.48 669.12 LINE",
"371.48 579 LINE",
"459.48 606 LINE",
"275.48 768 LINE",
"91.48 606 LINE"
);
},
{
closed = 1;
nodes = (
"434.91 -12 OFFCURVE",
"538.97 102 OFFCURVE",
"538.97 247 CURVE SMOOTH",
"538.97 393 OFFCURVE",
"434.91 510 OFFCURVE",
"284.48 510 CURVE SMOOTH",
"134.06 510 OFFCURVE",
"30 393 OFFCURVE",
"30 247 CURVE SMOOTH",
"30 102 OFFCURVE",
"134.06 -12 OFFCURVE",
"284.48 -12 CURVE SMOOTH"
);
},
{
closed = 1;
nodes = (
"196.2 77 OFFCURVE",
"136.29 148 OFFCURVE",
"136.29 247 CURVE SMOOTH",
"136.29 347 OFFCURVE",
"196.2 418 OFFCURVE",
"284.48 418 CURVE SMOOTH",
"372.77 418 OFFCURVE",
"432.67 347 OFFCURVE",
"432.67 247 CURVE SMOOTH",
"432.67 148 OFFCURVE",
"372.77 77 OFFCURVE",
"284.48 77 CURVE SMOOTH"
);
}
);
width = 569;
}
);
leftKerningGroup = a;
note = ocircumflex;
rightKerningGroup = o;
unicode = 00F4;
},
{
glyphname = odieresis;
layers = (
{
hints = (
{
horizontal = 1;
place = "{-12, 89}";
type = Stem;
},
{
horizontal = 1;
place = "{418, 92}";
type = Stem;
},
{
horizontal = 1;
place = "{583, 108}";
type = Stem;
},
{
place = "{96.48, 108}";
type = Stem;
},
{
place = "{344.48, 108}";
type = Stem;
},
{
place = "{30, 106.29}";
type = Stem;
},
{
place = "{432.67, 106.3}";
type = Stem;
}
);
layerId = "6B8C0991-2F12-49E7-9CA3-B7242A37F482";
paths = (
{
closed = 1;
nodes = (
"204.48 691 LINE",
"96.48 691 LINE",
"96.48 583 LINE",
"204.48 583 LINE"
);
},
{
closed = 1;
nodes = (
"452.48 691 LINE",
"344.48 691 LINE",
"344.48 583 LINE",
"452.48 583 LINE"
);
},
{
closed = 1;
nodes = (
"434.91 -12 OFFCURVE",
"538.97 102 OFFCURVE",
"538.97 247 CURVE SMOOTH",
"538.97 393 OFFCURVE",
"434.91 510 OFFCURVE",
"284.48 510 CURVE SMOOTH",
"134.06 510 OFFCURVE",
"30 393 OFFCURVE",
"30 247 CURVE SMOOTH",
"30 102 OFFCURVE",
"134.06 -12 OFFCURVE",
"284.48 -12 CURVE SMOOTH"
);
},
{
closed = 1;
nodes = (
"196.2 77 OFFCURVE",
"136.29 148 OFFCURVE",
"136.29 247 CURVE SMOOTH",
"136.29 347 OFFCURVE",
"196.2 418 OFFCURVE",
"284.48 418 CURVE SMOOTH",
"372.77 418 OFFCURVE",
"432.67 347 OFFCURVE",
"432.67 247 CURVE SMOOTH",
"432.67 148 OFFCURVE",
"372.77 77 OFFCURVE",
"284.48 77 CURVE SMOOTH"
);
}
);
width = 569;
}
);
leftKerningGroup = a;
note = odieresis;
rightKerningGroup = o;
unicode = 00F6;
},
{
glyphname = ograve;
layers = (
{
hints = (
{
horizontal = 1;
place = "{-12, 89}";
type = Stem;
},
{
horizontal = 1;
place = "{418, 92}";
type = Stem;
},
{
place = "{30, 106.29}";
type = Stem;
},
{
place = "{432.67, 106.3}";
type = Stem;
}
);
layerId = "6B8C0991-2F12-49E7-9CA3-B7242A37F482";
paths = (
{
closed = 1;
nodes = (
"393.48 593 LINE",
"209.48 765 LINE",
"148.48 664 LINE",
"305.48 566 LINE"
);
},
{
closed = 1;
nodes = (
"434.91 -12 OFFCURVE",
"538.97 102 OFFCURVE",
"538.97 247 CURVE SMOOTH",
"538.97 393 OFFCURVE",
"434.91 510 OFFCURVE",
"284.48 510 CURVE SMOOTH",
"134.06 510 OFFCURVE",
"30 393 OFFCURVE",
"30 247 CURVE SMOOTH",
"30 102 OFFCURVE",
"134.06 -12 OFFCURVE",
"284.48 -12 CURVE SMOOTH"
);
},
{
closed = 1;
nodes = (
"196.2 77 OFFCURVE",
"136.29 148 OFFCURVE",
"136.29 247 CURVE SMOOTH",
"136.29 347 OFFCURVE",
"196.2 418 OFFCURVE",
"284.48 418 CURVE SMOOTH",
"372.77 418 OFFCURVE",
"432.67 347 OFFCURVE",
"432.67 247 CURVE SMOOTH",
"432.67 148 OFFCURVE",
"372.77 77 OFFCURVE",
"284.48 77 CURVE SMOOTH"
);
}
);
width = 569;
}
);
leftKerningGroup = a;
note = ograve;
rightKerningGroup = o;
unicode = 00F2;
},
{
glyphname = oslash;
layers = (
{
hints = (
{
horizontal = 1;
place = "{-12.01, 89}";
type = Stem;
},
{
horizontal = 1;
place = "{417.03, 92.97}";
type = Stem;
},
{
place = "{29.99, 106.3}";
type = Stem;
},
{
place = "{432.67, 106.29}";
type = Stem;
}
);
layerId = "6B8C0991-2F12-49E7-9CA3-B7242A37F482";
paths = (
{
closed = 1;
nodes = (
"452 687 LINE",
"347 687 LINE",
"294.45 509.82 LINE",
"291.15 509.94 OFFCURVE",
"287.83 510 OFFCURVE",
"284.48 510 CURVE SMOOTH",
"134.05 510 OFFCURVE",
"29.99 393 OFFCURVE",
"29.99 247 CURVE SMOOTH",
"29.99 150.91 OFFCURVE",
"75.69 68.43 OFFCURVE",
"150.29 23.72 CURVE",
"96.99 -156.01 LINE",
"201.99 -156.01 LINE",
"245.48 -9.36 LINE",
"258.09 -11.11 OFFCURVE",
"271.1 -12.01 OFFCURVE",
"284.48 -12.01 CURVE SMOOTH",
"434.9 -12.01 OFFCURVE",
"538.96 101.99 OFFCURVE",
"538.96 246.99 CURVE SMOOTH",
"538.96 354.49 OFFCURVE",
"482.55 446.27 OFFCURVE",
"392.75 487.2 CURVE"
);
},
{
closed = 1;
nodes = (
"136.29 340.22 OFFCURVE",
"188.35 408.24 OFFCURVE",
"266.94 417.03 CURVE",
"179.54 122.32 LINE",
"152.14 152.57 OFFCURVE",
"136.29 196.08 OFFCURVE",
"136.29 247 CURVE SMOOTH"
);
},
{
closed = 1;
nodes = (
"280 77 OFFCURVE",
"275.59 77.18 OFFCURVE",
"271.26 77.54 CURVE",
"365.08 393.92 LINE",
"407.23 365.01 OFFCURVE",
"432.67 312.16 OFFCURVE",
"432.67 246.99 CURVE SMOOTH",
"432.67 147.99 OFFCURVE",
"372.77 76.99 OFFCURVE",
"284.48 76.99 CURVE SMOOTH"
);
}
);
width = 569;
}
);
note = oslash;
unicode = 00F8;
},
{
glyphname = otilde;
layers = (
{
hints = (
{
horizontal = 1;
place = "{-12.01, 89}";
type = Stem;
},
{
horizontal = 1;
place = "{417.99, 92}";
type = Stem;
},
{
horizontal = 1;
place = "{587.99, 160}";
type = Stem;
},
{
place = "{30, 106.29}";
type = Stem;
},
{
place = "{382.55, 75.06}";
type = Stem;
},
{
horizontal = 1;
place = "{588, 61}";
type = Stem;
},
{
place = "{85.48, 72.94}";
type = Stem;
},
{
place = "{432.67, 106.3}";
type = Stem;
}
);
layerId = "6B8C0991-2F12-49E7-9CA3-B7242A37F482";
paths = (
{
closed = 1;
nodes = (
"321.48 748 LINE",
"360.35 720.13 OFFCURVE",
"382.55 679.89 OFFCURVE",
"382.55 660.41 CURVE SMOOTH",
"382.55 653.33 OFFCURVE",
"379.61 649 OFFCURVE",
"373.48 649 CURVE SMOOTH",
"348.48 649 OFFCURVE",
"305.48 689 OFFCURVE",
"282.48 706 CURVE SMOOTH",
"238.48 737 OFFCURVE",
"217.48 748 OFFCURVE",
"176.48 748 CURVE SMOOTH",
"117.31 748 OFFCURVE",
"85.48 706.39 OFFCURVE",
"85.48 661.84 CURVE SMOOTH",
"85.48 635.62 OFFCURVE",
"96.51 608.37 OFFCURVE",
"119.48 587.99 CURVE",
"219.48 587.99 LINE",
"180.61 615.86 OFFCURVE",
"158.42 661.48 OFFCURVE",
"158.42 683.83 CURVE SMOOTH",
"158.42 691.95 OFFCURVE",
"161.35 697 OFFCURVE",
"167.48 697 CURVE SMOOTH",
"193.48 697 OFFCURVE",
"236.48 647 OFFCURVE",
"275.48 619 CURVE SMOOTH",
"299.48 601 OFFCURVE",
"328.48 588 OFFCURVE",
"364.48 588 CURVE SMOOTH",
"423.32 588 OFFCURVE",
"457.61 633.26 OFFCURVE",
"457.61 677.69 CURVE SMOOTH",
"457.61 705.01 OFFCURVE",
"444.65 732.01 OFFCURVE",
"416.48 747.99 CURVE"
);
},
{
closed = 1;
nodes = (
"434.91 -12.01 OFFCURVE",
"538.97 101.99 OFFCURVE",
"538.97 246.99 CURVE SMOOTH",
"538.97 392.99 OFFCURVE",
"434.91 509.99 OFFCURVE",
"284.48 509.99 CURVE SMOOTH",
"134.06 509.99 OFFCURVE",
"30 392.99 OFFCURVE",
"30 246.99 CURVE SMOOTH",
"30 101.99 OFFCURVE",
"134.06 -12.01 OFFCURVE",
"284.48 -12.01 CURVE SMOOTH"
);
},
{
closed = 1;
nodes = (
"196.2 76.99 OFFCURVE",
"136.29 147.99 OFFCURVE",
"136.29 246.99 CURVE SMOOTH",
"136.29 346.99 OFFCURVE",
"196.2 417.99 OFFCURVE",
"284.48 417.99 CURVE SMOOTH",
"372.77 417.99 OFFCURVE",
"432.67 346.99 OFFCURVE",
"432.67 246.99 CURVE SMOOTH",
"432.67 147.99 OFFCURVE",
"372.77 76.99 OFFCURVE",
"284.48 76.99 CURVE SMOOTH"
);
}
);
width = 569;
}
);
leftKerningGroup = a;
note = otilde;
unicode = 00F5;
},
{
glyphname = oe;
layers = (
{
hints = (
{
horizontal = 1;
place = "{-12, 89}";
type = Stem;
},
{
horizontal = 1;
place = "{224, 75}";
type = Stem;
},
{
horizontal = 1;
place = "{418, 92}";
type = Stem;
},
{
place = "{29.99, 106.3}";
type = Stem;
},
{
place = "{821.54, 111.35}";
type = Stem;
},
{
horizontal = 1;
place = "{422, 89}";
type = Stem;
}
);
layerId = "6B8C0991-2F12-49E7-9CA3-B7242A37F482";
paths = (
{
closed = 1;
nodes = (
"849 163 LINE",
"825 120 OFFCURVE",
"786 79 OFFCURVE",
"703 79 CURVE SMOOTH",
"629.27 79 OFFCURVE",
"561.34 124.57 OFFCURVE",
"549.74 224 CURVE",
"925 224 LINE",
"930.32 249.16 OFFCURVE",
"932.89 273.01 OFFCURVE",
"932.89 295.42 CURVE SMOOTH",
"932.89 428.89 OFFCURVE",
"841.7 511 OFFCURVE",
"697 511 CURVE SMOOTH",
"608.73 511 OFFCURVE",
"531.8 476.65 OFFCURVE",
"484.75 413.68 CURVE",
"439.77 472.59 OFFCURVE",
"369.54 510 OFFCURVE",
"284.48 510 CURVE SMOOTH",
"134.05 510 OFFCURVE",
"29.99 393 OFFCURVE",
"29.99 247 CURVE SMOOTH",
"29.99 102 OFFCURVE",
"134.05 -12 OFFCURVE",
"284.48 -12 CURVE SMOOTH",
"371.3 -12 OFFCURVE",
"442.67 25.98 OFFCURVE",
"487.51 85.98 CURVE",
"537.56 19.98 OFFCURVE",
"618.23 -12 OFFCURVE",
"702.99 -12 CURVE SMOOTH",
"821.99 -12 OFFCURVE",
"901.99 34 OFFCURVE",
"947.99 116 CURVE"
);
},
{
closed = 1;
nodes = (
"782.19 422 OFFCURVE",
"821.54 370.53 OFFCURVE",
"821.54 317.35 CURVE SMOOTH",
"821.54 311.23 OFFCURVE",
"821.02 305.09 OFFCURVE",
"819.99 299 CURVE",
"552.08 299 LINE",
"566.77 374.16 OFFCURVE",
"620.1 422 OFFCURVE",
"696.99 422 CURVE SMOOTH"
);
},
{
closed = 1;
nodes = (
"196.19 77 OFFCURVE",
"136.29 148 OFFCURVE",
"136.29 247 CURVE SMOOTH",
"136.29 347 OFFCURVE",
"196.19 418 OFFCURVE",
"284.48 418 CURVE SMOOTH",
"372.76 418 OFFCURVE",
"432.67 347 OFFCURVE",
"432.67 247 CURVE SMOOTH",
"432.67 148 OFFCURVE",
"372.76 77 OFFCURVE",
"284.48 77 CURVE SMOOTH"
);
}
);
width = 1013;
}
);
leftKerningGroup = a;
note = oe;
rightKerningGroup = ae;
unicode = 0153;
},
{
glyphname = p;
layers = (
{
layerId = "6B8C0991-2F12-49E7-9CA3-B7242A37F482";
paths = (
{
closed = 1;
nodes = (
"227.11 510 OFFCURVE",
"180.6 484.07 OFFCURVE",
"149 446.02 CURVE",
"149 500 LINE",
"41 500 LINE",
"40 -200 LINE",
"149 -200 LINE",
"149 51.55 LINE",
"180.6 13.77 OFFCURVE",
"227.11 -12 OFFCURVE",
"294 -12 CURVE SMOOTH",
"444 -12 OFFCURVE",
"543 101 OFFCURVE",
"543 248 CURVE SMOOTH",
"543 396 OFFCURVE",
"444 510 OFFCURVE",
"294 510 CURVE SMOOTH"
);
},
{
closed = 1;
nodes = (
"207 83 OFFCURVE",
"138 145 OFFCURVE",
"138 248 CURVE SMOOTH",
"138 353 OFFCURVE",
"207 414 OFFCURVE",
"294 414 CURVE SMOOTH",
"378 414 OFFCURVE",
"434 343 OFFCURVE",
"434 248 CURVE SMOOTH",
"434 155 OFFCURVE",
"378 83 OFFCURVE",
"294 83 CURVE SMOOTH"
);
}
);
width = 573;
}
);
leftKerningGroup = p;
note = p;
rightKerningGroup = p;
unicode = 0070;
},
{
glyphname = thorn;
layers = (
{
layerId = "6B8C0991-2F12-49E7-9CA3-B7242A37F482";
paths = (
{
closed = 1;
nodes = (
"227.11 510 OFFCURVE",
"180.6 484.07 OFFCURVE",
"149 446.02 CURVE",
"149 770 LINE",
"41 770 LINE",
"40 -200 LINE",
"149 -200 LINE",
"149 51.55 LINE",
"180.6 13.77 OFFCURVE",
"227.11 -12 OFFCURVE",
"294 -12 CURVE SMOOTH",
"444 -12 OFFCURVE",
"543 101 OFFCURVE",
"543 248 CURVE SMOOTH",
"543 396 OFFCURVE",
"444 510 OFFCURVE",
"294 510 CURVE SMOOTH"
);
},
{
closed = 1;
nodes = (
"207 83 OFFCURVE",
"138 145 OFFCURVE",
"138 248 CURVE SMOOTH",
"138 353 OFFCURVE",
"207 414 OFFCURVE",
"294 414 CURVE SMOOTH",
"378 414 OFFCURVE",
"434 343 OFFCURVE",
"434 248 CURVE SMOOTH",
"434 155 OFFCURVE",
"378 83 OFFCURVE",
"294 83 CURVE SMOOTH"
);
}
);
width = 563;
}
);
note = thorn;
unicode = 00FE;
},
{
glyphname = q;
layers = (
{
hints = (
{
horizontal = 1;
place = "{-12, 95}";
type = Stem;
},
{
horizontal = 1;
place = "{414, 96}";
type = Stem;
},
{
place = "{20, 109}";
type = Stem;
},
{
place = "{414, 108.5}";
type = Stem;
}
);
layerId = "6B8C0991-2F12-49E7-9CA3-B7242A37F482";
paths = (
{
closed = 1;
nodes = (
"414 -200 LINE",
"523 -200 LINE",
"522 500 LINE",
"414 500 LINE",
"414 446.02 LINE",
"382.4 484.06 OFFCURVE",
"335.89 510 OFFCURVE",
"269 510 CURVE SMOOTH",
"119 510 OFFCURVE",
"20 396 OFFCURVE",
"20 248 CURVE SMOOTH",
"20 101 OFFCURVE",
"119 -12 OFFCURVE",
"269 -12 CURVE SMOOTH",
"335.89 -12 OFFCURVE",
"382.4 13.76 OFFCURVE",
"414 51.54 CURVE"
);
},
{
closed = 1;
nodes = (
"185 83 OFFCURVE",
"129 155 OFFCURVE",
"129 248 CURVE SMOOTH",
"129 343 OFFCURVE",
"185 414 OFFCURVE",
"269 414 CURVE SMOOTH",
"356 414 OFFCURVE",
"425 353 OFFCURVE",
"425 248 CURVE SMOOTH",
"425 145 OFFCURVE",
"356 83 OFFCURVE",
"269 83 CURVE SMOOTH"
);
}
);
width = 563;
}
);
leftKerningGroup = a;
note = q;
rightKerningGroup = aacute;
unicode = 0071;
},
{
glyphname = r;
layers = (
{
hints = (
{
horizontal = 1;
place = "{415, 95}";
type = Stem;
},
{
place = "{40, 108}";
type = Stem;
},
{
place = "{348, 106}";
type = Stem;
}
);
layerId = "6B8C0991-2F12-49E7-9CA3-B7242A37F482";
paths = (
{
closed = 1;
nodes = (
"225.68 510 OFFCURVE",
"176.7 471.42 OFFCURVE",
"148 414.8 CURVE",
"148 500 LINE",
"40 500 LINE",
"40 0 LINE",
"148 0 LINE",
"148 238 LINE SMOOTH",
"148 363 OFFCURVE",
"219 415 OFFCURVE",
"277 415 CURVE SMOOTH",
"326 415 OFFCURVE",
"350 384 OFFCURVE",
"348 338 CURVE",
"454 338 LINE",
"460 426 OFFCURVE",
"416 510 OFFCURVE",
"288 510 CURVE SMOOTH"
);
}
);
width = 465;
}
);
leftKerningGroup = m;
note = r;
rightKerningGroup = r;
unicode = 0072;
},
{
glyphname = s;
layers = (
{
hints = (
{
horizontal = 1;
place = "{-12, 87}";
type = Stem;
},
{
horizontal = 1;
place = "{430, 81}";
type = Stem;
},
{
place = "{43, 99}";
type = Stem;
},
{
place = "{308, 103}";
type = Stem;
}
);
layerId = "6B8C0991-2F12-49E7-9CA3-B7242A37F482";
paths = (
{
closed = 1;
nodes = (
"138 75 OFFCURVE",
"93 131 OFFCURVE",
"83 190 CURVE",
"10 129 LINE",
"35 40 OFFCURVE",
"120 -12 OFFCURVE",
"214 -12 CURVE SMOOTH",
"346 -12 OFFCURVE",
"411 65 OFFCURVE",
"411 149 CURVE SMOOTH",
"411 257 OFFCURVE",
"286 289 OFFCURVE",
"226 307 CURVE SMOOTH",
"165 325 OFFCURVE",
"142 348 OFFCURVE",
"142 375 CURVE SMOOTH",
"142 405 OFFCURVE",
"168 430 OFFCURVE",
"212 430 CURVE SMOOTH",
"247 430 OFFCURVE",
"278 414 OFFCURVE",
"290 371 CURVE",
"379 409 LINE",
"359 477 OFFCURVE",
"292 511 OFFCURVE",
"212 511 CURVE SMOOTH",
"120 511 OFFCURVE",
"43 457 OFFCURVE",
"43 375 CURVE SMOOTH",
"43 285 OFFCURVE",
"116 253 OFFCURVE",
"196 229 CURVE SMOOTH",
"268 207 OFFCURVE",
"308 191 OFFCURVE",
"308 151 CURVE SMOOTH",
"308 107 OFFCURVE",
"272 75 OFFCURVE",
"214 75 CURVE SMOOTH"
);
}
);
width = 441;
}
);
leftKerningGroup = s;
note = s;
rightKerningGroup = s;
unicode = 0073;
},
{
glyphname = scaron;
layers = (
{
hints = (
{
horizontal = 1;
place = "{-12, 87}";
type = Stem;
},
{
horizontal = 1;
place = "{430, 81}";
type = Stem;
},
{
place = "{43, 99}";
type = Stem;
},
{
place = "{308, 103}";
type = Stem;
}
);
layerId = "6B8C0991-2F12-49E7-9CA3-B7242A37F482";
paths = (
{
closed = 1;
nodes = (
"38 721 LINE",
"222 559 LINE",
"406 721 LINE",
"318 748 LINE",
"222 657.88 LINE",
"126 748 LINE"
);
},
{
closed = 1;
nodes = (
"138 75 OFFCURVE",
"93 131 OFFCURVE",
"83 190 CURVE",
"10 129 LINE",
"35 40 OFFCURVE",
"120 -12 OFFCURVE",
"214 -12 CURVE SMOOTH",
"346 -12 OFFCURVE",
"411 65 OFFCURVE",
"411 149 CURVE SMOOTH",
"411 257 OFFCURVE",
"286 289 OFFCURVE",
"226 307 CURVE SMOOTH",
"165 325 OFFCURVE",
"142 348 OFFCURVE",
"142 375 CURVE SMOOTH",
"142 405 OFFCURVE",
"168 430 OFFCURVE",
"212 430 CURVE SMOOTH",
"247 430 OFFCURVE",
"278 414 OFFCURVE",
"290 371 CURVE",
"379 409 LINE",
"359 477 OFFCURVE",
"292 511 OFFCURVE",
"212 511 CURVE SMOOTH",
"120 511 OFFCURVE",
"43 457 OFFCURVE",
"43 375 CURVE SMOOTH",
"43 285 OFFCURVE",
"116 253 OFFCURVE",
"196 229 CURVE SMOOTH",
"268 207 OFFCURVE",
"308 191 OFFCURVE",
"308 151 CURVE SMOOTH",
"308 107 OFFCURVE",
"272 75 OFFCURVE",
"214 75 CURVE SMOOTH"
);
}
);
width = 441;
}
);
leftKerningGroup = s;
note = scaron;
rightKerningGroup = s;
unicode = 0161;
},
{
glyphname = germandbls;
layers = (
{
hints = (
{
horizontal = 1;
place = "{0, 98}";
type = Stem;
},
{
horizontal = 1;
place = "{362, 79}";
type = Stem;
},
{
horizontal = 1;
place = "{602, 98}";
type = Stem;
},
{
place = "{45, 108}";
type = Stem;
},
{
place = "{467, 109}";
type = Stem;
},
{
place = "{353, 108}";
type = Stem;
}
);
layerId = "6B8C0991-2F12-49E7-9CA3-B7242A37F482";
paths = (
{
closed = 1;
nodes = (
"45 0 LINE",
"153 0 LINE",
"153 523 LINE SMOOTH",
"153 572 OFFCURVE",
"186 602 OFFCURVE",
"251 602 CURVE SMOOTH",
"320 602 OFFCURVE",
"353 572 OFFCURVE",
"353 523 CURVE SMOOTH",
"353 474 OFFCURVE",
"321 441 OFFCURVE",
"248 441 CURVE SMOOTH",
"235 441 LINE",
"235 362 LINE",
"304 362 LINE SMOOTH",
"402 362 OFFCURVE",
"467 313 OFFCURVE",
"467 222 CURVE SMOOTH",
"467 135 OFFCURVE",
"405 98 OFFCURVE",
"299 98 CURVE SMOOTH",
"260 98 OFFCURVE",
"209 117 OFFCURVE",
"193 128 CURVE",
"193 30 LINE",
"212 19 OFFCURVE",
"266 0 OFFCURVE",
"308 0 CURVE SMOOTH",
"461 0 OFFCURVE",
"576 71 OFFCURVE",
"576 222 CURVE SMOOTH",
"576 330 OFFCURVE",
"520 398 OFFCURVE",
"426 426 CURVE",
"448 452 OFFCURVE",
"461 486 OFFCURVE",
"461 533 CURVE SMOOTH",
"461 662 OFFCURVE",
"360 700 OFFCURVE",
"251 700 CURVE SMOOTH",
"138 700 OFFCURVE",
"45 662 OFFCURVE",
"45 531 CURVE SMOOTH"
);
}
);
width = 596;
}
);
leftKerningGroup = germandbls;
note = germandbls;
rightKerningGroup = germandbls;
unicode = 00DF;
},
{
glyphname = t;
layers = (
{
hints = (
{
horizontal = 1;
place = "{-12, 89}";
type = Stem;
},
{
horizontal = 1;
place = "{400, 100}";
type = Stem;
},
{
place = "{100, 108}";
type = Stem;
}
);
layerId = "6B8C0991-2F12-49E7-9CA3-B7242A37F482";
paths = (
{
closed = 1;
nodes = (
"366 145 LINE",
"352 117 OFFCURVE",
"331 77 OFFCURVE",
"282 77 CURVE SMOOTH",
"234 77 OFFCURVE",
"208 109 OFFCURVE",
"208 157 CURVE SMOOTH",
"208 400 LINE",
"360 400 LINE",
"360 500 LINE",
"208 500 LINE",
"208 700 LINE",
"100 700 LINE",
"100 500 LINE",
"10 500 LINE",
"10 400 LINE",
"100 400 LINE",
"100 155 LINE SMOOTH",
"100 64 OFFCURVE",
"146 -12 OFFCURVE",
"282 -12 CURVE SMOOTH",
"370 -12 OFFCURVE",
"418 38 OFFCURVE",
"449 97 CURVE"
);
}
);
width = 459;
}
);
leftKerningGroup = t;
note = t;
rightKerningGroup = t;
unicode = 0074;
},
{
glyphname = u;
layers = (
{
hints = (
{
horizontal = 1;
place = "{-7, 92}";
type = Stem;
},
{
place = "{40, 108}";
type = Stem;
},
{
place = "{408, 108}";
type = Stem;
}
);
layerId = "6B8C0991-2F12-49E7-9CA3-B7242A37F482";
paths = (
{
closed = 1;
nodes = (
"408 0 LINE",
"516 0 LINE",
"516 500 LINE",
"408 500 LINE",
"408 262 LINE SMOOTH",
"408 115 OFFCURVE",
"328 85 OFFCURVE",
"259 85 CURVE SMOOTH",
"176 85 OFFCURVE",
"148 136 OFFCURVE",
"148 204 CURVE SMOOTH",
"148 500 LINE",
"40 500 LINE",
"40 204 LINE SMOOTH",
"40 103 OFFCURVE",
"80 -7 OFFCURVE",
"248 -7 CURVE SMOOTH",
"316.13 -7 OFFCURVE",
"372.55 17.45 OFFCURVE",
"408 63.92 CURVE"
);
}
);
width = 576;
}
);
leftKerningGroup = m;
note = u;
rightKerningGroup = a;
unicode = 0075;
},
{
glyphname = uacute;
layers = (
{
hints = (
{
horizontal = 1;
place = "{-7, 92}";
type = Stem;
},
{
place = "{40, 108}";
type = Stem;
},
{
place = "{408, 108}";
type = Stem;
}
);
layerId = "6B8C0991-2F12-49E7-9CA3-B7242A37F482";
paths = (
{
closed = 1;
nodes = (
"155 593 LINE",
"243 566 LINE",
"400 664 LINE",
"339 765 LINE"
);
},
{
closed = 1;
nodes = (
"408 0 LINE",
"516 0 LINE",
"516 500 LINE",
"408 500 LINE",
"408 262 LINE SMOOTH",
"408 115 OFFCURVE",
"328 85 OFFCURVE",
"259 85 CURVE SMOOTH",
"176 85 OFFCURVE",
"148 136 OFFCURVE",
"148 204 CURVE SMOOTH",
"148 500 LINE",
"40 500 LINE",
"40 204 LINE SMOOTH",
"40 103 OFFCURVE",
"80 -7 OFFCURVE",
"248 -7 CURVE SMOOTH",
"316.13 -7 OFFCURVE",
"372.55 17.45 OFFCURVE",
"408 63.92 CURVE"
);
}
);
width = 576;
}
);
leftKerningGroup = m;
note = uacute;
rightKerningGroup = aacute;
unicode = 00FA;
},
{
glyphname = ucircumflex;
layers = (
{
hints = (
{
horizontal = 1;
place = "{-7, 92}";
type = Stem;
},
{
place = "{40, 108}";
type = Stem;
},
{
place = "{408, 108}";
type = Stem;
}
);
layerId = "6B8C0991-2F12-49E7-9CA3-B7242A37F482";
paths = (
{
closed = 1;
nodes = (
"183 579 LINE",
"279 669.12 LINE",
"375 579 LINE",
"463 606 LINE",
"279 768 LINE",
"95 606 LINE"
);
},
{
closed = 1;
nodes = (
"408 0 LINE",
"516 0 LINE",
"516 500 LINE",
"408 500 LINE",
"408 262 LINE SMOOTH",
"408 115 OFFCURVE",
"328 85 OFFCURVE",
"259 85 CURVE SMOOTH",
"176 85 OFFCURVE",
"148 136 OFFCURVE",
"148 204 CURVE SMOOTH",
"148 500 LINE",
"40 500 LINE",
"40 204 LINE SMOOTH",
"40 103 OFFCURVE",
"80 -7 OFFCURVE",
"248 -7 CURVE SMOOTH",
"316.13 -7 OFFCURVE",
"372.55 17.45 OFFCURVE",
"408 63.92 CURVE"
);
}
);
width = 576;
}
);
leftKerningGroup = m;
note = ucircumflex;
rightKerningGroup = aacute;
unicode = 00FB;
},
{
glyphname = udieresis;
layers = (
{
hints = (
{
horizontal = 1;
place = "{-7, 92}";
type = Stem;
},
{
horizontal = 1;
place = "{583, 108}";
type = Stem;
},
{
place = "{100, 108}";
type = Stem;
},
{
place = "{348, 108}";
type = Stem;
},
{
place = "{40, 108}";
type = Stem;
},
{
place = "{408, 108}";
type = Stem;
}
);
layerId = "6B8C0991-2F12-49E7-9CA3-B7242A37F482";
paths = (
{
closed = 1;
nodes = (
"208 691 LINE",
"100 691 LINE",
"100 583 LINE",
"208 583 LINE"
);
},
{
closed = 1;
nodes = (
"456 691 LINE",
"348 691 LINE",
"348 583 LINE",
"456 583 LINE"
);
},
{
closed = 1;
nodes = (
"408 0 LINE",
"516 0 LINE",
"516 500 LINE",
"408 500 LINE",
"408 262 LINE SMOOTH",
"408 115 OFFCURVE",
"328 85 OFFCURVE",
"259 85 CURVE SMOOTH",
"176 85 OFFCURVE",
"148 136 OFFCURVE",
"148 204 CURVE SMOOTH",
"148 500 LINE",
"40 500 LINE",
"40 204 LINE SMOOTH",
"40 103 OFFCURVE",
"80 -7 OFFCURVE",
"248 -7 CURVE SMOOTH",
"316.13 -7 OFFCURVE",
"372.55 17.45 OFFCURVE",
"408 63.92 CURVE"
);
}
);
width = 576;
}
);
leftKerningGroup = m;
note = udieresis;
rightKerningGroup = aacute;
unicode = 00FC;
},
{
glyphname = ugrave;
layers = (
{
hints = (
{
horizontal = 1;
place = "{-7, 92}";
type = Stem;
},
{
place = "{40, 108}";
type = Stem;
},
{
place = "{408, 108}";
type = Stem;
}
);
layerId = "6B8C0991-2F12-49E7-9CA3-B7242A37F482";
paths = (
{
closed = 1;
nodes = (
"397 593 LINE",
"213 765 LINE",
"152 664 LINE",
"309 566 LINE"
);
},
{
closed = 1;
nodes = (
"408 0 LINE",
"516 0 LINE",
"516 500 LINE",
"408 500 LINE",
"408 262 LINE SMOOTH",
"408 115 OFFCURVE",
"328 85 OFFCURVE",
"259 85 CURVE SMOOTH",
"176 85 OFFCURVE",
"148 136 OFFCURVE",
"148 204 CURVE SMOOTH",
"148 500 LINE",
"40 500 LINE",
"40 204 LINE SMOOTH",
"40 103 OFFCURVE",
"80 -7 OFFCURVE",
"248 -7 CURVE SMOOTH",
"316.13 -7 OFFCURVE",
"372.55 17.45 OFFCURVE",
"408 63.92 CURVE"
);
}
);
width = 576;
}
);
leftKerningGroup = m;
note = ugrave;
rightKerningGroup = aacute;
unicode = 00F9;
},
{
glyphname = v;
layers = (
{
hints = (
{
horizontal = 1;
place = "{0, 500}";
type = Stem;
},
{
place = "{10, 526}";
type = Stem;
}
);
layerId = "6B8C0991-2F12-49E7-9CA3-B7242A37F482";
paths = (
{
closed = 1;
nodes = (
"211 0 LINE",
"335 0 LINE",
"536 500 LINE",
"428 500 LINE",
"273 114.43 LINE",
"118 500 LINE",
"10 500 LINE"
);
}
);
width = 546;
}
);
leftKerningGroup = v;
note = v;
rightKerningGroup = v;
unicode = 0076;
},
{
glyphname = w;
layers = (
{
hints = (
{
horizontal = 1;
place = "{0, 500}";
type = Stem;
},
{
place = "{20, 666}";
type = Stem;
}
);
layerId = "6B8C0991-2F12-49E7-9CA3-B7242A37F482";
paths = (
{
closed = 1;
nodes = (
"435 0 LINE",
"543 0 LINE",
"686 500 LINE",
"578 500 LINE",
"489 165.41 LINE",
"400 500 LINE",
"306 500 LINE",
"217 165.41 LINE",
"128 500 LINE",
"20 500 LINE",
"163 0 LINE",
"271 0 LINE",
"353 325 LINE"
);
}
);
width = 706;
}
);
leftKerningGroup = w;
note = w;
rightKerningGroup = w;
unicode = 0077;
},
{
glyphname = x;
layers = (
{
hints = (
{
horizontal = 1;
place = "{0, 500}";
type = Stem;
},
{
place = "{20, 541}";
type = Stem;
}
);
layerId = "6B8C0991-2F12-49E7-9CA3-B7242A37F482";
paths = (
{
closed = 1;
nodes = (
"158 0 LINE",
"292.58 171.12 LINE",
"424 0 LINE",
"561 0 LINE",
"364.84 254.09 LINE",
"558 500 LINE",
"420 500 LINE",
"296.5 342.61 LINE",
"175 500 LINE",
"40 500 LINE",
"224.27 260.06 LINE",
"20 0 LINE"
);
}
);
width = 590;
}
);
leftKerningGroup = x;
note = x;
rightKerningGroup = x;
unicode = 0078;
},
{
glyphname = y;
layers = (
{
hints = (
{
horizontal = 1;
place = "{-200, 700}";
type = Stem;
},
{
place = "{15, 507}";
type = Stem;
}
);
layerId = "6B8C0991-2F12-49E7-9CA3-B7242A37F482";
paths = (
{
closed = 1;
nodes = (
"122 -200 LINE",
"236 -200 LINE",
"522 500 LINE",
"409 500 LINE",
"284.42 196.14 LINE",
"139 500 LINE",
"15 500 LINE",
"230.14 63.76 LINE"
);
}
);
width = 532;
}
);
leftKerningGroup = y;
note = y;
rightKerningGroup = y;
unicode = 0079;
},
{
glyphname = yacute;
layers = (
{
hints = (
{
horizontal = 1;
place = "{-200, 965}";
type = Stem;
},
{
place = "{15, 507}";
type = Stem;
}
);
layerId = "6B8C0991-2F12-49E7-9CA3-B7242A37F482";
paths = (
{
closed = 1;
nodes = (
"143 593 LINE",
"231 566 LINE",
"388 664 LINE",
"327 765 LINE"
);
},
{
closed = 1;
nodes = (
"122 -200 LINE",
"236 -200 LINE",
"522 500 LINE",
"409 500 LINE",
"284.42 196.14 LINE",
"139 500 LINE",
"15 500 LINE",
"230.14 63.76 LINE"
);
}
);
width = 532;
}
);
leftKerningGroup = y;
note = yacute;
rightKerningGroup = y;
unicode = 00FD;
},
{
glyphname = ydieresis;
layers = (
{
hints = (
{
horizontal = 1;
place = "{583, 108}";
type = Stem;
},
{
place = "{88, 108}";
type = Stem;
},
{
place = "{336, 108}";
type = Stem;
}
);
layerId = "6B8C0991-2F12-49E7-9CA3-B7242A37F482";
paths = (
{
closed = 1;
nodes = (
"196 691 LINE",
"88 691 LINE",
"88 583 LINE",
"196 583 LINE"
);
},
{
closed = 1;
nodes = (
"444 691 LINE",
"336 691 LINE",
"336 583 LINE",
"444 583 LINE"
);
},
{
closed = 1;
nodes = (
"122 -200 LINE",
"236 -200 LINE",
"522 500 LINE",
"409 500 LINE",
"284.42 196.14 LINE",
"139 500 LINE",
"15 500 LINE",
"230.14 63.76 LINE"
);
}
);
width = 532;
}
);
leftKerningGroup = y;
note = ydieresis;
rightKerningGroup = y;
unicode = 00FF;
},
{
glyphname = z;
layers = (
{
hints = (
{
horizontal = 1;
place = "{0, 100}";
type = Stem;
},
{
horizontal = 1;
place = "{400, 100}";
type = Stem;
},
{
place = "{20, 449}";
type = Stem;
}
);
layerId = "6B8C0991-2F12-49E7-9CA3-B7242A37F482";
paths = (
{
closed = 1;
nodes = (
"20 0 LINE",
"469 0 LINE",
"469 100 LINE",
"157.75 100 LINE",
"451 400 LINE",
"451 500 LINE",
"35 500 LINE",
"35 400 LINE",
"313.25 400 LINE",
"20 100 LINE"
);
}
);
width = 489;
}
);
leftKerningGroup = z;
note = z;
rightKerningGroup = z;
unicode = 007A;
},
{
glyphname = zcaron;
layers = (
{
hints = (
{
horizontal = 1;
place = "{0, 100}";
type = Stem;
},
{
horizontal = 1;
place = "{400, 100}";
type = Stem;
},
{
place = "{20, 449}";
type = Stem;
}
);
layerId = "6B8C0991-2F12-49E7-9CA3-B7242A37F482";
paths = (
{
closed = 1;
nodes = (
"62 721 LINE",
"246 559 LINE",
"430 721 LINE",
"342 748 LINE",
"246 657.88 LINE",
"150 748 LINE"
);
},
{
closed = 1;
nodes = (
"20 0 LINE",
"469 0 LINE",
"469 100 LINE",
"157.75 100 LINE",
"451 400 LINE",
"451 500 LINE",
"35 500 LINE",
"35 400 LINE",
"313.25 400 LINE",
"20 100 LINE"
);
}
);
width = 489;
}
);
leftKerningGroup = z;
note = zcaron;
rightKerningGroup = z;
unicode = 017E;
},
{
glyphname = fi;
layers = (
{
hints = (
{
horizontal = 1;
place = "{400, 100}";
type = Stem;
},
{
horizontal = 1;
place = "{658, 88}";
type = Stem;
},
{
place = "{63, 88}";
type = Stem;
},
{
place = "{422, 108}";
type = Stem;
},
{
horizontal = 1;
place = "{582, 118}";
type = Stem;
},
{
place = "{93.5, 107.5}";
type = Stem;
}
);
layerId = "6B8C0991-2F12-49E7-9CA3-B7242A37F482";
paths = (
{
closed = 1;
nodes = (
"317 658 OFFCURVE",
"347 611 OFFCURVE",
"366 582 CURVE",
"530 582 LINE",
"530 700 LINE",
"379 700 LINE",
"366 714 OFFCURVE",
"315 746 OFFCURVE",
"248 746 CURVE SMOOTH",
"118 746 OFFCURVE",
"63 658 OFFCURVE",
"63 587 CURVE SMOOTH",
"63 564 OFFCURVE",
"67 529 OFFCURVE",
"89 500 CURVE",
"3 500 LINE",
"3 400 LINE",
"94 400 LINE",
"93 0 LINE",
"201 0 LINE",
"201 400 LINE",
"422 400 LINE",
"422 0 LINE",
"530 0 LINE",
"530 500 LINE",
"217 500 LINE",
"164 511 OFFCURVE",
"151 557 OFFCURVE",
"151 584 CURVE SMOOTH",
"151 634 OFFCURVE",
"204 658 OFFCURVE",
"248 658 CURVE SMOOTH"
);
}
);
width = 602;
}
);
leftKerningGroup = f;
note = fi;
rightKerningGroup = i;
unicode = FB01;
},
{
glyphname = fl;
layers = (
{
hints = (
{
horizontal = 1;
place = "{400, 100}";
type = Stem;
},
{
horizontal = 1;
place = "{658, 88}";
type = Stem;
},
{
place = "{93.5, 107.5}";
type = Stem;
},
{
place = "{507, 108}";
type = Stem;
},
{
place = "{45, 106}";
type = Stem;
}
);
layerId = "6B8C0991-2F12-49E7-9CA3-B7242A37F482";
paths = (
{
closed = 1;
nodes = (
"118 746 OFFCURVE",
"45 659 OFFCURVE",
"45 588 CURVE SMOOTH",
"45 549 OFFCURVE",
"59 519 OFFCURVE",
"85 500 CURVE",
"3 500 LINE",
"3 400 LINE",
"94 400 LINE",
"93 0 LINE",
"201 0 LINE",
"201 400 LINE",
"363 400 LINE",
"363 500 LINE",
"217 500 LINE",
"164 518 OFFCURVE",
"151 557 OFFCURVE",
"151 584 CURVE SMOOTH",
"151 634 OFFCURVE",
"204 658 OFFCURVE",
"248 658 CURVE SMOOTH",
"317 658 OFFCURVE",
"352 605 OFFCURVE",
"358 594 CURVE",
"446 647 LINE",
"419 684 OFFCURVE",
"357 746 OFFCURVE",
"248 746 CURVE SMOOTH"
);
},
{
closed = 1;
nodes = (
"615 700 LINE",
"507 700 LINE",
"507 0 LINE",
"615 0 LINE"
);
}
);
width = 675;
}
);
leftKerningGroup = f;
note = fl;
rightKerningGroup = l;
unicode = FB02;
},
{
glyphname = ordfeminine;
layers = (
{
hints = (
{
horizontal = 1;
place = "{372.72, 53.13}";
type = Stem;
},
{
horizontal = 1;
place = "{675.63, 57.27}";
type = Stem;
},
{
place = "{54.63, 83.85}";
type = Stem;
},
{
place = "{266.82, 74.52}";
type = Stem;
},
{
place = "{26.7, 77.97}";
type = Stem;
}
);
layerId = "6B8C0991-2F12-49E7-9CA3-B7242A37F482";
paths = (
{
closed = 1;
nodes = (
"120.1 732.9 OFFCURVE",
"54.63 686.1 OFFCURVE",
"54.63 630.05 CURVE SMOOTH",
"54.63 624.84 OFFCURVE",
"55.2 619.56 OFFCURVE",
"56.37 614.22 CURVE",
"138.48 613.53 LINE",
"135.03 621.81 OFFCURVE",
"143.92 675.63 OFFCURVE",
"205.33 675.63 CURVE SMOOTH",
"240.28 675.63 OFFCURVE",
"258.03 662.63 OFFCURVE",
"263.24 640.73 CURVE SMOOTH",
"264.03 637.37 OFFCURVE",
"264.44 634.13 OFFCURVE",
"264.44 631 CURVE SMOOTH",
"264.44 605.01 OFFCURVE",
"236.37 587.11 OFFCURVE",
"170.91 581.1 CURVE SMOOTH",
"63.16 571.22 OFFCURVE",
"26.7 530.04 OFFCURVE",
"26.7 477.6 CURVE SMOOTH",
"26.7 414.81 OFFCURVE",
"72.93 372.72 OFFCURVE",
"157.11 372.72 CURVE SMOOTH",
"209.72 372.72 OFFCURVE",
"245.22 395.6 OFFCURVE",
"266.82 426.94 CURVE",
"266.82 381 LINE",
"341.34 381 LINE",
"341.34 596.97 LINE SMOOTH",
"341.34 652.86 OFFCURVE",
"328.92 732.9 OFFCURVE",
"197.13 732.9 CURVE SMOOTH"
);
},
{
closed = 1;
nodes = (
"117.78 425.85 OFFCURVE",
"104.67 458.28 OFFCURVE",
"104.67 481.05 CURVE SMOOTH",
"104.67 510.72 OFFCURVE",
"133.65 529.35 OFFCURVE",
"174.36 534.18 CURVE SMOOTH",
"210.06 538.47 OFFCURVE",
"243.18 548.29 OFFCURVE",
"266.82 565.47 CURVE",
"266.82 538.32 LINE SMOOTH",
"266.82 458.28 OFFCURVE",
"219.21 425.85 OFFCURVE",
"166.77 425.85 CURVE SMOOTH"
);
}
);
width = 373;
}
);
note = ordfeminine;
unicode = 00AA;
},
{
glyphname = ordmasculine;
layers = (
{
hints = (
{
horizontal = 1;
place = "{368.72, 61.41}";
type = Stem;
},
{
horizontal = 1;
place = "{665.42, 63.48}";
type = Stem;
},
{
place = "{26.7, 73.34}";
type = Stem;
},
{
place = "{304.54, 73.35}";
type = Stem;
}
);
layerId = "6B8C0991-2F12-49E7-9CA3-B7242A37F482";
paths = (
{
closed = 1;
nodes = (
"306.09 368.72 OFFCURVE",
"377.89 447.38 OFFCURVE",
"377.89 547.43 CURVE SMOOTH",
"377.89 648.17 OFFCURVE",
"306.09 728.9 OFFCURVE",
"202.29 728.9 CURVE SMOOTH",
"98.5 728.9 OFFCURVE",
"26.7 648.17 OFFCURVE",
"26.7 547.43 CURVE SMOOTH",
"26.7 447.38 OFFCURVE",
"98.5 368.72 OFFCURVE",
"202.29 368.72 CURVE SMOOTH"
);
},
{
closed = 1;
nodes = (
"141.38 430.13 OFFCURVE",
"100.04 479.12 OFFCURVE",
"100.04 547.43 CURVE SMOOTH",
"100.04 616.43 OFFCURVE",
"141.38 665.42 OFFCURVE",
"202.29 665.42 CURVE SMOOTH",
"263.21 665.42 OFFCURVE",
"304.54 616.43 OFFCURVE",
"304.54 547.43 CURVE SMOOTH",
"304.54 479.12 OFFCURVE",
"263.21 430.13 OFFCURVE",
"202.29 430.13 CURVE SMOOTH"
);
}
);
width = 380;
}
);
note = ordmasculine;
unicode = 00BA;
},
{
glyphname = Delta;
layers = (
{
hints = (
{
horizontal = 1;
place = "{0, 115}";
type = Stem;
},
{
place = "{16, 620}";
type = Stem;
}
);
layerId = "6B8C0991-2F12-49E7-9CA3-B7242A37F482";
paths = (
{
closed = 1;
nodes = (
"16 0 LINE",
"636 0 LINE",
"636 115 LINE",
"383.5 698.84 LINE",
"384 700 LINE",
"268 700 LINE",
"268.5 698.84 LINE",
"16 115 LINE"
);
},
{
closed = 1;
nodes = (
"131 115 LINE",
"326 565.89 LINE",
"521 115 LINE"
);
}
);
width = 652;
}
);
note = Delta;
unicode = 0394;
},
{
glyphname = Omega;
layers = (
{
hints = (
{
horizontal = 1;
place = "{0, 110}";
type = Stem;
},
{
horizontal = 1;
place = "{607, 98}";
type = Stem;
},
{
place = "{30, 108}";
type = Stem;
},
{
place = "{620, 108}";
type = Stem;
},
{
place = "{16, 298}";
type = Stem;
},
{
place = "{443, 298}";
type = Stem;
}
);
layerId = "6B8C0991-2F12-49E7-9CA3-B7242A37F482";
paths = (
{
closed = 1;
nodes = (
"169 705 OFFCURVE",
"30 544 OFFCURVE",
"30 358 CURVE SMOOTH",
"30 266 OFFCURVE",
"61 173 OFFCURVE",
"135 110 CURVE",
"16 110 LINE",
"16 0 LINE",
"314 0 LINE",
"314 110 LINE",
"205 135 OFFCURVE",
"138 233 OFFCURVE",
"138 358 CURVE SMOOTH",
"138 498 OFFCURVE",
"234 607 OFFCURVE",
"379 607 CURVE SMOOTH",
"525 607 OFFCURVE",
"620 498 OFFCURVE",
"620 358 CURVE SMOOTH",
"620 233 OFFCURVE",
"552 134 OFFCURVE",
"443 110 CURVE",
"443 0 LINE",
"741 0 LINE",
"741 110 LINE",
"626 110 LINE",
"697 174 OFFCURVE",
"728 266 OFFCURVE",
"728 358 CURVE SMOOTH",
"728 544 OFFCURVE",
"589 705 OFFCURVE",
"379 705 CURVE SMOOTH"
);
}
);
width = 758;
}
);
note = Omega;
unicode = 03A9;
},
{
glyphname = mu;
layers = (
{
hints = (
{
horizontal = 1;
place = "{-7, 92}";
type = Stem;
},
{
place = "{40, 108}";
type = Stem;
},
{
place = "{408, 108}";
type = Stem;
}
);
layerId = "6B8C0991-2F12-49E7-9CA3-B7242A37F482";
paths = (
{
closed = 1;
nodes = (
"408 0 LINE",
"516 0 LINE",
"516 500 LINE",
"408 500 LINE",
"408 262 LINE SMOOTH",
"408 115 OFFCURVE",
"328 85 OFFCURVE",
"259 85 CURVE SMOOTH",
"176 85 OFFCURVE",
"148 136 OFFCURVE",
"148 204 CURVE SMOOTH",
"148 500 LINE",
"40 500 LINE",
"40 -200 LINE",
"148 -200 LINE",
"148 10.34 LINE",
"174.78 -0.67 OFFCURVE",
"207.71 -7 OFFCURVE",
"248 -7 CURVE SMOOTH",
"316.13 -7 OFFCURVE",
"372.55 17.46 OFFCURVE",
"408 63.93 CURVE"
);
}
);
width = 556;
}
);
note = mu;
unicode = 03BC;
},
{
glyphname = pi;
layers = (
{
hints = (
{
horizontal = 1;
place = "{387, 115}";
type = Stem;
},
{
place = "{107, 115}";
type = Stem;
},
{
place = "{379, 115}";
type = Stem;
}
);
layerId = "6B8C0991-2F12-49E7-9CA3-B7242A37F482";
paths = (
{
closed = 1;
nodes = (
"494 0 LINE",
"494 387 LINE",
"587 387 LINE",
"587 502 LINE",
"16 502 LINE",
"16 387 LINE",
"107 387 LINE",
"107 0 LINE",
"222 0 LINE",
"222 387 LINE",
"379 387 LINE",
"379 0 LINE"
);
}
);
width = 600;
}
);
note = pi;
unicode = 03C0;
},
{
glyphname = zero;
layers = (
{
hints = (
{
horizontal = 1;
place = "{-12, 94}";
type = Stem;
},
{
horizontal = 1;
place = "{614, 94}";
type = Stem;
},
{
place = "{30, 110}";
type = Stem;
},
{
place = "{512, 110}";
type = Stem;
}
);
layerId = "6B8C0991-2F12-49E7-9CA3-B7242A37F482";
paths = (
{
closed = 1;
nodes = (
"515 -12 OFFCURVE",
"622 135 OFFCURVE",
"622 348 CURVE SMOOTH",
"622 561 OFFCURVE",
"515 708 OFFCURVE",
"325 708 CURVE SMOOTH",
"136 708 OFFCURVE",
"30 561 OFFCURVE",
"30 348 CURVE SMOOTH",
"30 135 OFFCURVE",
"136 -12 OFFCURVE",
"325 -12 CURVE SMOOTH"
);
},
{
closed = 1;
nodes = (
"210 82 OFFCURVE",
"140 177 OFFCURVE",
"140 348 CURVE SMOOTH",
"140 519 OFFCURVE",
"210 614 OFFCURVE",
"325 614 CURVE SMOOTH",
"440 614 OFFCURVE",
"512 519 OFFCURVE",
"512 348 CURVE SMOOTH",
"512 177 OFFCURVE",
"440 82 OFFCURVE",
"325 82 CURVE SMOOTH"
);
}
);
width = 652;
}
);
note = zero;
rightKerningGroup = zero;
unicode = 0030;
},
{
glyphname = one;
layers = (
{
hints = (
{
horizontal = 1;
place = "{552, 74.85}";
type = Stem;
},
{
place = "{199, 108}";
type = Stem;
}
);
layerId = "6B8C0991-2F12-49E7-9CA3-B7242A37F482";
paths = (
{
closed = 1;
nodes = (
"199 0 LINE",
"307 0 LINE",
"307 700 LINE",
"199 700 LINE",
"199 653.97 OFFCURVE",
"156.97 626.85 OFFCURVE",
"91.09 626.85 CURVE SMOOTH",
"78.26 626.85 OFFCURVE",
"64.51 627.88 OFFCURVE",
"50 630 CURVE",
"50 552 LINE",
"199 552 LINE"
);
}
);
width = 377;
}
);
note = one;
rightKerningGroup = one;
unicode = 0031;
},
{
glyphname = two;
layers = (
{
hints = (
{
horizontal = 1;
place = "{0, 106}";
type = Stem;
},
{
horizontal = 1;
place = "{621, 91.99}";
type = Stem;
},
{
place = "{50.24, 109.76}";
type = Stem;
},
{
place = "{380.02, 108}";
type = Stem;
}
);
layerId = "6B8C0991-2F12-49E7-9CA3-B7242A37F482";
paths = (
{
closed = 1;
nodes = (
"160 536 LINE",
"160 582 OFFCURVE",
"189 621 OFFCURVE",
"268 621 CURVE SMOOTH",
"337.2 621 OFFCURVE",
"380.02 573.11 OFFCURVE",
"380.02 501.48 CURVE SMOOTH",
"380.02 310.63 OFFCURVE",
"97.5 200.79 OFFCURVE",
"31 94 CURVE",
"30 0 LINE",
"507 0 LINE",
"507 106 LINE",
"177 106 LINE",
"238.76 193.65 OFFCURVE",
"488.02 267.41 OFFCURVE",
"488.02 507.12 CURVE SMOOTH",
"488.02 625.7 OFFCURVE",
"415.1 712.99 OFFCURVE",
"268.01 712.99 CURVE SMOOTH",
"136.19 712.99 OFFCURVE",
"50.24 640.15 OFFCURVE",
"50.24 542.21 CURVE SMOOTH",
"50.24 536.88 OFFCURVE",
"50.49 531.47 OFFCURVE",
"51.01 525.99 CURVE"
);
}
);
width = 537;
}
);
note = two;
unicode = 0032;
},
{
glyphname = three;
layers = (
{
hints = (
{
horizontal = 1;
place = "{-10, 91}";
type = Stem;
},
{
horizontal = 1;
place = "{350, 76}";
type = Stem;
},
{
horizontal = 1;
place = "{609, 91}";
type = Stem;
},
{
place = "{20, 107}";
type = Stem;
},
{
place = "{400, 107}";
type = Stem;
}
);
layerId = "6B8C0991-2F12-49E7-9CA3-B7242A37F482";
paths = (
{
closed = 1;
nodes = (
"495 609 LINE",
"495 700 LINE",
"55 700 LINE",
"55 609 LINE",
"352 609 LINE",
"163 406 LINE",
"217 341 LINE",
"238 347 OFFCURVE",
"253 350 OFFCURVE",
"274 350 CURVE SMOOTH",
"348 350 OFFCURVE",
"400 302 OFFCURVE",
"400 216 CURVE SMOOTH",
"400 129 OFFCURVE",
"328 81 OFFCURVE",
"264 81 CURVE SMOOTH",
"179 81 OFFCURVE",
"127 119 OFFCURVE",
"127 216 CURVE",
"20 216 LINE",
"20 63 OFFCURVE",
"128 -10 OFFCURVE",
"264 -10 CURVE SMOOTH",
"379 -10 OFFCURVE",
"507 73 OFFCURVE",
"507 216 CURVE SMOOTH",
"507 346 OFFCURVE",
"418 418 OFFCURVE",
"316 426 CURVE"
);
}
);
width = 537;
}
);
note = three;
rightKerningGroup = three;
unicode = 0033;
},
{
glyphname = four;
layers = (
{
hints = (
{
horizontal = 1;
place = "{191.71, 97.29}";
type = Stem;
},
{
place = "{356, 108}";
type = Stem;
}
);
layerId = "6B8C0991-2F12-49E7-9CA3-B7242A37F482";
paths = (
{
closed = 1;
nodes = (
"464 0 LINE",
"464 191.21 LINE",
"577 191 LINE",
"577 289 LINE",
"464 289 LINE",
"464 700 LINE",
"376 700 LINE",
"45 289 LINE",
"44 192 LINE",
"356 191.41 LINE",
"356 0 LINE"
);
},
{
closed = 1;
nodes = (
"172 289 LINE",
"356 520.88 LINE",
"356 289 LINE"
);
}
);
width = 617;
}
);
note = four;
rightKerningGroup = four;
unicode = 0034;
},
{
glyphname = five;
layers = (
{
hints = (
{
horizontal = 1;
place = "{-10, 91}";
type = Stem;
},
{
horizontal = 1;
place = "{361, 91}";
type = Stem;
},
{
horizontal = 1;
place = "{592, 108}";
type = Stem;
},
{
place = "{102, 108}";
type = Stem;
},
{
place = "{445, 107}";
type = Stem;
},
{
place = "{61, 107}";
type = Stem;
}
);
layerId = "6B8C0991-2F12-49E7-9CA3-B7242A37F482";
paths = (
{
closed = 1;
nodes = (
"271.39 452 OFFCURVE",
"239.47 446.24 OFFCURVE",
"210 433.33 CURVE",
"210 592 LINE",
"515 592 LINE",
"515 700 LINE",
"102 700 LINE",
"102 317 LINE",
"210 317 LINE",
"235 349 OFFCURVE",
"268 361 OFFCURVE",
"304 361 CURVE SMOOTH",
"378 361 OFFCURVE",
"445 318 OFFCURVE",
"445 221 CURVE SMOOTH",
"445 134 OFFCURVE",
"378 81 OFFCURVE",
"304 81 CURVE SMOOTH",
"230 81 OFFCURVE",
"168 129 OFFCURVE",
"168 216 CURVE",
"61 216 LINE",
"61 73 OFFCURVE",
"179 -10 OFFCURVE",
"304 -10 CURVE SMOOTH",
"429 -10 OFFCURVE",
"552 78 OFFCURVE",
"552 221 CURVE SMOOTH",
"552 374 OFFCURVE",
"429 452 OFFCURVE",
"304 452 CURVE SMOOTH"
);
}
);
width = 600;
}
);
note = five;
rightKerningGroup = five;
unicode = 0035;
},
{
glyphname = six;
layers = (
{
hints = (
{
horizontal = 1;
place = "{-10, 92}";
type = Stem;
},
{
horizontal = 1;
place = "{351, 92}";
type = Stem;
},
{
place = "{29, 108}";
type = Stem;
},
{
place = "{408, 108}";
type = Stem;
}
);
layerId = "6B8C0991-2F12-49E7-9CA3-B7242A37F482";
paths = (
{
closed = 1;
nodes = (
"268.79 443 OFFCURVE",
"265.58 442.94 OFFCURVE",
"262.38 442.83 CURVE",
"422 700 LINE",
"290 700 LINE",
"64.2 339.1 LINE SMOOTH",
"42.1 305.63 OFFCURVE",
"29 264.64 OFFCURVE",
"29 217 CURVE SMOOTH",
"29 74 OFFCURVE",
"148 -10 OFFCURVE",
"273 -10 CURVE SMOOTH",
"398 -10 OFFCURVE",
"516 73 OFFCURVE",
"516 216 CURVE SMOOTH",
"516 359 OFFCURVE",
"397 443 OFFCURVE",
"272 443 CURVE SMOOTH"
);
},
{
closed = 1;
nodes = (
"198 82 OFFCURVE",
"137 129 OFFCURVE",
"137 216 CURVE SMOOTH",
"137 303 OFFCURVE",
"199 351 OFFCURVE",
"273 351 CURVE SMOOTH",
"347 351 OFFCURVE",
"408 304 OFFCURVE",
"408 217 CURVE SMOOTH",
"408 130 OFFCURVE",
"346 82 OFFCURVE",
"272 82 CURVE SMOOTH"
);
}
);
width = 547;
}
);
note = six;
unicode = 0036;
},
{
glyphname = seven;
layers = (
{
hints = (
{
horizontal = 1;
place = "{592, 108}";
type = Stem;
},
{
place = "{36, 458}";
type = Stem;
}
);
layerId = "6B8C0991-2F12-49E7-9CA3-B7242A37F482";
paths = (
{
closed = 1;
nodes = (
"36 0 LINE",
"164 0 LINE",
"494 700 LINE",
"46 700 LINE",
"46 592 LINE",
"323.54 592 LINE"
);
}
);
width = 504;
}
);
note = seven;
rightKerningGroup = seven;
unicode = 0037;
},
{
glyphname = eight;
layers = (
{
hints = (
{
horizontal = 1;
place = "{0, 88}";
type = Stem;
},
{
horizontal = 1;
place = "{347, 88}";
type = Stem;
},
{
horizontal = 1;
place = "{617, 88}";
type = Stem;
},
{
place = "{19.99, 108.01}";
type = Stem;
},
{
place = "{399, 107.99}";
type = Stem;
},
{
place = "{60, 108}";
type = Stem;
},
{
place = "{359, 108}";
type = Stem;
}
);
layerId = "6B8C0991-2F12-49E7-9CA3-B7242A37F482";
paths = (
{
closed = 1;
nodes = (
"442.31 425.42 OFFCURVE",
"467 468.58 OFFCURVE",
"467 525 CURVE SMOOTH",
"467 643 OFFCURVE",
"358 705 OFFCURVE",
"263 705 CURVE SMOOTH",
"168 705 OFFCURVE",
"60 644 OFFCURVE",
"60 526 CURVE SMOOTH",
"60 469.76 OFFCURVE",
"84.75 426.47 OFFCURVE",
"120.95 396.56 CURVE",
"61.31 360.18 OFFCURVE",
"19.99 299.07 OFFCURVE",
"19.99 218 CURVE SMOOTH",
"19.99 80 OFFCURVE",
"138.99 0 OFFCURVE",
"263.99 0 CURVE SMOOTH",
"388.99 0 OFFCURVE",
"506.99 79 OFFCURVE",
"506.99 217 CURVE SMOOTH",
"506.99 297.73 OFFCURVE",
"465.67 359.01 OFFCURVE",
"406.15 395.74 CURVE"
);
},
{
closed = 1;
nodes = (
"168 590 OFFCURVE",
"220 617 OFFCURVE",
"264 617 CURVE SMOOTH",
"308 617 OFFCURVE",
"359 591 OFFCURVE",
"359 526 CURVE SMOOTH",
"359 471 OFFCURVE",
"317 435 OFFCURVE",
"263 435 CURVE SMOOTH",
"209 435 OFFCURVE",
"168 471 OFFCURVE",
"168 525 CURVE SMOOTH"
);
},
{
closed = 1;
nodes = (
"189 88 OFFCURVE",
"128 133 OFFCURVE",
"128 217 CURVE SMOOTH",
"128 300 OFFCURVE",
"190 347 OFFCURVE",
"264 347 CURVE SMOOTH",
"338 347 OFFCURVE",
"399 301 OFFCURVE",
"399 218 CURVE SMOOTH",
"399 134 OFFCURVE",
"337 88 OFFCURVE",
"263 88 CURVE SMOOTH"
);
}
);
width = 527;
}
);
note = eight;
rightKerningGroup = eight;
unicode = 0038;
},
{
glyphname = nine;
layers = (
{
hints = (
{
horizontal = 1;
place = "{277, 88}";
type = Stem;
},
{
horizontal = 1;
place = "{624, 88}";
type = Stem;
},
{
place = "{67, 108}";
type = Stem;
},
{
place = "{446, 108}";
type = Stem;
}
);
layerId = "6B8C0991-2F12-49E7-9CA3-B7242A37F482";
paths = (
{
closed = 1;
nodes = (
"554 631 OFFCURVE",
"435 712 OFFCURVE",
"310 712 CURVE SMOOTH",
"185 712 OFFCURVE",
"67 632 OFFCURVE",
"67 495 CURVE SMOOTH",
"67 357 OFFCURVE",
"186 277 OFFCURVE",
"311 277 CURVE SMOOTH",
"318.17 277 OFFCURVE",
"325.31 277.26 OFFCURVE",
"332.41 277.77 CURVE",
"160 0 LINE",
"292 0 LINE",
"520.83 379.45 LINE",
"541.7 411.03 OFFCURVE",
"554 449.44 OFFCURVE",
"554 494 CURVE SMOOTH"
);
},
{
closed = 1;
nodes = (
"236 365 OFFCURVE",
"175 410 OFFCURVE",
"175 494 CURVE SMOOTH",
"175 577 OFFCURVE",
"237 624 OFFCURVE",
"311 624 CURVE SMOOTH",
"385 624 OFFCURVE",
"446 578 OFFCURVE",
"446 495 CURVE SMOOTH",
"446 411 OFFCURVE",
"384 365 OFFCURVE",
"310 365 CURVE SMOOTH"
);
}
);
width = 600;
}
);
note = nine;
rightKerningGroup = nine;
unicode = 0039;
},
{
glyphname = fraction;
layers = (
{
hints = (
{
horizontal = 1;
place = "{0, 749}";
type = Stem;
},
{
place = "{48, 696}";
type = Stem;
}
);
layerId = "6B8C0991-2F12-49E7-9CA3-B7242A37F482";
paths = (
{
closed = 1;
nodes = (
"48 0 LINE",
"166 0 LINE",
"744 749 LINE",
"626 749 LINE"
);
}
);
width = 784;
}
);
note = fraction;
unicode = 2044;
},
{
glyphname = onehalf;
layers = (
{
hints = (
{
horizontal = 1;
place = "{2, 86}";
type = Stem;
},
{
horizontal = 1;
place = "{388.01, 76.99}";
type = Stem;
},
{
horizontal = 1;
place = "{729, 68.39}";
type = Stem;
},
{
place = "{142.99, 105.01}";
type = Stem;
},
{
place = "{725.99, 105.02}";
type = Stem;
}
);
layerId = "6B8C0991-2F12-49E7-9CA3-B7242A37F482";
paths = (
{
closed = 1;
nodes = (
"143 406 LINE",
"248 406 LINE",
"248 861 LINE",
"142 861 LINE",
"142.61 857.38 OFFCURVE",
"142.92 853.82 OFFCURVE",
"142.92 850.34 CURVE SMOOTH",
"142.92 820.88 OFFCURVE",
"120.93 797.39 OFFCURVE",
"79.88 797.39 CURVE SMOOTH",
"79.08 797.39 OFFCURVE",
"78.28 797.4 OFFCURVE",
"77.47 797.42 CURVE SMOOTH",
"69.07 797.6 OFFCURVE",
"59.9 798.75 OFFCURVE",
"49.99 801 CURVE",
"49.99 729 LINE",
"142.99 729 LINE"
);
},
{
closed = 1;
nodes = (
"47.99 0 LINE",
"165.99 0 LINE",
"743.99 749 LINE",
"625.99 749 LINE"
);
},
{
closed = 1;
nodes = (
"583.6 465 OFFCURVE",
"520.87 410.97 OFFCURVE",
"520.87 347.34 CURVE SMOOTH",
"520.87 340.65 OFFCURVE",
"521.56 333.86 OFFCURVE",
"522.99 327.01 CURVE",
"627.99 337.01 LINE",
"624.99 369.01 OFFCURVE",
"634.99 388.01 OFFCURVE",
"674.99 388.01 CURVE SMOOTH",
"713.99 388.01 OFFCURVE",
"725.99 358.01 OFFCURVE",
"725.99 328.01 CURVE SMOOTH",
"723.99 207.01 OFFCURVE",
"546.99 142.01 OFFCURVE",
"508.99 70.01 CURVE",
"507.99 2.01 LINE",
"841.99 2.01 LINE",
"841.99 88.01 LINE",
"649.99 88.01 LINE",
"705.55 135.63 OFFCURVE",
"831.01 199.01 OFFCURVE",
"831.01 331.86 CURVE SMOOTH",
"831.01 393.57 OFFCURVE",
"789.97 465 OFFCURVE",
"674.99 465 CURVE SMOOTH"
);
}
);
width = 882;
}
);
note = onehalf;
unicode = 00BD;
},
{
glyphname = onequarter;
layers = (
{
hints = (
{
horizontal = 1;
place = "{89, 80}";
type = Stem;
},
{
horizontal = 1;
place = "{729, 68.39}";
type = Stem;
},
{
place = "{142.99, 105.01}";
type = Stem;
},
{
place = "{635.99, 105}";
type = Stem;
}
);
layerId = "6B8C0991-2F12-49E7-9CA3-B7242A37F482";
paths = (
{
closed = 1;
nodes = (
"143 406 LINE",
"248 406 LINE",
"248 861 LINE",
"142 861 LINE",
"142.61 857.38 OFFCURVE",
"142.92 853.82 OFFCURVE",
"142.92 850.34 CURVE SMOOTH",
"142.92 820.88 OFFCURVE",
"120.93 797.39 OFFCURVE",
"79.88 797.39 CURVE SMOOTH",
"79.08 797.39 OFFCURVE",
"78.28 797.4 OFFCURVE",
"77.47 797.42 CURVE SMOOTH",
"69.07 797.6 OFFCURVE",
"59.9 798.75 OFFCURVE",
"49.99 801 CURVE",
"49.99 729 LINE",
"142.99 729 LINE"
);
},
{
closed = 1;
nodes = (
"47.99 0 LINE",
"165.99 0 LINE",
"743.99 749 LINE",
"625.99 749 LINE"
);
},
{
closed = 1;
nodes = (
"740.99 0 LINE",
"740.99 89 LINE",
"810.99 89 LINE",
"810.99 169 LINE",
"740.99 169 LINE",
"740.99 455 LINE",
"651.99 455 LINE",
"412.99 160 LINE",
"411.99 89 LINE",
"635.99 89 LINE",
"635.99 0 LINE"
);
},
{
closed = 1;
nodes = (
"537.99 169 LINE",
"635.99 288.78 LINE",
"635.99 169 LINE"
);
}
);
width = 851;
}
);
note = onequarter;
unicode = 00BC;
},
{
glyphname = threequarters;
layers = (
{
hints = (
{
horizontal = 1;
place = "{89, 80}";
type = Stem;
},
{
horizontal = 1;
place = "{400, 76}";
type = Stem;
},
{
horizontal = 1;
place = "{784, 77}";
type = Stem;
},
{
place = "{20, 105}";
type = Stem;
},
{
place = "{256, 105}";
type = Stem;
},
{
place = "{636, 105}";
type = Stem;
}
);
layerId = "6B8C0991-2F12-49E7-9CA3-B7242A37F482";
paths = (
{
closed = 1;
nodes = (
"353 793 LINE",
"353 861 LINE",
"42 861 LINE",
"42 784 LINE",
"216 784 LINE",
"108 668 LINE",
"153 615 LINE",
"175 620 OFFCURVE",
"184 623 OFFCURVE",
"197 623 CURVE SMOOTH",
"231 623 OFFCURVE",
"256 600 OFFCURVE",
"256 550 CURVE SMOOTH",
"256 500 OFFCURVE",
"226 476 OFFCURVE",
"191 476 CURVE SMOOTH",
"146 476 OFFCURVE",
"122 497 OFFCURVE",
"125 560 CURVE",
"20 560 LINE",
"15 456 OFFCURVE",
"95 400 OFFCURVE",
"191 400 CURVE SMOOTH",
"277 400 OFFCURVE",
"361 458 OFFCURVE",
"361 550 CURVE SMOOTH",
"361 623 OFFCURVE",
"311 673 OFFCURVE",
"249 687 CURVE"
);
},
{
closed = 1;
nodes = (
"48 0 LINE",
"166 0 LINE",
"744 749 LINE",
"626 749 LINE"
);
},
{
closed = 1;
nodes = (
"741 0 LINE",
"741 89 LINE",
"811 89 LINE",
"811 169 LINE",
"741 169 LINE",
"741 455 LINE",
"652 455 LINE",
"413 160 LINE",
"412 89 LINE",
"636 89 LINE",
"636 0 LINE"
);
},
{
closed = 1;
nodes = (
"538 169 LINE",
"636 288.78 LINE",
"636 169 LINE"
);
}
);
width = 851;
}
);
note = threequarters;
unicode = 00BE;
},
{
glyphname = onesuperior;
layers = (
{
hints = (
{
horizontal = 1;
place = "{729, 68.39}";
type = Stem;
},
{
place = "{142.99, 105.01}";
type = Stem;
}
);
layerId = "6B8C0991-2F12-49E7-9CA3-B7242A37F482";
paths = (
{
closed = 1;
nodes = (
"143 406 LINE",
"248 406 LINE",
"248 861 LINE",
"142 861 LINE",
"142.61 857.38 OFFCURVE",
"142.92 853.82 OFFCURVE",
"142.92 850.34 CURVE SMOOTH",
"142.92 820.88 OFFCURVE",
"120.93 797.39 OFFCURVE",
"79.88 797.39 CURVE SMOOTH",
"79.08 797.39 OFFCURVE",
"78.28 797.4 OFFCURVE",
"77.47 797.42 CURVE SMOOTH",
"69.07 797.6 OFFCURVE",
"59.9 798.75 OFFCURVE",
"49.99 801 CURVE",
"49.99 729 LINE",
"142.99 729 LINE"
);
}
);
width = 318;
}
);
note = onesuperior;
unicode = 00B9;
},
{
glyphname = twosuperior;
layers = (
{
hints = (
{
horizontal = 1;
place = "{411, 86}";
type = Stem;
},
{
horizontal = 1;
place = "{797, 77}";
type = Stem;
},
{
place = "{306.99, 105.03}";
type = Stem;
}
);
layerId = "6B8C0991-2F12-49E7-9CA3-B7242A37F482";
paths = (
{
closed = 1;
nodes = (
"164.61 874 OFFCURVE",
"101.87 819.96 OFFCURVE",
"101.87 756.34 CURVE SMOOTH",
"101.87 749.65 OFFCURVE",
"102.57 742.85 OFFCURVE",
"103.99 736 CURVE",
"208.99 746 LINE",
"205.99 778 OFFCURVE",
"215.99 797 OFFCURVE",
"255.99 797 CURVE SMOOTH",
"294.99 797 OFFCURVE",
"306.99 767 OFFCURVE",
"306.99 737 CURVE SMOOTH",
"304.99 616 OFFCURVE",
"127.99 551 OFFCURVE",
"89.99 479 CURVE",
"88.99 411 LINE",
"422.99 411 LINE",
"422.99 497 LINE",
"230.99 497 LINE",
"286.56 544.63 OFFCURVE",
"412.02 608 OFFCURVE",
"412.02 740.85 CURVE SMOOTH",
"412.02 802.56 OFFCURVE",
"370.97 874 OFFCURVE",
"256 874 CURVE SMOOTH"
);
}
);
width = 473;
}
);
note = twosuperior;
unicode = 00B2;
},
{
glyphname = threesuperior;
layers = (
{
hints = (
{
horizontal = 1;
place = "{400, 76}";
type = Stem;
},
{
horizontal = 1;
place = "{784, 77}";
type = Stem;
},
{
place = "{20, 105}";
type = Stem;
},
{
place = "{256, 105}";
type = Stem;
}
);
layerId = "6B8C0991-2F12-49E7-9CA3-B7242A37F482";
paths = (
{
closed = 1;
nodes = (
"353 793 LINE",
"353 861 LINE",
"42 861 LINE",
"42 784 LINE",
"216 784 LINE",
"108 668 LINE",
"153 615 LINE",
"175 620 OFFCURVE",
"184 623 OFFCURVE",
"197 623 CURVE SMOOTH",
"231 623 OFFCURVE",
"256 600 OFFCURVE",
"256 550 CURVE SMOOTH",
"256 500 OFFCURVE",
"226 476 OFFCURVE",
"191 476 CURVE SMOOTH",
"146 476 OFFCURVE",
"122 497 OFFCURVE",
"125 560 CURVE",
"20 560 LINE",
"15 456 OFFCURVE",
"95 400 OFFCURVE",
"191 400 CURVE SMOOTH",
"277 400 OFFCURVE",
"361 458 OFFCURVE",
"361 550 CURVE SMOOTH",
"361 623 OFFCURVE",
"311 673 OFFCURVE",
"249 687 CURVE"
);
}
);
width = 391;
}
);
note = threesuperior;
unicode = 00B3;
},
{
glyphname = asterisk;
layers = (
{
hints = (
{
horizontal = 1;
place = "{409, 302}";
type = Stem;
},
{
place = "{271, 36}";
type = Stem;
}
);
layerId = "6B8C0991-2F12-49E7-9CA3-B7242A37F482";
paths = (
{
closed = 1;
nodes = (
"427 495 LINE",
"438 532 LINE",
"350.05 560.5 LINE",
"438 589 LINE",
"427 624 LINE",
"337.98 595.15 LINE",
"393 671 LINE",
"362 693 LINE",
"307 617.18 LINE",
"307 711 LINE",
"271 711 LINE",
"271 616.66 LINE",
"215 693 LINE",
"184 671 LINE",
"238.56 596.62 LINE",
"151 625 LINE",
"140 588 LINE",
"227.95 559.5 LINE",
"140 531 LINE",
"151 496 LINE",
"240.02 524.84 LINE",
"185 449 LINE",
"216 427 LINE",
"271 502.82 LINE",
"271 409 LINE",
"307 409 LINE",
"307 503.33 LINE",
"363 427 LINE",
"394 449 LINE",
"339.44 523.37 LINE"
);
}
);
width = 600;
}
);
note = asterisk;
unicode = 002A;
},
{
glyphname = backslash;
layers = (
{
hints = (
{
horizontal = 1;
place = "{-119, 843}";
type = Stem;
},
{
place = "{116, 355}";
type = Stem;
}
);
layerId = "6B8C0991-2F12-49E7-9CA3-B7242A37F482";
paths = (
{
closed = 1;
nodes = (
"366 -119 LINE",
"471 -119 LINE",
"221 724 LINE",
"116 724 LINE"
);
}
);
width = 600;
}
);
note = backslash;
rightKerningGroup = backslash;
unicode = 005C;
},
{
glyphname = periodcentered;
layers = (
{
hints = (
{
horizontal = 1;
place = "{223, 132}";
type = Stem;
},
{
place = "{234, 132}";
type = Stem;
}
);
layerId = "6B8C0991-2F12-49E7-9CA3-B7242A37F482";
paths = (
{
closed = 1;
nodes = (
"366 355 LINE",
"234 355 LINE",
"234 223 LINE",
"366 223 LINE"
);
}
);
width = 600;
}
);
note = periodcentered;
unicode = 00B7;
},
{
glyphname = bullet;
layers = (
{
hints = (
{
horizontal = 1;
place = "{99, 392}";
type = Stem;
},
{
place = "{104, 392}";
type = Stem;
}
);
layerId = "6B8C0991-2F12-49E7-9CA3-B7242A37F482";
paths = (
{
closed = 1;
nodes = (
"408 99 OFFCURVE",
"496 187 OFFCURVE",
"496 295 CURVE SMOOTH",
"496 403 OFFCURVE",
"408 491 OFFCURVE",
"300 491 CURVE SMOOTH",
"192 491 OFFCURVE",
"104 403 OFFCURVE",
"104 295 CURVE SMOOTH",
"104 187 OFFCURVE",
"192 99 OFFCURVE",
"300 99 CURVE SMOOTH"
);
}
);
width = 600;
}
);
note = bullet;
unicode = 2022;
},
{
glyphname = colon;
layers = (
{
hints = (
{
horizontal = 1;
place = "{-2, 133.06}";
type = Stem;
},
{
horizontal = 1;
place = "{397, 132}";
type = Stem;
},
{
place = "{69, 132}";
type = Stem;
}
);
layerId = "6B8C0991-2F12-49E7-9CA3-B7242A37F482";
paths = (
{
closed = 1;
nodes = (
"201 529 LINE",
"69 529 LINE",
"69 397 LINE",
"201 397 LINE"
);
},
{
closed = 1;
nodes = (
"201.61 131.05 LINE",
"68.55 131.05 LINE",
"68.55 -2.01 LINE",
"201.61 -2.01 LINE"
);
}
);
width = 270;
}
);
note = colon;
unicode = 003A;
},
{
glyphname = comma;
layers = (
{
hints = (
{
horizontal = 1;
place = "{-1, 132}";
type = Stem;
},
{
place = "{69, 132}";
type = Stem;
}
);
layerId = "6B8C0991-2F12-49E7-9CA3-B7242A37F482";
paths = (
{
closed = 1;
nodes = (
"201 131 LINE",
"69 131 LINE",
"69 -1 LINE",
"132 -1 LINE",
"131.98 -37.67 OFFCURVE",
"130.59 -74.24 OFFCURVE",
"86 -101 CURVE",
"86 -159 LINE",
"179.12 -135.22 OFFCURVE",
"200.6 -36.86 OFFCURVE",
"200.99 -1 CURVE SMOOTH"
);
}
);
width = 360;
}
);
leftKerningGroup = comma;
note = comma;
unicode = 002C;
},
{
glyphname = ellipsis;
layers = (
{
hints = (
{
horizontal = 1;
place = "{-1, 132}";
type = Stem;
},
{
place = "{69, 132}";
type = Stem;
},
{
place = "{304, 132}";
type = Stem;
},
{
place = "{531, 132}";
type = Stem;
}
);
layerId = "6B8C0991-2F12-49E7-9CA3-B7242A37F482";
paths = (
{
closed = 1;
nodes = (
"201 131 LINE",
"69 131 LINE",
"69 -1 LINE",
"201 -1 LINE"
);
},
{
closed = 1;
nodes = (
"436 131 LINE",
"304 131 LINE",
"304 -1 LINE",
"436 -1 LINE"
);
},
{
closed = 1;
nodes = (
"663 131 LINE",
"531 131 LINE",
"531 -1 LINE",
"663 -1 LINE"
);
}
);
width = 732;
}
);
leftKerningGroup = comma;
note = ellipsis;
unicode = 2026;
},
{
glyphname = exclam;
layers = (
{
hints = (
{
horizontal = 1;
place = "{-1, 132}";
type = Stem;
},
{
place = "{89, 132}";
type = Stem;
}
);
layerId = "6B8C0991-2F12-49E7-9CA3-B7242A37F482";
paths = (
{
closed = 1;
nodes = (
"89 583 LINE",
"110 203 LINE",
"200 203 LINE",
"221 583 LINE",
"221 730 LINE",
"89 730 LINE"
);
},
{
closed = 1;
nodes = (
"221 131 LINE",
"89 131 LINE",
"89 -1 LINE",
"221 -1 LINE"
);
}
);
width = 310;
}
);
leftKerningGroup = exclam;
note = exclam;
unicode = 0021;
},
{
glyphname = exclamdown;
layers = (
{
hints = (
{
horizontal = 1;
place = "{410, 132}";
type = Stem;
},
{
place = "{89, 132}";
type = Stem;
}
);
layerId = "6B8C0991-2F12-49E7-9CA3-B7242A37F482";
paths = (
{
closed = 1;
nodes = (
"221 410 LINE",
"221 542 LINE",
"89 542 LINE",
"89 410 LINE"
);
},
{
closed = 1;
nodes = (
"221 -189 LINE",
"221 -42 LINE",
"200 338 LINE",
"110 338 LINE",
"89 -42 LINE",
"89 -189 LINE"
);
}
);
width = 310;
}
);
note = exclamdown;
unicode = 00A1;
},
{
glyphname = numbersign;
layers = (
{
hints = (
{
horizontal = 1;
place = "{173, 104}";
type = Stem;
},
{
horizontal = 1;
place = "{456, 103}";
type = Stem;
},
{
place = "{35, 771}";
type = Stem;
}
);
layerId = "6B8C0991-2F12-49E7-9CA3-B7242A37F482";
paths = (
{
closed = 1;
nodes = (
"734 277 LINE",
"597.7 277 LINE",
"657.61 456 LINE",
"806 456 LINE",
"806 559 LINE",
"692.08 559 LINE",
"757 753 LINE",
"646 753 LINE",
"581.08 559 LINE",
"379.08 559 LINE",
"444 753 LINE",
"333 753 LINE",
"268.08 559 LINE",
"96 559 LINE",
"96 456 LINE",
"233.61 456 LINE",
"173.7 277 LINE",
"35 277 LINE",
"35 173 LINE",
"138.9 173 LINE",
"80 -3 LINE",
"191 -3 LINE",
"249.9 173 LINE",
"451.9 173 LINE",
"393 -3 LINE",
"504 -3 LINE",
"562.9 173 LINE",
"734 173 LINE"
);
},
{
closed = 1;
nodes = (
"284.7 277 LINE",
"344.61 456 LINE",
"546.61 456 LINE",
"486.7 277 LINE"
);
}
);
width = 823;
}
);
note = numbersign;
unicode = 0023;
},
{
glyphname = period;
layers = (
{
hints = (
{
horizontal = 1;
place = "{-1, 132}";
type = Stem;
},
{
place = "{69, 132}";
type = Stem;
}
);
layerId = "6B8C0991-2F12-49E7-9CA3-B7242A37F482";
paths = (
{
closed = 1;
nodes = (
"201 131 LINE",
"69 131 LINE",
"69 -1 LINE",
"201 -1 LINE"
);
}
);
width = 296;
}
);
leftKerningGroup = comma;
note = period;
rightKerningGroup = period;
unicode = 002E;
},
{
glyphname = question;
layers = (
{
hints = (
{
horizontal = 1;
place = "{-1, 132}";
type = Stem;
},
{
horizontal = 1;
place = "{193, 87}";
type = Stem;
},
{
horizontal = 1;
place = "{630, 90}";
type = Stem;
},
{
place = "{122, 107}";
type = Stem;
},
{
place = "{369, 104}";
type = Stem;
},
{
place = "{209, 132}";
type = Stem;
}
);
layerId = "6B8C0991-2F12-49E7-9CA3-B7242A37F482";
paths = (
{
closed = 1;
nodes = (
"333 630 OFFCURVE",
"369 600 OFFCURVE",
"369 556 CURVE SMOOTH",
"369 515 OFFCURVE",
"329 507 OFFCURVE",
"256 477 CURVE SMOOTH",
"206 456 OFFCURVE",
"122 420 OFFCURVE",
"122 330 CURVE SMOOTH",
"122 237 OFFCURVE",
"200 193 OFFCURVE",
"274 193 CURVE SMOOTH",
"345 193 OFFCURVE",
"392 227 OFFCURVE",
"420 306 CURVE",
"331 334 LINE",
"332 299 OFFCURVE",
"305 280 OFFCURVE",
"279 280 CURVE SMOOTH",
"248 280 OFFCURVE",
"229 300 OFFCURVE",
"229 330 CURVE SMOOTH",
"229 367 OFFCURVE",
"255 384 OFFCURVE",
"286 398 CURVE SMOOTH",
"344 425 OFFCURVE",
"473 449 OFFCURVE",
"473 558 CURVE SMOOTH",
"473 642 OFFCURVE",
"407 720 OFFCURVE",
"274 720 CURVE SMOOTH",
"179 720 OFFCURVE",
"84 667 OFFCURVE",
"58 578 CURVE",
"142 516 LINE",
"152 576 OFFCURVE",
"197 630 OFFCURVE",
"274 630 CURVE SMOOTH"
);
},
{
closed = 1;
nodes = (
"341 131 LINE",
"209 131 LINE",
"209 -1 LINE",
"341 -1 LINE"
);
}
);
width = 501;
}
);
leftKerningGroup = question;
note = question;
unicode = 003F;
},
{
glyphname = questiondown;
layers = (
{
hints = (
{
horizontal = 1;
place = "{-215, 90}";
type = Stem;
},
{
horizontal = 1;
place = "{225, 87}";
type = Stem;
},
{
horizontal = 1;
place = "{374, 132}";
type = Stem;
},
{
place = "{160, 132}";
type = Stem;
},
{
place = "{28, 104}";
type = Stem;
},
{
place = "{272, 107}";
type = Stem;
}
);
layerId = "6B8C0991-2F12-49E7-9CA3-B7242A37F482";
paths = (
{
closed = 1;
nodes = (
"160 374 LINE",
"292 374 LINE",
"292 506 LINE",
"160 506 LINE"
);
},
{
closed = 1;
nodes = (
"168 -125 OFFCURVE",
"132 -95 OFFCURVE",
"132 -51 CURVE SMOOTH",
"132 -10 OFFCURVE",
"172 -2 OFFCURVE",
"245 28 CURVE SMOOTH",
"295 49 OFFCURVE",
"379 85 OFFCURVE",
"379 175 CURVE SMOOTH",
"379 268 OFFCURVE",
"301 312 OFFCURVE",
"227 312 CURVE SMOOTH",
"156 312 OFFCURVE",
"109 278 OFFCURVE",
"81 199 CURVE",
"170 171 LINE",
"169 206 OFFCURVE",
"196 225 OFFCURVE",
"222 225 CURVE SMOOTH",
"253 225 OFFCURVE",
"272 205 OFFCURVE",
"272 175 CURVE SMOOTH",
"272 138 OFFCURVE",
"246 121 OFFCURVE",
"215 107 CURVE SMOOTH",
"157 80 OFFCURVE",
"28 56 OFFCURVE",
"28 -53 CURVE SMOOTH",
"28 -137 OFFCURVE",
"94 -215 OFFCURVE",
"227 -215 CURVE SMOOTH",
"322 -215 OFFCURVE",
"417 -162 OFFCURVE",
"443 -73 CURVE",
"359 -11 LINE",
"349 -71 OFFCURVE",
"304 -125 OFFCURVE",
"227 -125 CURVE SMOOTH"
);
}
);
width = 501;
}
);
note = questiondown;
unicode = 00BF;
},
{
glyphname = quotedbl;
layers = (
{
hints = (
{
horizontal = 1;
place = "{478, 272}";
type = Stem;
},
{
place = "{115.5, 121}";
type = Stem;
},
{
place = "{329.5, 121}";
type = Stem;
}
);
layerId = "6B8C0991-2F12-49E7-9CA3-B7242A37F482";
paths = (
{
closed = 1;
nodes = (
"242 750 LINE",
"110 750 LINE",
"121 478 LINE",
"231 478 LINE"
);
},
{
closed = 1;
nodes = (
"456 750 LINE",
"324 750 LINE",
"335 478 LINE",
"445 478 LINE"
);
}
);
width = 644;
}
);
note = quotedbl;
unicode = 0022;
},
{
glyphname = quotesingle;
layers = (
{
hints = (
{
horizontal = 1;
place = "{478, 272}";
type = Stem;
},
{
place = "{115.5, 121}";
type = Stem;
}
);
layerId = "6B8C0991-2F12-49E7-9CA3-B7242A37F482";
paths = (
{
closed = 1;
nodes = (
"242 750 LINE",
"110 750 LINE",
"121 478 LINE",
"231 478 LINE"
);
}
);
width = 342;
}
);
note = quotesingle;
rightKerningGroup = quotesingle;
unicode = 0027;
},
{
glyphname = semicolon;
layers = (
{
hints = (
{
horizontal = 1;
place = "{1, 132}";
type = Stem;
},
{
horizontal = 1;
place = "{385, 132}";
type = Stem;
},
{
place = "{94, 132}";
type = Stem;
},
{
place = "{74, 132}";
type = Stem;
}
);
layerId = "6B8C0991-2F12-49E7-9CA3-B7242A37F482";
paths = (
{
closed = 1;
nodes = (
"226 385 LINE",
"226 517 LINE",
"94 517 LINE",
"94 385 LINE"
);
},
{
closed = 1;
nodes = (
"206 133 LINE",
"74 133 LINE",
"74 1 LINE",
"137 1 LINE",
"136.98 -35.67 OFFCURVE",
"135.59 -72.24 OFFCURVE",
"91 -99 CURVE",
"91 -157 LINE",
"184.12 -133.22 OFFCURVE",
"205.6 -34.86 OFFCURVE",
"205.99 1 CURVE",
"206 1 LINE"
);
}
);
width = 385;
}
);
note = semicolon;
unicode = 003B;
},
{
glyphname = slash;
layers = (
{
hints = (
{
horizontal = 1;
place = "{-119, 843}";
type = Stem;
},
{
place = "{29, 355}";
type = Stem;
}
);
layerId = "6B8C0991-2F12-49E7-9CA3-B7242A37F482";
paths = (
{
closed = 1;
nodes = (
"134 -119 LINE",
"384 724 LINE",
"279 724 LINE",
"29 -119 LINE"
);
}
);
width = 413;
}
);
note = slash;
unicode = 002F;
},
{
glyphname = underscore;
layers = (
{
hints = (
{
horizontal = 1;
place = "{-177, 110}";
type = Stem;
},
{
place = "{8, 578}";
type = Stem;
}
);
layerId = "6B8C0991-2F12-49E7-9CA3-B7242A37F482";
paths = (
{
closed = 1;
nodes = (
"586 -67 LINE",
"8 -67 LINE",
"8 -177 LINE",
"586 -177 LINE"
);
}
);
width = 600;
}
);
note = underscore;
rightKerningGroup = underscore;
unicode = 005F;
},
{
glyphname = braceleft;
layers = (
{
hints = (
{
horizontal = 1;
place = "{-171.21, 89.7}";
type = Stem;
},
{
horizontal = 1;
place = "{252, 113}";
type = Stem;
},
{
horizontal = 1;
place = "{699.5, 89.68}";
type = Stem;
},
{
place = "{194, 110}";
type = Stem;
},
{
place = "{228.07, 109.21}";
type = Stem;
}
);
layerId = "6B8C0991-2F12-49E7-9CA3-B7242A37F482";
paths = (
{
closed = 1;
nodes = (
"363 788 LINE",
"354.7 788.79 OFFCURVE",
"346.66 789.18 OFFCURVE",
"338.89 789.18 CURVE SMOOTH",
"248.28 789.18 OFFCURVE",
"194 735.28 OFFCURVE",
"194 622 CURVE SMOOTH",
"194 529.85 OFFCURVE",
"227.11 451.57 OFFCURVE",
"227.11 411.48 CURVE SMOOTH",
"227.11 405.89 OFFCURVE",
"226.47 401.04 OFFCURVE",
"225 397 CURVE SMOOTH",
"215 368 OFFCURVE",
"198 365 OFFCURVE",
"149 365 CURVE",
"149 252 LINE",
"199 252 OFFCURVE",
"215 250 OFFCURVE",
"226 221 CURVE SMOOTH",
"227.44 217.04 OFFCURVE",
"228.07 212.29 OFFCURVE",
"228.07 206.81 CURVE SMOOTH",
"228.07 166.63 OFFCURVE",
"194 87.4 OFFCURVE",
"194 -5 CURVE SMOOTH",
"194 -118.14 OFFCURVE",
"248.15 -171.21 OFFCURVE",
"338.55 -171.21 CURVE SMOOTH",
"346.43 -171.21 OFFCURVE",
"354.58 -170.8 OFFCURVE",
"363 -170 CURVE",
"363 -79 LINE",
"354.78 -80.65 OFFCURVE",
"347.66 -81.51 OFFCURVE",
"341.51 -81.51 CURVE SMOOTH",
"310.28 -81.51 OFFCURVE",
"304 -59.31 OFFCURVE",
"304 -5 CURVE SMOOTH",
"304 66.2 OFFCURVE",
"337.28 142.52 OFFCURVE",
"337.28 206.55 CURVE SMOOTH",
"337.28 222.56 OFFCURVE",
"335.2 237.8 OFFCURVE",
"330 252 CURVE SMOOTH",
"320.35 277.21 OFFCURVE",
"304.98 295.55 OFFCURVE",
"286.58 308.84 CURVE",
"305.16 322.16 OFFCURVE",
"320.58 340.59 OFFCURVE",
"330 366 CURVE SMOOTH",
"335.2 380.2 OFFCURVE",
"337.28 395.44 OFFCURVE",
"337.28 411.44 CURVE SMOOTH",
"337.28 475.44 OFFCURVE",
"304 551.6 OFFCURVE",
"304 622 CURVE SMOOTH",
"304 677.17 OFFCURVE",
"310.99 699.5 OFFCURVE",
"341.9 699.5 CURVE SMOOTH",
"347.97 699.5 OFFCURVE",
"354.96 698.64 OFFCURVE",
"363 697 CURVE"
);
}
);
width = 512;
}
);
note = braceleft;
unicode = 007B;
},
{
glyphname = braceright;
layers = (
{
hints = (
{
horizontal = 1;
place = "{-171.21, 89.7}";
type = Stem;
},
{
horizontal = 1;
place = "{251.99, 113}";
type = Stem;
},
{
horizontal = 1;
place = "{699.5, 89.68}";
type = Stem;
},
{
place = "{224, 110}";
type = Stem;
},
{
place = "{190.72, 110.17}";
type = Stem;
}
);
layerId = "6B8C0991-2F12-49E7-9CA3-B7242A37F482";
paths = (
{
closed = 1;
nodes = (
"165 697 LINE",
"173.04 698.64 OFFCURVE",
"180.03 699.5 OFFCURVE",
"186.1 699.5 CURVE SMOOTH",
"217.01 699.5 OFFCURVE",
"224 677.17 OFFCURVE",
"224 622 CURVE SMOOTH",
"224 551.6 OFFCURVE",
"190.72 475.44 OFFCURVE",
"190.72 411.44 CURVE SMOOTH",
"190.72 395.44 OFFCURVE",
"192.8 380.2 OFFCURVE",
"198 366 CURVE SMOOTH",
"207.42 340.58 OFFCURVE",
"222.84 322.16 OFFCURVE",
"241.42 308.84 CURVE",
"223.02 295.54 OFFCURVE",
"207.65 277.21 OFFCURVE",
"198 251.99 CURVE SMOOTH",
"192.8 237.79 OFFCURVE",
"190.72 222.55 OFFCURVE",
"190.72 206.54 CURVE SMOOTH",
"190.72 142.51 OFFCURVE",
"224 66.19 OFFCURVE",
"224 -5.01 CURVE SMOOTH",
"224 -59.32 OFFCURVE",
"217.72 -81.51 OFFCURVE",
"186.49 -81.51 CURVE SMOOTH",
"180.34 -81.51 OFFCURVE",
"173.22 -80.65 OFFCURVE",
"165 -79.01 CURVE",
"165 -170.01 LINE",
"173.42 -170.81 OFFCURVE",
"181.57 -171.21 OFFCURVE",
"189.45 -171.21 CURVE SMOOTH",
"279.85 -171.21 OFFCURVE",
"334 -118.15 OFFCURVE",
"334 -5.01 CURVE SMOOTH",
"334 87.39 OFFCURVE",
"299.93 166.63 OFFCURVE",
"299.93 206.8 CURVE SMOOTH",
"299.93 212.28 OFFCURVE",
"300.56 217.03 OFFCURVE",
"302 220.99 CURVE SMOOTH",
"313 249.99 OFFCURVE",
"329 251.99 OFFCURVE",
"379 251.99 CURVE",
"379 364.99 LINE",
"330 364.99 OFFCURVE",
"313 367.99 OFFCURVE",
"303 396.99 CURVE SMOOTH",
"301.53 401.03 OFFCURVE",
"300.89 405.88 OFFCURVE",
"300.89 411.48 CURVE SMOOTH",
"300.89 451.57 OFFCURVE",
"334 529.85 OFFCURVE",
"334 621.99 CURVE SMOOTH",
"334 735.27 OFFCURVE",
"279.72 789.18 OFFCURVE",
"189.11 789.18 CURVE SMOOTH",
"181.34 789.18 OFFCURVE",
"173.3 788.78 OFFCURVE",
"165 787.99 CURVE"
);
}
);
width = 512;
}
);
note = braceright;
unicode = 007D;
},
{
glyphname = bracketleft;
layers = (
{
hints = (
{
horizontal = 1;
place = "{-151, 111}";
type = Stem;
},
{
horizontal = 1;
place = "{703, 111}";
type = Stem;
},
{
place = "{147, 115}";
type = Stem;
}
);
layerId = "6B8C0991-2F12-49E7-9CA3-B7242A37F482";
paths = (
{
closed = 1;
nodes = (
"403 -40 LINE",
"262 -40 LINE",
"262 703 LINE",
"403 703 LINE",
"403 814 LINE",
"147 814 LINE",
"147 -151 LINE",
"403 -151 LINE"
);
}
);
width = 500;
}
);
note = bracketleft;
rightKerningGroup = bracketleft;
unicode = 005B;
},
{
glyphname = bracketright;
layers = (
{
hints = (
{
horizontal = 1;
place = "{-151, 111}";
type = Stem;
},
{
horizontal = 1;
place = "{703, 111}";
type = Stem;
},
{
place = "{288, 115}";
type = Stem;
}
);
layerId = "6B8C0991-2F12-49E7-9CA3-B7242A37F482";
paths = (
{
closed = 1;
nodes = (
"147 814 LINE",
"147 703 LINE",
"288 703 LINE",
"288 -40 LINE",
"147 -40 LINE",
"147 -151 LINE",
"403 -151 LINE",
"403 814 LINE"
);
}
);
width = 500;
}
);
leftKerningGroup = bracketright;
note = bracketright;
rightKerningGroup = bracketright;
unicode = 005D;
},
{
glyphname = parenleft;
layers = (
{
hints = (
{
horizontal = 1;
place = "{-147, 916}";
type = Stem;
},
{
place = "{79, 124}";
type = Stem;
}
);
layerId = "6B8C0991-2F12-49E7-9CA3-B7242A37F482";
paths = (
{
closed = 1;
nodes = (
"240 769 LINE",
"177 687 OFFCURVE",
"82 534 OFFCURVE",
"79 311 CURVE SMOOTH",
"82 98 OFFCURVE",
"177 -55 OFFCURVE",
"240 -147 CURVE",
"344 -147 LINE",
"281 -55 OFFCURVE",
"206 96 OFFCURVE",
"203 309 CURVE",
"206 533 OFFCURVE",
"281 686 OFFCURVE",
"344 769 CURVE"
);
}
);
width = 373;
}
);
note = parenleft;
rightKerningGroup = parenleft;
unicode = 0028;
},
{
glyphname = parenright;
layers = (
{
hints = (
{
horizontal = 1;
place = "{-147, 916}";
type = Stem;
},
{
place = "{170, 124}";
type = Stem;
}
);
layerId = "6B8C0991-2F12-49E7-9CA3-B7242A37F482";
paths = (
{
closed = 1;
nodes = (
"29 769 LINE",
"92 686 OFFCURVE",
"167 533 OFFCURVE",
"170 309 CURVE SMOOTH",
"167 96 OFFCURVE",
"92 -55 OFFCURVE",
"29 -147 CURVE",
"133 -147 LINE",
"196 -55 OFFCURVE",
"291 98 OFFCURVE",
"294 311 CURVE",
"291 534 OFFCURVE",
"196 687 OFFCURVE",
"133 769 CURVE"
);
}
);
width = 373;
}
);
leftKerningGroup = parenright;
note = parenright;
unicode = 0029;
},
{
glyphname = emdash;
layers = (
{
hints = (
{
horizontal = 1;
place = "{260, 100}";
type = Stem;
},
{
place = "{14, 571}";
type = Stem;
}
);
layerId = "6B8C0991-2F12-49E7-9CA3-B7242A37F482";
paths = (
{
closed = 1;
nodes = (
"585 360 LINE",
"14 360 LINE",
"14 260 LINE",
"585 260 LINE"
);
}
);
width = 600;
}
);
note = emdash;
unicode = 2014;
},
{
glyphname = endash;
layers = (
{
hints = (
{
horizontal = 1;
place = "{260, 100}";
type = Stem;
},
{
place = "{80, 439}";
type = Stem;
}
);
layerId = "6B8C0991-2F12-49E7-9CA3-B7242A37F482";
paths = (
{
closed = 1;
nodes = (
"519 360 LINE",
"80 360 LINE",
"80 260 LINE",
"519 260 LINE"
);
}
);
width = 600;
}
);
note = endash;
unicode = 2013;
},
{
glyphname = hyphen;
layers = (
{
hints = (
{
horizontal = 1;
place = "{210, 100}";
type = Stem;
},
{
place = "{48, 421}";
type = Stem;
}
);
layerId = "6B8C0991-2F12-49E7-9CA3-B7242A37F482";
paths = (
{
closed = 1;
nodes = (
"469 310 LINE",
"48 310 LINE",
"48 210 LINE",
"469 210 LINE"
);
}
);
width = 517;
}
);
note = hyphen;
unicode = 002D;
},
{
glyphname = softhyphen;
layers = (
{
hints = (
{
horizontal = 1;
place = "{210, 100}";
type = Stem;
},
{
place = "{48, 421}";
type = Stem;
}
);
layerId = "6B8C0991-2F12-49E7-9CA3-B7242A37F482";
paths = (
{
closed = 1;
nodes = (
"469 310 LINE",
"48 310 LINE",
"48 210 LINE",
"469 210 LINE"
);
}
);
width = 600;
}
);
note = softhyphen;
unicode = 00AD;
},
{
glyphname = guillemotleft;
layers = (
{
hints = (
{
horizontal = 1;
place = "{52, 429}";
type = Stem;
},
{
place = "{40, 437.52}";
type = Stem;
}
);
layerId = "6B8C0991-2F12-49E7-9CA3-B7242A37F482";
paths = (
{
closed = 1;
nodes = (
"206 52 LINE",
"273 97 LINE",
"149 267 LINE",
"273 437 LINE",
"206 481 LINE",
"40 267 LINE"
);
},
{
closed = 1;
nodes = (
"416.62 71.27 LINE",
"477.52 112.17 LINE",
"364.81 266.7 LINE",
"477.52 421.23 LINE",
"416.62 461.23 LINE",
"265.72 266.7 LINE"
);
}
);
width = 527;
}
);
note = guillemotleft;
unicode = 00AB;
},
{
glyphname = guillemotright;
layers = (
{
hints = (
{
horizontal = 1;
place = "{52, 429}";
type = Stem;
},
{
place = "{48.47, 437.53}";
type = Stem;
}
);
layerId = "6B8C0991-2F12-49E7-9CA3-B7242A37F482";
paths = (
{
closed = 1;
nodes = (
"320 481 LINE",
"253 437 LINE",
"377 267 LINE",
"253 97 LINE",
"320 52 LINE",
"486 267 LINE"
);
},
{
closed = 1;
nodes = (
"109.38 461.23 LINE",
"48.47 421.23 LINE",
"161.19 266.7 LINE",
"48.47 112.17 LINE",
"109.38 71.27 LINE",
"260.27 266.7 LINE"
);
}
);
width = 526;
}
);
note = guillemotright;
unicode = 00BB;
},
{
glyphname = guilsinglleft;
layers = (
{
hints = (
{
horizontal = 1;
place = "{52, 429}";
type = Stem;
},
{
place = "{25, 233}";
type = Stem;
}
);
layerId = "6B8C0991-2F12-49E7-9CA3-B7242A37F482";
paths = (
{
closed = 1;
nodes = (
"191 52 LINE",
"258 97 LINE",
"134 267 LINE",
"258 437 LINE",
"191 481 LINE",
"25 267 LINE"
);
}
);
width = 347;
}
);
note = guilsinglleft;
unicode = 2039;
},
{
glyphname = guilsinglright;
layers = (
{
hints = (
{
horizontal = 1;
place = "{52, 429}";
type = Stem;
},
{
place = "{89, 233}";
type = Stem;
}
);
layerId = "6B8C0991-2F12-49E7-9CA3-B7242A37F482";
paths = (
{
closed = 1;
nodes = (
"156 481 LINE",
"89 437 LINE",
"213 267 LINE",
"89 97 LINE",
"156 52 LINE",
"322 267 LINE"
);
}
);
width = 352;
}
);
note = guilsinglright;
unicode = 203A;
},
{
glyphname = quotedblbase;
layers = (
{
hints = (
{
horizontal = 1;
place = "{-1, 132}";
type = Stem;
},
{
place = "{69, 132}";
type = Stem;
},
{
place = "{332, 132}";
type = Stem;
}
);
layerId = "6B8C0991-2F12-49E7-9CA3-B7242A37F482";
paths = (
{
closed = 1;
nodes = (
"201 131 LINE",
"69 131 LINE",
"69 -1 LINE",
"132 -1 LINE",
"131.98 -37.67 OFFCURVE",
"130.59 -74.24 OFFCURVE",
"86 -101 CURVE",
"86 -159 LINE",
"179.12 -135.22 OFFCURVE",
"200.6 -36.86 OFFCURVE",
"200.99 -1 CURVE",
"201 -1 LINE"
);
},
{
closed = 1;
nodes = (
"464 131 LINE",
"332 131 LINE",
"332 -1 LINE",
"395 -1 LINE",
"394.98 -37.66 OFFCURVE",
"393.59 -74.24 OFFCURVE",
"349 -100.99 CURVE",
"349 -158.99 LINE",
"442.12 -135.22 OFFCURVE",
"463.6 -36.86 OFFCURVE",
"463.99 -0.99 CURVE SMOOTH"
);
}
);
width = 600;
}
);
note = quotedblbase;
rightKerningGroup = quotedblbase;
unicode = 201E;
},
{
glyphname = quotedblleft;
layers = (
{
hints = (
{
horizontal = 1;
place = "{500.99, 132}";
type = Stem;
},
{
place = "{109, 132}";
type = Stem;
},
{
place = "{347, 132}";
type = Stem;
}
);
layerId = "6B8C0991-2F12-49E7-9CA3-B7242A37F482";
paths = (
{
closed = 1;
nodes = (
"479 501 LINE",
"479 633 LINE",
"416 633 LINE",
"416.02 669.66 OFFCURVE",
"417.4 706.24 OFFCURVE",
"462 732.99 CURVE",
"462 790.99 LINE",
"368.88 767.22 OFFCURVE",
"347.4 668.86 OFFCURVE",
"347 632.99 CURVE SMOOTH",
"347 500.99 LINE"
);
},
{
closed = 1;
nodes = (
"224 790.99 LINE",
"130.88 767.22 OFFCURVE",
"109.4 668.86 OFFCURVE",
"109 632.99 CURVE SMOOTH",
"109 500.99 LINE",
"241 500.99 LINE",
"241 632.99 LINE",
"178 632.99 LINE",
"178.02 669.66 OFFCURVE",
"179.4 706.23 OFFCURVE",
"224 732.99 CURVE"
);
}
);
width = 548;
}
);
leftKerningGroup = quotedblleft;
note = quotedblleft;
rightKerningGroup = quotedblleft;
unicode = 201C;
},
{
glyphname = quotedblright;
layers = (
{
hints = (
{
horizontal = 1;
place = "{648, 132}";
type = Stem;
},
{
place = "{69, 132}";
type = Stem;
},
{
place = "{307, 132}";
type = Stem;
}
);
layerId = "6B8C0991-2F12-49E7-9CA3-B7242A37F482";
paths = (
{
closed = 1;
nodes = (
"201 780 LINE",
"69 780 LINE",
"69 648 LINE",
"132 648 LINE",
"131.98 611.33 OFFCURVE",
"130.59 574.76 OFFCURVE",
"86 548 CURVE",
"86 490 LINE",
"179.12 513.78 OFFCURVE",
"200.6 612.14 OFFCURVE",
"200.99 648 CURVE",
"201 648 LINE"
);
},
{
closed = 1;
nodes = (
"439 780 LINE",
"307 780 LINE",
"307 648 LINE",
"370 648 LINE",
"369.98 611.34 OFFCURVE",
"368.59 574.76 OFFCURVE",
"324 548.01 CURVE",
"324 490.01 LINE",
"417.12 513.78 OFFCURVE",
"438.6 612.14 OFFCURVE",
"438.99 648.01 CURVE SMOOTH"
);
}
);
width = 548;
}
);
leftKerningGroup = quotedblright;
note = quotedblright;
unicode = 201D;
},
{
glyphname = quoteleft;
layers = (
{
hints = (
{
horizontal = 1;
place = "{503, 132}";
type = Stem;
},
{
place = "{69, 132}";
type = Stem;
}
);
layerId = "6B8C0991-2F12-49E7-9CA3-B7242A37F482";
paths = (
{
closed = 1;
nodes = (
"201 503 LINE",
"201 635 LINE",
"200.6 670.86 OFFCURVE",
"179.12 769.22 OFFCURVE",
"86 793 CURVE",
"86 735 LINE",
"130.59 708.24 OFFCURVE",
"131.98 671.67 OFFCURVE",
"132 635 CURVE",
"69 635 LINE",
"69 503 LINE"
);
}
);
width = 310;
}
);
leftKerningGroup = quoteleft;
note = quoteleft;
rightKerningGroup = quoteleft;
unicode = 2018;
},
{
glyphname = quoteright;
layers = (
{
hints = (
{
horizontal = 1;
place = "{660, 132}";
type = Stem;
},
{
place = "{69, 132}";
type = Stem;
}
);
layerId = "6B8C0991-2F12-49E7-9CA3-B7242A37F482";
paths = (
{
closed = 1;
nodes = (
"201 792 LINE",
"69 792 LINE",
"69 660 LINE",
"132 660 LINE",
"131.98 623.33 OFFCURVE",
"130.59 586.76 OFFCURVE",
"86 560 CURVE",
"86 502 LINE",
"179.12 525.78 OFFCURVE",
"200.6 624.14 OFFCURVE",
"200.99 660 CURVE SMOOTH"
);
}
);
width = 310;
}
);
note = quoteright;
unicode = 2019;
},
{
glyphname = quotesinglbase;
layers = (
{
hints = (
{
horizontal = 1;
place = "{-1, 132}";
type = Stem;
},
{
place = "{69, 132}";
type = Stem;
}
);
layerId = "6B8C0991-2F12-49E7-9CA3-B7242A37F482";
paths = (
{
closed = 1;
nodes = (
"201 131 LINE",
"69 131 LINE",
"69 -1 LINE",
"132 -1 LINE",
"131.98 -37.67 OFFCURVE",
"130.59 -74.24 OFFCURVE",
"86 -101 CURVE",
"86 -159 LINE",
"179.12 -135.22 OFFCURVE",
"200.6 -36.86 OFFCURVE",
"200.99 -1 CURVE SMOOTH"
);
}
);
width = 310;
}
);
note = quotesinglbase;
rightKerningGroup = quotesinglbase;
unicode = 201A;
},
{
glyphname = cent;
layers = (
{
hints = (
{
horizontal = 1;
place = "{3, 697}";
type = Stem;
},
{
place = "{30, 110}";
type = Stem;
},
{
place = "{232, 115}";
type = Stem;
}
);
layerId = "6B8C0991-2F12-49E7-9CA3-B7242A37F482";
paths = (
{
closed = 1;
nodes = (
"441 288 LINE",
"425.19 241.37 OFFCURVE",
"401.26 198.49 OFFCURVE",
"347 182.56 CURVE",
"347 514.77 LINE",
"392.03 504.87 OFFCURVE",
"425.25 476.41 OFFCURVE",
"443 417 CURVE",
"535 468 LINE",
"507.89 544.95 OFFCURVE",
"442.55 594.38 OFFCURVE",
"347 605.57 CURVE",
"347 700 LINE",
"232 700 LINE",
"232 600.77 LINE",
"113.09 575.74 OFFCURVE",
"30 486.33 OFFCURVE",
"30 342 CURVE SMOOTH",
"30 198.19 OFFCURVE",
"120.53 114.5 OFFCURVE",
"232 91.52 CURVE",
"232 3 LINE",
"347 3 LINE",
"347 88.5 LINE",
"444.71 102.75 OFFCURVE",
"511.47 159.97 OFFCURVE",
"539 248.58 CURVE"
);
},
{
closed = 1;
nodes = (
"140 422.77 OFFCURVE",
"173.96 480.35 OFFCURVE",
"232 505.25 CURVE",
"232 188.83 LINE",
"179.55 210.99 OFFCURVE",
"140 261.92 OFFCURVE",
"140 342 CURVE SMOOTH"
);
}
);
width = 549;
}
);
note = cent;
unicode = 00A2;
},
{
glyphname = currency;
layers = (
{
hints = (
{
horizontal = 1;
place = "{105.58, 88.37}";
type = Stem;
},
{
horizontal = 1;
place = "{499.04, 88.38}";
type = Stem;
},
{
place = "{72.4, 88.37}";
type = Stem;
},
{
place = "{465.86, 88.38}";
type = Stem;
}
);
layerId = "6B8C0991-2F12-49E7-9CA3-B7242A37F482";
paths = (
{
closed = 1;
nodes = (
"505.55 88.01 LINE",
"578.08 162.54 LINE",
"518.91 220.12 LINE",
"541.34 256.77 OFFCURVE",
"554.24 300.01 OFFCURVE",
"554.24 346.5 CURVE SMOOTH",
"554.24 394.95 OFFCURVE",
"540.24 439.87 OFFCURVE",
"516.03 477.48 CURVE",
"578.01 537.56 LINE",
"505.62 612.23 LINE",
"442.07 550.62 LINE",
"404.92 573.96 OFFCURVE",
"360.81 587.42 OFFCURVE",
"313.32 587.42 CURVE SMOOTH",
"264.45 587.42 OFFCURVE",
"219.17 573.17 OFFCURVE",
"181.37 548.57 CURVE",
"116.01 612.17 LINE",
"43.48 537.63 LINE",
"108.59 474.28 LINE",
"85.62 437.33 OFFCURVE",
"72.4 393.58 OFFCURVE",
"72.4 346.5 CURVE SMOOTH",
"72.4 302.23 OFFCURVE",
"84.2 259.53 OFFCURVE",
"105.69 222.69 CURVE",
"43.6 162.65 LINE",
"115.89 87.89 LINE",
"176.51 146.5 LINE",
"214.18 120.88 OFFCURVE",
"260.6 105.58 OFFCURVE",
"313.32 105.58 CURVE SMOOTH",
"362.78 105.58 OFFCURVE",
"408.56 120.17 OFFCURVE",
"446.64 145.32 CURVE"
);
},
{
closed = 1;
nodes = (
"221.82 193.95 OFFCURVE",
"160.77 263.99 OFFCURVE",
"160.77 346.5 CURVE SMOOTH",
"160.77 430.19 OFFCURVE",
"229.63 499.04 OFFCURVE",
"313.32 499.04 CURVE SMOOTH",
"397.01 499.04 OFFCURVE",
"465.86 430.19 OFFCURVE",
"465.86 346.5 CURVE SMOOTH",
"465.86 262.81 OFFCURVE",
"397.01 193.95 OFFCURVE",
"313.32 193.95 CURVE SMOOTH"
);
}
);
width = 600;
}
);
note = currency;
unicode = 00A4;
},
{
glyphname = dollar;
layers = (
{
hints = (
{
horizontal = 1;
place = "{-7.01, 95}";
type = Stem;
},
{
horizontal = 1;
place = "{614.99, 93.01}";
type = Stem;
},
{
place = "{110, 110}";
type = Stem;
},
{
place = "{260.81, 61.24}";
type = Stem;
},
{
place = "{355.96, 61.23}";
type = Stem;
},
{
place = "{485, 111}";
type = Stem;
}
);
layerId = "6B8C0991-2F12-49E7-9CA3-B7242A37F482";
paths = (
{
closed = 1;
nodes = (
"596 315.61 OFFCURVE",
"499.9 365.4 OFFCURVE",
"417.19 394.34 CURVE",
"417.19 594.56 LINE",
"439.18 579.44 OFFCURVE",
"451 556.24 OFFCURVE",
"451 526 CURVE",
"559 554 LINE",
"547.85 630.54 OFFCURVE",
"490.87 678.37 OFFCURVE",
"417.19 697.89 CURVE",
"417.19 804 LINE",
"355.96 804 LINE",
"355.96 707.43 LINE",
"349.36 707.81 OFFCURVE",
"342.7 708 OFFCURVE",
"336 708 CURVE SMOOTH",
"331.31 708 OFFCURVE",
"326.65 707.89 OFFCURVE",
"322.04 707.68 CURVE",
"322.04 804 LINE",
"260.81 804 LINE",
"260.81 698.18 LINE",
"171.55 673.82 OFFCURVE",
"110 606.63 OFFCURVE",
"110 525 CURVE SMOOTH",
"110 446.63 OFFCURVE",
"163.26 386.01 OFFCURVE",
"260.81 344.94 CURVE",
"260.81 99.61 LINE",
"195.5 121.57 OFFCURVE",
"164.39 173.03 OFFCURVE",
"151 240 CURVE",
"50 189 LINE",
"81.37 95.71 OFFCURVE",
"145.45 22.87 OFFCURVE",
"260.81 0.29 CURVE",
"260.81 -101.01 LINE",
"322.04 -101.01 LINE",
"322.04 -6.64 LINE",
"328.24 -6.88 OFFCURVE",
"334.56 -7.01 OFFCURVE",
"341 -7.01 CURVE SMOOTH",
"346.07 -7.01 OFFCURVE",
"351.05 -6.92 OFFCURVE",
"355.96 -6.76 CURVE",
"355.96 -101.01 LINE",
"417.19 -101.01 LINE",
"417.19 0.2 LINE",
"539.38 25.05 OFFCURVE",
"596 110.92 OFFCURVE",
"596 205.99 CURVE SMOOTH"
);
},
{
closed = 1;
nodes = (
"342.94 614.99 OFFCURVE",
"349.59 614.7 OFFCURVE",
"355.96 614.13 CURVE",
"355.96 413.79 LINE",
"354.62 414.19 OFFCURVE",
"353.3 414.59 OFFCURVE",
"352 414.99 CURVE SMOOTH",
"341.3 418.18 OFFCURVE",
"331.32 421.47 OFFCURVE",
"322.04 424.87 CURVE",
"322.04 614.46 LINE",
"326.58 614.81 OFFCURVE",
"331.23 614.99 OFFCURVE",
"336 614.99 CURVE SMOOTH"
);
},
{
closed = 1;
nodes = (
"220 554.08 OFFCURVE",
"234.97 579.27 OFFCURVE",
"260.81 595.54 CURVE",
"260.81 455.4 LINE",
"232.48 475.56 OFFCURVE",
"220 498.64 OFFCURVE",
"220 524.99 CURVE SMOOTH"
);
},
{
closed = 1;
nodes = (
"334.48 87.99 OFFCURVE",
"328.16 88.17 OFFCURVE",
"322.05 88.52 CURVE",
"322.05 323.36 LINE",
"333.45 319.79 OFFCURVE",
"344.83 316.32 OFFCURVE",
"355.96 312.78 CURVE",
"355.96 88.36 LINE",
"351.13 88.12 OFFCURVE",
"346.14 88 OFFCURVE",
"341 88 CURVE SMOOTH"
);
},
{
closed = 1;
nodes = (
"417.19 290.21 LINE",
"457.02 271.89 OFFCURVE",
"485 247.48 OFFCURVE",
"485 206 CURVE SMOOTH",
"485 157.58 OFFCURVE",
"464.82 119.02 OFFCURVE",
"417.19 100.31 CURVE"
);
}
);
width = 646;
}
);
note = dollar;
unicode = 0024;
},
{
glyphname = Euro;
layers = (
{
hints = (
{
horizontal = 1;
place = "{-5, 98}";
type = Stem;
},
{
horizontal = 1;
place = "{205, 93}";
type = Stem;
},
{
horizontal = 1;
place = "{375, 93}";
type = Stem;
},
{
horizontal = 1;
place = "{607, 98}";
type = Stem;
},
{
place = "{129, 117.99}";
type = Stem;
}
);
layerId = "6B8C0991-2F12-49E7-9CA3-B7242A37F482";
paths = (
{
closed = 1;
nodes = (
"391.86 93 OFFCURVE",
"322.17 135.92 OFFCURVE",
"282.64 205 CURVE",
"550.99 205 LINE",
"550.99 298 LINE",
"250.78 298 LINE",
"248.28 314.04 OFFCURVE",
"246.99 330.74 OFFCURVE",
"246.99 348 CURVE SMOOTH",
"246.99 357.16 OFFCURVE",
"247.35 366.16 OFFCURVE",
"248.06 375 CURVE",
"551 375 LINE",
"551 468 LINE",
"270.47 468 LINE",
"306.85 552.69 OFFCURVE",
"382.71 607 OFFCURVE",
"478 607 CURVE SMOOTH",
"559 607 OFFCURVE",
"630 569 OFFCURVE",
"671 501 CURVE",
"772 552 LINE",
"712 646 OFFCURVE",
"609 705 OFFCURVE",
"478 705 CURVE SMOOTH",
"313.02 705 OFFCURVE",
"191.87 605.63 OFFCURVE",
"147.5 468 CURVE",
"32 468 LINE",
"32 375 LINE",
"129.89 375 LINE",
"129.3 366.08 OFFCURVE",
"129 357.08 OFFCURVE",
"129 348 CURVE SMOOTH",
"129 331.04 OFFCURVE",
"130.07 314.34 OFFCURVE",
"132.16 298 CURVE",
"32 298 LINE",
"32 205 LINE",
"156.53 205 LINE",
"207.07 81.62 OFFCURVE",
"323.74 -5 OFFCURVE",
"478 -5 CURVE SMOOTH",
"608 -5 OFFCURVE",
"711 52 OFFCURVE",
"770 144 CURVE",
"668 193 LINE",
"627 129 OFFCURVE",
"557 93 OFFCURVE",
"478 93 CURVE SMOOTH"
);
}
);
width = 781;
}
);
note = Euro;
unicode = 20AC;
},
{
glyphname = florin;
layers = (
{
hints = (
{
horizontal = 1;
place = "{319, 100}";
type = Stem;
},
{
horizontal = 1;
place = "{635, 88}";
type = Stem;
},
{
place = "{-10, 573}";
type = Stem;
}
);
layerId = "6B8C0991-2F12-49E7-9CA3-B7242A37F482";
paths = (
{
closed = 1;
nodes = (
"215 723 OFFCURVE",
"186 584 OFFCURVE",
"170 526 CURVE SMOOTH",
"141.92 419 LINE",
"24 419 LINE",
"24 319 LINE",
"115.68 319 LINE",
"-10 -160 LINE",
"98 -160 LINE",
"223.68 319 LINE",
"394 319 LINE",
"394 419 LINE",
"249.92 419 LINE",
"278 526 LINE SMOOTH",
"291 576 OFFCURVE",
"314 635 OFFCURVE",
"383 635 CURVE SMOOTH",
"432 635 OFFCURVE",
"469 593 OFFCURVE",
"475 571 CURVE",
"563 634 LINE",
"536 671 OFFCURVE",
"490 723 OFFCURVE",
"383 723 CURVE SMOOTH"
);
}
);
width = 583;
}
);
note = florin;
unicode = 0192;
},
{
glyphname = sterling;
layers = (
{
hints = (
{
horizontal = 1;
place = "{0, 108}";
type = Stem;
},
{
horizontal = 1;
place = "{320, 100}";
type = Stem;
},
{
horizontal = 1;
place = "{635, 88}";
type = Stem;
},
{
place = "{170, 108}";
type = Stem;
}
);
layerId = "6B8C0991-2F12-49E7-9CA3-B7242A37F482";
paths = (
{
closed = 1;
nodes = (
"73 0 LINE",
"551 0 LINE",
"551 108 LINE",
"245.92 108 LINE",
"270.25 147.63 OFFCURVE",
"278 196.14 OFFCURVE",
"278 238 CURVE SMOOTH",
"278 320 LINE",
"389 320 LINE",
"389 420 LINE",
"278 420 LINE",
"278 526 LINE SMOOTH",
"278 577 OFFCURVE",
"294 635 OFFCURVE",
"363 635 CURVE SMOOTH",
"412 635 OFFCURVE",
"449 593 OFFCURVE",
"455 571 CURVE",
"543 634 LINE",
"516 671 OFFCURVE",
"470 723 OFFCURVE",
"363 723 CURVE SMOOTH",
"195 723 OFFCURVE",
"170 587 OFFCURVE",
"170 526 CURVE SMOOTH",
"170 420 LINE",
"89 420 LINE",
"89 320 LINE",
"170 320 LINE",
"170 238 LINE SMOOTH",
"170 147 OFFCURVE",
"153 108 OFFCURVE",
"88 108 CURVE SMOOTH",
"73 108 LINE"
);
}
);
width = 581;
}
);
note = sterling;
unicode = 00A3;
},
{
glyphname = yen;
layers = (
{
hints = (
{
horizontal = 1;
place = "{147.12, 75.1}";
type = Stem;
},
{
horizontal = 1;
place = "{289.81, 75.1}";
type = Stem;
},
{
place = "{270, 108}";
type = Stem;
}
);
layerId = "6B8C0991-2F12-49E7-9CA3-B7242A37F482";
paths = (
{
closed = 1;
nodes = (
"415.72 364.91 LINE",
"634 700 LINE",
"521 700 LINE",
"324.09 400.18 LINE",
"128 700 LINE",
"15 700 LINE",
"232.42 364.91 LINE",
"130.79 364.91 LINE",
"130.79 289.81 LINE",
"270 289.81 LINE",
"270 222.22 LINE",
"130.79 222.22 LINE",
"130.79 147.12 LINE",
"270 147.12 LINE",
"270 0 LINE",
"378 0 LINE",
"378 147.12 LINE",
"522.06 147.12 LINE",
"522.06 222.22 LINE",
"378 222.22 LINE",
"378 289.81 LINE",
"522.06 289.81 LINE",
"522.06 364.91 LINE"
);
}
);
width = 649;
}
);
note = yen;
unicode = 00A5;
},
{
glyphname = approxequal;
layers = (
{
hints = (
{
horizontal = 1;
place = "{192, 78}";
type = Stem;
},
{
horizontal = 1;
place = "{308, 78}";
type = Stem;
},
{
horizontal = 1;
place = "{415, 78}";
type = Stem;
},
{
place = "{41.27, 86.76}";
type = Stem;
},
{
place = "{465.97, 86.76}";
type = Stem;
},
{
horizontal = 1;
place = "{85, 78}";
type = Stem;
}
);
layerId = "6B8C0991-2F12-49E7-9CA3-B7242A37F482";
paths = (
{
closed = 1;
nodes = (
"462 469 LINE",
"464.47 461.82 OFFCURVE",
"465.97 453.12 OFFCURVE",
"465.97 444.08 CURVE SMOOTH",
"465.97 416.58 OFFCURVE",
"452.14 386 OFFCURVE",
"410 386 CURVE SMOOTH",
"374 386 OFFCURVE",
"327 424 OFFCURVE",
"297 446 CURVE SMOOTH",
"263 470 OFFCURVE",
"223 493 OFFCURVE",
"176 493 CURVE SMOOTH",
"66.22 493 OFFCURVE",
"41.27 423.07 OFFCURVE",
"41.27 372.18 CURVE SMOOTH",
"41.27 355.85 OFFCURVE",
"43.84 341.48 OFFCURVE",
"47 332 CURVE",
"132 332 LINE",
"129.53 339.18 OFFCURVE",
"128.03 347.88 OFFCURVE",
"128.03 356.92 CURVE SMOOTH",
"128.03 384.42 OFFCURVE",
"141.86 415 OFFCURVE",
"184 415 CURVE SMOOTH",
"220 415 OFFCURVE",
"268 377 OFFCURVE",
"298 355 CURVE SMOOTH",
"332 331 OFFCURVE",
"371 308 OFFCURVE",
"418 308 CURVE SMOOTH",
"527.78 308 OFFCURVE",
"552.73 377.93 OFFCURVE",
"552.73 428.82 CURVE SMOOTH",
"552.73 445.15 OFFCURVE",
"550.16 459.52 OFFCURVE",
"547 469 CURVE"
);
},
{
closed = 1;
nodes = (
"462 246 LINE",
"464.47 238.82 OFFCURVE",
"465.97 230.12 OFFCURVE",
"465.97 221.08 CURVE SMOOTH",
"465.97 193.58 OFFCURVE",
"452.14 163 OFFCURVE",
"410 163 CURVE SMOOTH",
"374 163 OFFCURVE",
"327 201 OFFCURVE",
"297 223 CURVE SMOOTH",
"263 247 OFFCURVE",
"223 270 OFFCURVE",
"176 270 CURVE SMOOTH",
"66.22 270 OFFCURVE",
"41.27 200.07 OFFCURVE",
"41.27 149.18 CURVE SMOOTH",
"41.27 132.85 OFFCURVE",
"43.84 118.48 OFFCURVE",
"47 109 CURVE",
"132 109 LINE",
"129.53 116.18 OFFCURVE",
"128.03 124.88 OFFCURVE",
"128.03 133.92 CURVE SMOOTH",
"128.03 161.42 OFFCURVE",
"141.86 192 OFFCURVE",
"184 192 CURVE SMOOTH",
"220 192 OFFCURVE",
"268 154 OFFCURVE",
"298 132 CURVE SMOOTH",
"332 108 OFFCURVE",
"371 85 OFFCURVE",
"418 85 CURVE SMOOTH",
"527.78 85 OFFCURVE",
"552.73 154.93 OFFCURVE",
"552.73 205.82 CURVE SMOOTH",
"552.73 222.15 OFFCURVE",
"550.16 236.52 OFFCURVE",
"547 246 CURVE"
);
}
);
width = 600;
}
);
note = approxequal;
unicode = 2248;
},
{
glyphname = asciitilde;
layers = (
{
hints = (
{
horizontal = 1;
place = "{218, 78}";
type = Stem;
},
{
horizontal = 1;
place = "{325, 78}";
type = Stem;
},
{
place = "{41.27, 86.76}";
type = Stem;
},
{
place = "{465.97, 86.76}";
type = Stem;
}
);
layerId = "6B8C0991-2F12-49E7-9CA3-B7242A37F482";
paths = (
{
closed = 1;
nodes = (
"462 379 LINE",
"464.47 371.82 OFFCURVE",
"465.97 363.12 OFFCURVE",
"465.97 354.08 CURVE SMOOTH",
"465.97 326.58 OFFCURVE",
"452.14 296 OFFCURVE",
"410 296 CURVE SMOOTH",
"374 296 OFFCURVE",
"327 334 OFFCURVE",
"297 356 CURVE SMOOTH",
"263 380 OFFCURVE",
"223 403 OFFCURVE",
"176 403 CURVE SMOOTH",
"66.22 403 OFFCURVE",
"41.27 333.07 OFFCURVE",
"41.27 282.18 CURVE SMOOTH",
"41.27 265.85 OFFCURVE",
"43.84 251.48 OFFCURVE",
"47 242 CURVE",
"132 242 LINE",
"129.53 249.18 OFFCURVE",
"128.03 257.88 OFFCURVE",
"128.03 266.92 CURVE SMOOTH",
"128.03 294.42 OFFCURVE",
"141.86 325 OFFCURVE",
"184 325 CURVE SMOOTH",
"220 325 OFFCURVE",
"268 287 OFFCURVE",
"298 265 CURVE SMOOTH",
"332 241 OFFCURVE",
"371 218 OFFCURVE",
"418 218 CURVE SMOOTH",
"527.78 218 OFFCURVE",
"552.73 287.93 OFFCURVE",
"552.73 338.82 CURVE SMOOTH",
"552.73 355.15 OFFCURVE",
"550.16 369.52 OFFCURVE",
"547 379 CURVE"
);
}
);
width = 600;
}
);
note = asciitilde;
unicode = 007E;
},
{
glyphname = divide;
layers = (
{
hints = (
{
horizontal = 1;
place = "{-2, 133.06}";
type = Stem;
},
{
horizontal = 1;
place = "{210, 100}";
type = Stem;
},
{
horizontal = 1;
place = "{397, 132}";
type = Stem;
},
{
place = "{231, 132}";
type = Stem;
}
);
layerId = "6B8C0991-2F12-49E7-9CA3-B7242A37F482";
paths = (
{
closed = 1;
nodes = (
"363 529 LINE",
"231 529 LINE",
"231 397 LINE",
"363 397 LINE"
);
},
{
closed = 1;
nodes = (
"543 310 LINE",
"52 310 LINE",
"52 210 LINE",
"543 210 LINE"
);
},
{
closed = 1;
nodes = (
"363.61 131.05 LINE",
"230.55 131.05 LINE",
"230.55 -2.01 LINE",
"363.61 -2.01 LINE"
);
}
);
width = 600;
}
);
note = divide;
unicode = 00F7;
},
{
glyphname = equal;
layers = (
{
hints = (
{
horizontal = 1;
place = "{220, 90}";
type = Stem;
},
{
place = "{38, 521}";
type = Stem;
}
);
layerId = "6B8C0991-2F12-49E7-9CA3-B7242A37F482";
paths = (
{
closed = 1;
nodes = (
"38 310 LINE",
"38 410 LINE",
"559 410 LINE",
"559 310 LINE"
);
},
{
closed = 1;
nodes = (
"38 120 LINE",
"38 220 LINE",
"559 220 LINE",
"559 120 LINE"
);
}
);
width = 600;
}
);
note = equal;
unicode = 003D;
},
{
glyphname = greater;
layers = (
{
hints = (
{
horizontal = 1;
place = "{-6, 585}";
type = Stem;
},
{
place = "{45, 532}";
type = Stem;
}
);
layerId = "6B8C0991-2F12-49E7-9CA3-B7242A37F482";
paths = (
{
closed = 1;
nodes = (
"577 287 LINE",
"45 579 LINE",
"45 456 LINE",
"378 287 LINE",
"45 118 LINE",
"45 -6 LINE"
);
}
);
width = 600;
}
);
note = greater;
unicode = 003E;
},
{
glyphname = greaterequal;
layers = (
{
hints = (
{
horizontal = 1;
place = "{0, 100}";
type = Stem;
},
{
place = "{24, 533}";
type = Stem;
}
);
layerId = "6B8C0991-2F12-49E7-9CA3-B7242A37F482";
paths = (
{
closed = 1;
nodes = (
"556 412 LINE",
"24 704 LINE",
"24 581 LINE",
"357 412 LINE",
"24 243 LINE",
"24 119 LINE"
);
},
{
closed = 1;
nodes = (
"26 100 LINE",
"26 0 LINE",
"557 0 LINE",
"557 100 LINE"
);
}
);
width = 600;
}
);
note = greaterequal;
unicode = 2265;
},
{
glyphname = infinity;
layers = (
{
hints = (
{
horizontal = 1;
place = "{142, 108}";
type = Stem;
},
{
horizontal = 1;
place = "{441, 108}";
type = Stem;
},
{
place = "{30, 88}";
type = Stem;
},
{
place = "{740, 88}";
type = Stem;
}
);
layerId = "6B8C0991-2F12-49E7-9CA3-B7242A37F482";
paths = (
{
closed = 1;
nodes = (
"563.58 549 OFFCURVE",
"497.55 491.89 OFFCURVE",
"433.47 424.31 CURVE",
"366.25 491.95 OFFCURVE",
"294.76 549 OFFCURVE",
"209 549 CURVE SMOOTH",
"91 549 OFFCURVE",
"30 440 OFFCURVE",
"30 345 CURVE SMOOTH",
"30 250 OFFCURVE",
"90 142 OFFCURVE",
"208 142 CURVE SMOOTH",
"287.84 142 OFFCURVE",
"367.68 203.8 OFFCURVE",
"430.79 265.15 CURVE",
"489.99 204.76 OFFCURVE",
"568.99 142 OFFCURVE",
"648 142 CURVE SMOOTH",
"766 142 OFFCURVE",
"828 251 OFFCURVE",
"828 346 CURVE SMOOTH",
"828 441 OFFCURVE",
"767 549 OFFCURVE",
"649 549 CURVE SMOOTH"
);
},
{
closed = 1;
nodes = (
"154 250 OFFCURVE",
"118 292 OFFCURVE",
"118 346 CURVE SMOOTH",
"118 400 OFFCURVE",
"154 441 OFFCURVE",
"208 441 CURVE SMOOTH",
"273 441 OFFCURVE",
"318 396 OFFCURVE",
"360 345 CURVE",
"329 313 OFFCURVE",
"274 250 OFFCURVE",
"209 250 CURVE SMOOTH"
);
},
{
closed = 1;
nodes = (
"594 250 OFFCURVE",
"546 306 OFFCURVE",
"508 346 CURVE",
"558 400 OFFCURVE",
"594 441 OFFCURVE",
"648 441 CURVE SMOOTH",
"713 441 OFFCURVE",
"740 389 OFFCURVE",
"740 345 CURVE SMOOTH",
"740 301 OFFCURVE",
"714 250 OFFCURVE",
"649 250 CURVE SMOOTH"
);
}
);
width = 858;
}
);
note = infinity;
unicode = 221E;
},
{
glyphname = integral;
layers = (
{
hints = (
{
horizontal = 1;
place = "{-229.06, 155.05}";
type = Stem;
},
{
horizontal = 1;
place = "{627.99, 150.09}";
type = Stem;
},
{
place = "{79.41, 103.98}";
type = Stem;
},
{
place = "{264.76, 124.85}";
type = Stem;
},
{
place = "{162.33, 115.06}";
type = Stem;
},
{
place = "{351.05, 104.95}";
type = Stem;
}
);
layerId = "6B8C0991-2F12-49E7-9CA3-B7242A37F482";
paths = (
{
closed = 1;
nodes = (
"82 -74 LINE",
"80.37 -81.93 OFFCURVE",
"79.51 -90.09 OFFCURVE",
"79.41 -98.32 CURVE SMOOTH",
"78.67 -161.46 OFFCURVE",
"122.95 -229.06 OFFCURVE",
"212.25 -229.06 CURVE SMOOTH",
"218.6 -229.06 OFFCURVE",
"225.19 -228.72 OFFCURVE",
"232 -228.01 CURVE SMOOTH",
"345.79 -215.5 OFFCURVE",
"389.61 -122.08 OFFCURVE",
"389.61 10.7 CURVE SMOOTH",
"389.61 90.3 OFFCURVE",
"373.86 184.05 OFFCURVE",
"348 282.99 CURVE SMOOTH",
"314.43 410.7 OFFCURVE",
"277.39 542.3 OFFCURVE",
"277.39 619.62 CURVE SMOOTH",
"277.39 659.75 OFFCURVE",
"287.37 685.26 OFFCURVE",
"313 687.99 CURVE SMOOTH",
"337.94 690.57 OFFCURVE",
"351.05 661.35 OFFCURVE",
"351.05 638.48 CURVE SMOOTH",
"351.05 634.76 OFFCURVE",
"350.7 631.21 OFFCURVE",
"350 627.99 CURVE",
"456 627.99 LINE",
"457.88 695.55 OFFCURVE",
"415.73 778.08 OFFCURVE",
"322.94 778.08 CURVE SMOOTH",
"316.84 778.08 OFFCURVE",
"310.53 777.73 OFFCURVE",
"304 776.99 CURVE SMOOTH",
"195.76 765.75 OFFCURVE",
"162.33 685.69 OFFCURVE",
"162.33 583.53 CURVE SMOOTH",
"162.33 485.61 OFFCURVE",
"193.04 367.38 OFFCURVE",
"218 269.98 CURVE SMOOTH",
"250.23 143.07 OFFCURVE",
"264.76 43.19 OFFCURVE",
"264.76 -26 CURVE SMOOTH",
"264.76 -96.37 OFFCURVE",
"249.73 -134.99 OFFCURVE",
"223 -138.02 CURVE SMOOTH",
"192.71 -141.21 OFFCURVE",
"183.39 -110.71 OFFCURVE",
"183.39 -88.58 CURVE SMOOTH",
"183.39 -82.96 OFFCURVE",
"183.99 -77.87 OFFCURVE",
"185 -74.02 CURVE"
);
}
);
width = 600;
}
);
note = integral;
unicode = 222B;
},
{
glyphname = less;
layers = (
{
hints = (
{
horizontal = 1;
place = "{-6, 585}";
type = Stem;
},
{
place = "{25, 532}";
type = Stem;
}
);
layerId = "6B8C0991-2F12-49E7-9CA3-B7242A37F482";
paths = (
{
closed = 1;
nodes = (
"557 118 LINE",
"224 287 LINE",
"557 456 LINE",
"557 579 LINE",
"25 287 LINE",
"557 -6 LINE"
);
}
);
width = 600;
}
);
note = less;
unicode = 003C;
},
{
glyphname = lessequal;
layers = (
{
hints = (
{
horizontal = 1;
place = "{0, 100}";
type = Stem;
},
{
place = "{24, 533}";
type = Stem;
}
);
layerId = "6B8C0991-2F12-49E7-9CA3-B7242A37F482";
paths = (
{
closed = 1;
nodes = (
"557 243 LINE",
"224 412 LINE",
"557 581 LINE",
"557 704 LINE",
"25 412 LINE",
"557 119 LINE"
);
},
{
closed = 1;
nodes = (
"555 100 LINE",
"24 100 LINE",
"24 0 LINE",
"555 0 LINE"
);
}
);
width = 600;
}
);
note = lessequal;
unicode = 2264;
},
{
glyphname = logicalnot;
layers = (
{
hints = (
{
horizontal = 1;
place = "{260, 100}";
type = Stem;
},
{
place = "{532, 115}";
type = Stem;
}
);
layerId = "6B8C0991-2F12-49E7-9CA3-B7242A37F482";
paths = (
{
closed = 1;
nodes = (
"532 260 LINE",
"532 52 LINE",
"647 52 LINE",
"647 360 LINE",
"38 360 LINE",
"38 260 LINE"
);
}
);
width = 667;
}
);
note = logicalnot;
unicode = 00AC;
},
{
glyphname = minus;
layers = (
{
hints = (
{
horizontal = 1;
place = "{249, 110}";
type = Stem;
},
{
place = "{48, 724}";
type = Stem;
}
);
layerId = "6B8C0991-2F12-49E7-9CA3-B7242A37F482";
paths = (
{
closed = 1;
nodes = (
"48 249 LINE",
"772 249 LINE",
"772 359 LINE",
"48 359 LINE"
);
}
);
width = 820;
}
);
note = minus;
unicode = 2212;
},
{
glyphname = multiply;
layers = (
{
hints = (
{
horizontal = 1;
place = "{3, 560}";
type = Stem;
},
{
place = "{30, 560}";
type = Stem;
}
);
layerId = "6B8C0991-2F12-49E7-9CA3-B7242A37F482";
paths = (
{
closed = 1;
nodes = (
"100 3 LINE",
"309.78 212.78 LINE",
"518 5 LINE",
"590 74 LINE",
"380.28 283.28 LINE",
"589 492 LINE",
"520 563 LINE",
"310.21 353.21 LINE",
"100 563 LINE",
"30 492 LINE",
"239.71 282.71 LINE",
"31 74 LINE"
);
}
);
width = 600;
}
);
note = multiply;
unicode = 00D7;
},
{
glyphname = notequal;
layers = (
{
hints = (
{
horizontal = 1;
place = "{120, 100}";
type = Stem;
},
{
horizontal = 1;
place = "{310, 100}";
type = Stem;
},
{
place = "{38, 521}";
type = Stem;
}
);
layerId = "6B8C0991-2F12-49E7-9CA3-B7242A37F482";
paths = (
{
closed = 1;
nodes = (
"357.38 220 LINE",
"384.03 310 LINE",
"559 310 LINE",
"559 410 LINE",
"413.64 410 LINE",
"485 651 LINE",
"380 651 LINE",
"308.64 410 LINE",
"38 410 LINE",
"38 310 LINE",
"279.03 310 LINE",
"252.38 220 LINE",
"38 220 LINE",
"38 120 LINE",
"222.77 120 LINE",
"152 -119 LINE",
"257 -119 LINE",
"327.77 120 LINE",
"559 120 LINE",
"559 220 LINE"
);
}
);
width = 600;
}
);
note = notequal;
unicode = 2260;
},
{
glyphname = partialdiff;
layers = (
{
hints = (
{
horizontal = 1;
place = "{-16, 93}";
type = Stem;
},
{
horizontal = 1;
place = "{406, 98}";
type = Stem;
},
{
horizontal = 1;
place = "{720.28, 65.72}";
type = Stem;
},
{
place = "{11, 106}";
type = Stem;
},
{
place = "{424, 132}";
type = Stem;
}
);
layerId = "6B8C0991-2F12-49E7-9CA3-B7242A37F482";
paths = (
{
closed = 1;
nodes = (
"556 538 OFFCURVE",
"423 786 OFFCURVE",
"178 786 CURVE SMOOTH",
"171 786 OFFCURVE",
"126 784 OFFCURVE",
"110 780 CURVE",
"118 716.09 LINE",
"132.53 718.92 OFFCURVE",
"146.72 720.28 OFFCURVE",
"160.54 720.28 CURVE SMOOTH",
"297.88 720.28 OFFCURVE",
"398.2 586.47 OFFCURVE",
"430 442 CURVE",
"396 473 OFFCURVE",
"334 504 OFFCURVE",
"264 504 CURVE SMOOTH",
"96 504 OFFCURVE",
"11 341 OFFCURVE",
"11 226 CURVE SMOOTH",
"11 83 OFFCURVE",
"129 -16 OFFCURVE",
"256 -16 CURVE SMOOTH",
"419 -16 OFFCURVE",
"556 144 OFFCURVE",
"556 335 CURVE SMOOTH"
);
},
{
closed = 1;
nodes = (
"187 77 OFFCURVE",
"117 128 OFFCURVE",
"117 217 CURVE SMOOTH",
"117 302 OFFCURVE",
"183 406 OFFCURVE",
"278 406 CURVE SMOOTH",
"349 406 OFFCURVE",
"424 345 OFFCURVE",
"424 257 CURVE SMOOTH",
"424 183 OFFCURVE",
"369 77 OFFCURVE",
"263 77 CURVE SMOOTH"
);
}
);
width = 573;
}
);
note = partialdiff;
unicode = 2202;
},
{
glyphname = percent;
layers = (
{
hints = (
{
horizontal = 1;
place = "{-7, 91}";
type = Stem;
},
{
horizontal = 1;
place = "{302, 91}";
type = Stem;
},
{
horizontal = 1;
place = "{632, 92}";
type = Stem;
},
{
place = "{23, 92}";
type = Stem;
},
{
place = "{271, 92}";
type = Stem;
},
{
place = "{489, 92}";
type = Stem;
},
{
place = "{737, 92}";
type = Stem;
},
{
horizontal = 1;
place = "{323, 92}";
type = Stem;
}
);
layerId = "6B8C0991-2F12-49E7-9CA3-B7242A37F482";
paths = (
{
closed = 1;
nodes = (
"86 724 OFFCURVE",
"23 635 OFFCURVE",
"23 512 CURVE SMOOTH",
"23 390 OFFCURVE",
"86 302 OFFCURVE",
"192 302 CURVE SMOOTH",
"297 302 OFFCURVE",
"363 390 OFFCURVE",
"363 512 CURVE SMOOTH",
"363 635 OFFCURVE",
"297 724 OFFCURVE",
"192 724 CURVE SMOOTH"
);
},
{
closed = 1;
nodes = (
"589 724 LINE",
"108 -39 LINE",
"229 -39 LINE",
"711 724 LINE"
);
},
{
closed = 1;
nodes = (
"241 632 OFFCURVE",
"271 593 OFFCURVE",
"271 512 CURVE SMOOTH",
"271 433 OFFCURVE",
"241 393 OFFCURVE",
"192 393 CURVE SMOOTH",
"145 393 OFFCURVE",
"115 433 OFFCURVE",
"115 512 CURVE SMOOTH",
"115 593 OFFCURVE",
"145 632 OFFCURVE",
"192 632 CURVE SMOOTH"
);
},
{
closed = 1;
nodes = (
"552 415 OFFCURVE",
"489 326 OFFCURVE",
"489 203 CURVE SMOOTH",
"489 81 OFFCURVE",
"552 -7 OFFCURVE",
"658 -7 CURVE SMOOTH",
"763 -7 OFFCURVE",
"829 81 OFFCURVE",
"829 203 CURVE SMOOTH",
"829 326 OFFCURVE",
"763 415 OFFCURVE",
"658 415 CURVE SMOOTH"
);
},
{
closed = 1;
nodes = (
"707 323 OFFCURVE",
"737 284 OFFCURVE",
"737 203 CURVE SMOOTH",
"737 124 OFFCURVE",
"707 84 OFFCURVE",
"658 84 CURVE SMOOTH",
"611 84 OFFCURVE",
"581 124 OFFCURVE",
"581 203 CURVE SMOOTH",
"581 284 OFFCURVE",
"611 323 OFFCURVE",
"658 323 CURVE SMOOTH"
);
}
);
width = 845;
}
);
note = percent;
unicode = 0025;
},
